AnekOdia-ExpandedThin.ufo
<glyph name="G" format="2">
  <advance width="1672"/>
  <unicode hex="0047"/>
  <anchor x="836" y="0" name="bottom"/>
  <anchor x="836" y="1278" name="top"/>
  <outline>
    <contour>
      <point x="841" y="-21" type="curve" smooth="yes"/>
      <point x="1200" y="-21"/>
      <point x="1384" y="160"/>
      <point x="1433" y="315" type="curve"/>
      <point x="1464" y="315" type="line"/>
      <point x="1464" y="661" type="line"/>
      <point x="864" y="661" type="line"/>
      <point x="864" y="628" type="line"/>
      <point x="1442" y="628" type="line"/>
      <point x="1426" y="651" type="line"/>
      <point x="1426" y="360" type="line"/>
      <point x="1368" y="174"/>
      <point x="1173" y="16"/>
      <point x="843" y="16" type="curve" smooth="yes"/>
      <point x="417" y="16"/>
      <point x="183" y="236"/>
      <point x="183" y="629" type="curve" smooth="yes"/>
      <point x="183" y="650" type="line" smooth="yes"/>
      <point x="183" y="1040"/>
      <point x="415" y="1262"/>
      <point x="837" y="1262" type="curve" smooth="yes"/>
      <point x="1107" y="1262"/>
      <point x="1303" y="1175"/>
      <point x="1432" y="1080" type="curve"/>
      <point x="1426" y="1123" type="line"/>
      <point x="1324" y="1200"/>
      <point x="1125" y="1299"/>
      <point x="839" y="1299" type="curve" smooth="yes"/>
      <point x="389" y="1299"/>
      <point x="142" y="1061"/>
      <point x="142" y="650" type="curve"/>
      <point x="142" y="629" type="line"/>
      <point x="142" y="213"/>
      <point x="392" y="-21"/>
    </contour>
    <contour>
      <point x="1430" y="331" type="line"/>
      <point x="1426" y="0" type="line"/>
      <point x="1464" y="0" type="line"/>
      <point x="1464" y="331" type="line"/>
    </contour>
  </outline>
</glyph>
<glyph name="copyright" format="2">
  <advance width="1647"/>
  <unicode hex="00A9"/>
  <outline>
    <contour>
      <point x="823" y="-21" type="curve" smooth="yes"/>
      <point x="1262" y="-21"/>
      <point x="1505" y="213"/>
      <point x="1505" y="629" type="curve"/>
      <point x="1505" y="650" type="line"/>
      <point x="1506" y="1066"/>
      <point x="1262" y="1299"/>
      <point x="823" y="1299" type="curve" smooth="yes"/>
      <point x="385" y="1299"/>
      <point x="142" y="1066"/>
      <point x="142" y="650" type="curve"/>
      <point x="142" y="629" type="line"/>
      <point x="142" y="213"/>
      <point x="385" y="-21"/>
    </contour>
    <contour>
      <point x="852" y="316" type="curve" smooth="yes"/>
      <point x="1006" y="316"/>
      <point x="1093" y="363"/>
      <point x="1143" y="402" type="curve"/>
      <point x="1146" y="442" type="line"/>
      <point x="1090" y="396"/>
      <point x="1001" y="350"/>
      <point x="853" y="350" type="curve" smooth="yes"/>
      <point x="649" y="350"/>
      <point x="537" y="451"/>
      <point x="537" y="634" type="curve" smooth="yes"/>
      <point x="537" y="650" type="line" smooth="yes"/>
      <point x="537" y="832"/>
      <point x="651" y="930"/>
      <point x="850" y="930" type="curve" smooth="yes"/>
      <point x="990" y="930"/>
      <point x="1079" y="886"/>
      <point x="1138" y="839" type="curve"/>
      <point x="1135" y="880" type="line"/>
      <point x="1090" y="914"/>
      <point x="1002" y="964"/>
      <point x="852" y="964" type="curve" smooth="yes"/>
      <point x="625" y="964"/>
      <point x="499" y="855"/>
      <point x="499" y="649" type="curve" smooth="yes"/>
      <point x="499" y="634" type="line" smooth="yes"/>
      <point x="499" y="427"/>
      <point x="624" y="316"/>
    </contour>
    <contour>
      <point x="823" y="13" type="curve" smooth="yes"/>
      <point x="406" y="13"/>
      <point x="180" y="234"/>
      <point x="180" y="629" type="curve" smooth="yes"/>
      <point x="180" y="650" type="line" smooth="yes"/>
      <point x="180" y="1046"/>
      <point x="406" y="1265"/>
      <point x="823" y="1265" type="curve" smooth="yes"/>
      <point x="1241" y="1265"/>
      <point x="1467" y="1046"/>
      <point x="1467" y="650" type="curve" smooth="yes"/>
      <point x="1467" y="629" type="line" smooth="yes"/>
      <point x="1467" y="234"/>
      <point x="1241" y="13"/>
    </contour>
  </outline>
</glyph>
<glyph name="Candrabindu.or" format="2">
  <unicode hex="0B01"/>
  <anchor x="-394" y="1453" name="_top2"/>
  <outline>
    <contour>
      <point x="-393" y="1721" type="curve" smooth="yes"/>
      <point x="-435" y="1721"/>
      <point x="-456" y="1745"/>
      <point x="-456" y="1777" type="curve" smooth="yes"/>
      <point x="-456" y="1780" type="line" smooth="yes"/>
      <point x="-456" y="1810"/>
      <point x="-435" y="1834"/>
      <point x="-393" y="1834" type="curve" smooth="yes"/>
      <point x="-351" y="1834"/>
      <point x="-330" y="1810"/>
      <point x="-330" y="1780" type="curve" smooth="yes"/>
      <point x="-330" y="1777" type="line" smooth="yes"/>
      <point x="-330" y="1745"/>
      <point x="-351" y="1721"/>
    </contour>
    <contour>
      <point x="-53" y="1769" type="line"/>
      <point x="-19" y="1769" type="line"/>
      <point x="-19" y="1759"/>
      <point x="-19" y="1755"/>
      <point x="-19" y="1748" type="curve" smooth="yes"/>
      <point x="-19" y="1556"/>
      <point x="-150" y="1453"/>
      <point x="-394" y="1453" type="curve" smooth="yes"/>
      <point x="-631" y="1453"/>
      <point x="-763" y="1556"/>
      <point x="-763" y="1748" type="curve" smooth="yes"/>
      <point x="-763" y="1755"/>
      <point x="-763" y="1759"/>
      <point x="-763" y="1769" type="curve"/>
      <point x="-729" y="1769" type="line"/>
      <point x="-729" y="1748" type="line" smooth="yes"/>
      <point x="-729" y="1574"/>
      <point x="-609" y="1486"/>
      <point x="-394" y="1486" type="curve" smooth="yes"/>
      <point x="-173" y="1486"/>
      <point x="-53" y="1574"/>
      <point x="-53" y="1748" type="curve" smooth="yes"/>
    </contour>
  </outline>
</glyph>
<glyph name="Anusvara.or" format="2">
  <advance width="730"/>
  <unicode hex="0B02"/>
  <outline>
    <contour>
      <point x="365" y="785" type="curve" smooth="yes"/>
      <point x="585" y="785"/>
      <point x="700" y="874"/>
      <point x="700" y="1044" type="curve" smooth="yes"/>
      <point x="700" y="1061" type="line" smooth="yes"/>
      <point x="700" y="1231"/>
      <point x="585" y="1320"/>
      <point x="365" y="1320" type="curve" smooth="yes"/>
      <point x="146" y="1320"/>
      <point x="30" y="1231"/>
      <point x="30" y="1061" type="curve" smooth="yes"/>
      <point x="30" y="1044" type="line" smooth="yes"/>
      <point x="30" y="874"/>
      <point x="146" y="785"/>
    </contour>
    <contour>
      <point x="365" y="820" type="curve" smooth="yes"/>
      <point x="172" y="820"/>
      <point x="68" y="899"/>
      <point x="68" y="1044" type="curve" smooth="yes"/>
      <point x="68" y="1061" type="line" smooth="yes"/>
      <point x="68" y="1208"/>
      <point x="172" y="1285"/>
      <point x="365" y="1285" type="curve" smooth="yes"/>
      <point x="558" y="1285"/>
      <point x="662" y="1208"/>
      <point x="662" y="1061" type="curve" smooth="yes"/>
      <point x="662" y="1044" type="line" smooth="yes"/>
      <point x="662" y="899"/>
      <point x="558" y="820"/>
    </contour>
  </outline>
</glyph>
<glyph name="Visarga.or" format="2">
  <advance width="1192"/>
  <unicode hex="0B03"/>
  <outline>
    <contour>
      <point x="599" y="-7" type="curve" smooth="yes"/>
      <point x="878" y="-7"/>
      <point x="1036" y="94"/>
      <point x="1036" y="291" type="curve" smooth="yes"/>
      <point x="1036" y="306" type="line" smooth="yes"/>
      <point x="1036" y="484"/>
      <point x="880" y="580"/>
      <point x="613" y="676" type="curve"/>
      <point x="607" y="679" type="line"/>
      <point x="347" y="771"/>
      <point x="195" y="858"/>
      <point x="195" y="1020" type="curve" smooth="yes"/>
      <point x="195" y="1035" type="line" smooth="yes"/>
      <point x="195" y="1213"/>
      <point x="338" y="1303"/>
      <point x="593" y="1303" type="curve" smooth="yes"/>
      <point x="847" y="1303"/>
      <point x="990" y="1211"/>
      <point x="990" y="1035" type="curve" smooth="yes"/>
      <point x="990" y="1020" type="line" smooth="yes"/>
      <point x="990" y="859"/>
      <point x="840" y="772"/>
      <point x="582" y="681" type="curve"/>
      <point x="569" y="676" type="line"/>
      <point x="312" y="580"/>
      <point x="162" y="484"/>
      <point x="162" y="306" type="curve" smooth="yes"/>
      <point x="162" y="291" type="line" smooth="yes"/>
      <point x="162" y="93"/>
      <point x="320" y="-7"/>
    </contour>
    <contour>
      <point x="599" y="28" type="curve" smooth="yes"/>
      <point x="343" y="28"/>
      <point x="201" y="117"/>
      <point x="201" y="291" type="curve" smooth="yes"/>
      <point x="201" y="306" type="line" smooth="yes"/>
      <point x="201" y="470"/>
      <point x="347" y="560"/>
      <point x="597" y="652" type="curve" smooth="yes"/>
      <point x="610" y="657" type="line"/>
      <point x="875" y="752"/>
      <point x="1029" y="845"/>
      <point x="1029" y="1020" type="curve" smooth="yes"/>
      <point x="1029" y="1035" type="line" smooth="yes"/>
      <point x="1029" y="1235"/>
      <point x="872" y="1338"/>
      <point x="593" y="1338" type="curve" smooth="yes"/>
      <point x="313" y="1338"/>
      <point x="156" y="1234"/>
      <point x="156" y="1035" type="curve" smooth="yes"/>
      <point x="156" y="1020" type="line" smooth="yes"/>
      <point x="156" y="844"/>
      <point x="312" y="751"/>
      <point x="579" y="655" type="curve"/>
      <point x="585" y="652" type="line"/>
      <point x="845" y="560"/>
      <point x="997" y="470"/>
      <point x="997" y="306" type="curve" smooth="yes"/>
      <point x="997" y="291" type="line" smooth="yes"/>
      <point x="997" y="117"/>
      <point x="854" y="28"/>
    </contour>
  </outline>
</glyph>
<glyph name="VowelA.or" format="2">
  <advance width="2101"/>
  <unicode hex="0B05"/>
  <anchor x="1812" y="1453" name="top2"/>
  <outline>
    <contour>
      <point x="1810" y="0" type="line"/>
      <point x="1849" y="0" type="line"/>
      <point x="1849" y="1314" type="line"/>
      <point x="1812" y="1314" type="line"/>
      <point x="1812" y="383" type="line"/>
      <point x="1812" y="358" type="line"/>
    </contour>
    <contour>
      <point x="920" y="-18" type="curve" smooth="yes"/>
      <point x="1455" y="-18"/>
      <point x="1760" y="151"/>
      <point x="1834" y="406" type="curve"/>
      <point x="1825" y="402" type="line"/>
      <point x="1814" y="399" type="line"/>
      <point x="1711" y="171"/>
      <point x="1439" y="18"/>
      <point x="920" y="18" type="curve" smooth="yes"/>
      <point x="464" y="18"/>
      <point x="233" y="109"/>
      <point x="233" y="319" type="curve" smooth="yes"/>
      <point x="233" y="335" type="line" smooth="yes"/>
      <point x="233" y="518"/>
      <point x="347" y="564"/>
      <point x="721" y="623" type="curve" smooth="yes"/>
      <point x="913" y="653" type="line" smooth="yes"/>
      <point x="1331" y="719"/>
      <point x="1448" y="812"/>
      <point x="1448" y="1029" type="curve" smooth="yes"/>
      <point x="1448" y="1043" type="line" smooth="yes"/>
      <point x="1448" y="1232"/>
      <point x="1341" y="1330"/>
      <point x="1135" y="1330" type="curve" smooth="yes"/>
      <point x="920" y="1330"/>
      <point x="812" y="1222"/>
      <point x="812" y="1022" type="curve"/>
      <point x="833" y="1022" type="line"/>
      <point x="833" y="1222"/>
      <point x="729" y="1330"/>
      <point x="525" y="1330" type="curve" smooth="yes"/>
      <point x="319" y="1330"/>
      <point x="208" y="1227"/>
      <point x="208" y="1043" type="curve" smooth="yes"/>
      <point x="208" y="1022" type="line" smooth="yes"/>
      <point x="208" y="934"/>
      <point x="229" y="858"/>
      <point x="265" y="783" type="curve"/>
      <point x="306" y="778" type="line"/>
      <point x="267" y="861"/>
      <point x="245" y="937"/>
      <point x="245" y="1020" type="curve" smooth="yes"/>
      <point x="245" y="1042" type="line" smooth="yes"/>
      <point x="245" y="1205"/>
      <point x="340" y="1297"/>
      <point x="523" y="1297" type="curve" smooth="yes"/>
      <point x="707" y="1297"/>
      <point x="803" y="1199"/>
      <point x="805" y="1020" type="curve" smooth="yes"/>
      <point x="807" y="881" type="line"/>
      <point x="839" y="881" type="line"/>
      <point x="840" y="1020" type="line" smooth="yes"/>
      <point x="842" y="1201"/>
      <point x="938" y="1297"/>
      <point x="1133" y="1297" type="curve" smooth="yes"/>
      <point x="1317" y="1297"/>
      <point x="1411" y="1211"/>
      <point x="1411" y="1043" type="curve" smooth="yes"/>
      <point x="1411" y="1031" type="line" smooth="yes"/>
      <point x="1411" y="827"/>
      <point x="1299" y="748"/>
      <point x="906" y="687" type="curve" smooth="yes"/>
      <point x="714" y="657" type="line" smooth="yes"/>
      <point x="324" y="596"/>
      <point x="194" y="538"/>
      <point x="194" y="335" type="curve" smooth="yes"/>
      <point x="194" y="319" type="line" smooth="yes"/>
      <point x="194" y="86"/>
      <point x="436" y="-18"/>
    </contour>
  </outline>
</glyph>
<glyph name="VowelI.or" format="2">
  <advance width="2220"/>
  <unicode hex="0B07"/>
  <anchor x="1698" y="1453" name="top2"/>
  <outline>
    <contour>
      <point x="2294" y="-158" type="line"/>
      <point x="2294" y="-117" type="line"/>
      <point x="1869" y="46" type="line"/>
      <point x="1874" y="28" type="line"/>
      <point x="1962" y="160"/>
      <point x="2033" y="335"/>
      <point x="2033" y="551" type="curve" smooth="yes"/>
      <point x="2033" y="580" type="line" smooth="yes"/>
      <point x="2033" y="1092"/>
      <point x="1696" y="1353"/>
      <point x="1052" y="1353" type="curve" smooth="yes"/>
      <point x="459" y="1353"/>
      <point x="155" y="1162"/>
      <point x="155" y="800" type="curve" smooth="yes"/>
      <point x="155" y="779" type="line" smooth="yes"/>
      <point x="155" y="596"/>
      <point x="238" y="481"/>
      <point x="379" y="417" type="curve"/>
      <point x="390" y="456" type="line"/>
      <point x="265" y="509"/>
      <point x="194" y="617"/>
      <point x="194" y="779" type="curve" smooth="yes"/>
      <point x="194" y="800" type="line" smooth="yes"/>
      <point x="194" y="1138"/>
      <point x="485" y="1318"/>
      <point x="1050" y="1318" type="curve" smooth="yes"/>
      <point x="1670" y="1318"/>
      <point x="1994" y="1072"/>
      <point x="1994" y="580" type="curve" smooth="yes"/>
      <point x="1994" y="551" type="line" smooth="yes"/>
      <point x="1994" y="350"/>
      <point x="1924" y="169"/>
      <point x="1828" y="25" type="curve"/>
    </contour>
    <contour>
      <point x="688" y="10" type="curve" smooth="yes"/>
      <point x="500" y="10"/>
      <point x="402" y="120"/>
      <point x="402" y="331" type="curve" smooth="yes"/>
      <point x="402" y="354" type="line" smooth="yes"/>
      <point x="402" y="565"/>
      <point x="500" y="675"/>
      <point x="688" y="675" type="curve" smooth="yes"/>
      <point x="875" y="675"/>
      <point x="974" y="562"/>
      <point x="974" y="347" type="curve" smooth="yes"/>
      <point x="974" y="336" type="line" smooth="yes"/>
      <point x="974" y="122"/>
      <point x="875" y="10"/>
    </contour>
    <contour>
      <point x="684" y="-23" type="curve" smooth="yes"/>
      <point x="896" y="-23"/>
      <point x="1004" y="98"/>
      <point x="1004" y="336" type="curve"/>
      <point x="977" y="336" type="line"/>
      <point x="977" y="100"/>
      <point x="1086" y="-23"/>
      <point x="1297" y="-23" type="curve" smooth="yes"/>
      <point x="1508" y="-23"/>
      <point x="1616" y="96"/>
      <point x="1616" y="331" type="curve" smooth="yes"/>
      <point x="1616" y="354" type="line" smooth="yes"/>
      <point x="1616" y="584"/>
      <point x="1504" y="708"/>
      <point x="1295" y="708" type="curve" smooth="yes"/>
      <point x="1084" y="708"/>
      <point x="977" y="586"/>
      <point x="977" y="347" type="curve"/>
      <point x="1004" y="347" type="line"/>
      <point x="1004" y="584"/>
      <point x="895" y="708"/>
      <point x="684" y="708" type="curve" smooth="yes"/>
      <point x="512" y="708"/>
      <point x="402" y="618"/>
      <point x="374" y="452" type="curve"/>
      <point x="370" y="429" type="line"/>
      <point x="366" y="406"/>
      <point x="365" y="377"/>
      <point x="365" y="354" type="curve" smooth="yes"/>
      <point x="365" y="331" type="line" smooth="yes"/>
      <point x="365" y="98"/>
      <point x="474" y="-23"/>
    </contour>
    <contour>
      <point x="1293" y="10" type="curve" smooth="yes"/>
      <point x="1106" y="10"/>
      <point x="1007" y="124"/>
      <point x="1007" y="336" type="curve" smooth="yes"/>
      <point x="1007" y="347" type="line" smooth="yes"/>
      <point x="1007" y="562"/>
      <point x="1104" y="675"/>
      <point x="1291" y="675" type="curve" smooth="yes"/>
      <point x="1482" y="675"/>
      <point x="1579" y="566"/>
      <point x="1579" y="354" type="curve" smooth="yes"/>
      <point x="1579" y="331" type="line" smooth="yes"/>
      <point x="1579" y="118"/>
      <point x="1482" y="10"/>
    </contour>
  </outline>
</glyph>
<glyph name="VowelIi.or" format="2">
  <advance width="2187"/>
  <unicode hex="0B08"/>
  <anchor x="1694" y="1453" name="top2"/>
  <outline>
    <contour>
      <point x="2261" y="-158" type="line"/>
      <point x="2261" y="-117" type="line"/>
      <point x="1836" y="46" type="line"/>
      <point x="1842" y="28" type="line"/>
      <point x="1929" y="160"/>
      <point x="2000" y="334"/>
      <point x="2000" y="550" type="curve" smooth="yes"/>
      <point x="2000" y="579" type="line" smooth="yes"/>
      <point x="2000" y="1093"/>
      <point x="1683" y="1353"/>
      <point x="1103" y="1353" type="curve" smooth="yes"/>
      <point x="675" y="1353"/>
      <point x="473" y="1213"/>
      <point x="473" y="996" type="curve" smooth="yes"/>
      <point x="473" y="991"/>
      <point x="473" y="987"/>
      <point x="473" y="983" type="curve"/>
      <point x="512" y="983" type="line"/>
      <point x="512" y="987"/>
      <point x="512" y="991"/>
      <point x="512" y="996" type="curve" smooth="yes"/>
      <point x="512" y="1192"/>
      <point x="702" y="1318"/>
      <point x="1102" y="1318" type="curve" smooth="yes"/>
      <point x="1658" y="1318"/>
      <point x="1961" y="1073"/>
      <point x="1961" y="579" type="curve" smooth="yes"/>
      <point x="1961" y="550" type="line" smooth="yes"/>
      <point x="1961" y="349"/>
      <point x="1891" y="169"/>
      <point x="1795" y="25" type="curve"/>
    </contour>
    <contour>
      <point x="655" y="10" type="curve" smooth="yes"/>
      <point x="467" y="10"/>
      <point x="369" y="120"/>
      <point x="369" y="331" type="curve" smooth="yes"/>
      <point x="369" y="354" type="line" smooth="yes"/>
      <point x="369" y="565"/>
      <point x="467" y="675"/>
      <point x="655" y="675" type="curve" smooth="yes"/>
      <point x="843" y="675"/>
      <point x="941" y="562"/>
      <point x="941" y="347" type="curve" smooth="yes"/>
      <point x="941" y="336" type="line" smooth="yes"/>
      <point x="941" y="122"/>
      <point x="843" y="10"/>
    </contour>
    <contour>
      <point x="651" y="-23" type="curve" smooth="yes"/>
      <point x="863" y="-23"/>
      <point x="970" y="98"/>
      <point x="970" y="336" type="curve"/>
      <point x="944" y="336" type="line"/>
      <point x="944" y="100"/>
      <point x="1053" y="-23"/>
      <point x="1264" y="-23" type="curve" smooth="yes"/>
      <point x="1475" y="-23"/>
      <point x="1583" y="96"/>
      <point x="1583" y="331" type="curve" smooth="yes"/>
      <point x="1583" y="354" type="line" smooth="yes"/>
      <point x="1583" y="584"/>
      <point x="1471" y="708"/>
      <point x="1262" y="708" type="curve" smooth="yes"/>
      <point x="1051" y="708"/>
      <point x="944" y="586"/>
      <point x="944" y="347" type="curve"/>
      <point x="970" y="347" type="line"/>
      <point x="970" y="584"/>
      <point x="861" y="708"/>
      <point x="651" y="708" type="curve" smooth="yes"/>
      <point x="479" y="708"/>
      <point x="369" y="618"/>
      <point x="341" y="452" type="curve"/>
      <point x="337" y="429" type="line"/>
      <point x="334" y="406"/>
      <point x="332" y="377"/>
      <point x="332" y="354" type="curve" smooth="yes"/>
      <point x="332" y="331" type="line" smooth="yes"/>
      <point x="332" y="98"/>
      <point x="441" y="-23"/>
    </contour>
    <contour>
      <point x="343" y="411" type="curve"/>
      <point x="354" y="449" type="line"/>
      <point x="226" y="475"/>
      <point x="159" y="564"/>
      <point x="159" y="682" type="curve" smooth="yes"/>
      <point x="159" y="694" type="line" smooth="yes"/>
      <point x="159" y="876"/>
      <point x="304" y="977"/>
      <point x="553" y="977" type="curve" smooth="yes"/>
      <point x="567" y="977" type="line" smooth="yes"/>
      <point x="701" y="977"/>
      <point x="806" y="952"/>
      <point x="902" y="917" type="curve"/>
      <point x="897" y="952" type="line"/>
      <point x="815" y="983"/>
      <point x="696" y="1011"/>
      <point x="565" y="1011" type="curve" smooth="yes"/>
      <point x="553" y="1011" type="line" smooth="yes"/>
      <point x="280" y="1011"/>
      <point x="120" y="894"/>
      <point x="120" y="694" type="curve" smooth="yes"/>
      <point x="120" y="682" type="line" smooth="yes"/>
      <point x="120" y="543"/>
      <point x="202" y="447"/>
    </contour>
    <contour>
      <point x="1260" y="10" type="curve" smooth="yes"/>
      <point x="1073" y="10"/>
      <point x="974" y="122"/>
      <point x="974" y="336" type="curve" smooth="yes"/>
      <point x="974" y="347" type="line" smooth="yes"/>
      <point x="974" y="562"/>
      <point x="1071" y="675"/>
      <point x="1259" y="675" type="curve" smooth="yes"/>
      <point x="1449" y="675"/>
      <point x="1546" y="566"/>
      <point x="1546" y="354" type="curve" smooth="yes"/>
      <point x="1546" y="331" type="line" smooth="yes"/>
      <point x="1546" y="118"/>
      <point x="1449" y="10"/>
    </contour>
  </outline>
</glyph>
<glyph name="VowelU.or" format="2">
  <advance width="2175"/>
  <unicode hex="0B09"/>
  <anchor x="1659" y="1453" name="top2"/>
  <outline>
    <contour>
      <point x="2219" y="-157" type="line"/>
      <point x="2219" y="-116" type="line"/>
      <point x="1785" y="46" type="line"/>
      <point x="1799" y="32" type="line"/>
      <point x="1903" y="174"/>
      <point x="1988" y="351"/>
      <point x="1988" y="586" type="curve" smooth="yes"/>
      <point x="1988" y="614" type="line" smooth="yes"/>
      <point x="1988" y="1104"/>
      <point x="1637" y="1353"/>
      <point x="1025" y="1353" type="curve" smooth="yes"/>
      <point x="455" y="1353"/>
      <point x="155" y="1150"/>
      <point x="155" y="812" type="curve" smooth="yes"/>
      <point x="155" y="787" type="line" smooth="yes"/>
      <point x="155" y="562"/>
      <point x="283" y="414"/>
      <point x="502" y="368" type="curve"/>
      <point x="509" y="406" type="line"/>
      <point x="308" y="444"/>
      <point x="194" y="585"/>
      <point x="194" y="787" type="curve" smooth="yes"/>
      <point x="194" y="812" type="line" smooth="yes"/>
      <point x="194" y="1126"/>
      <point x="486" y="1318"/>
      <point x="1023" y="1318" type="curve" smooth="yes"/>
      <point x="1612" y="1318"/>
      <point x="1949" y="1083"/>
      <point x="1949" y="614" type="curve" smooth="yes"/>
      <point x="1949" y="586" type="line" smooth="yes"/>
      <point x="1949" y="361"/>
      <point x="1863" y="176"/>
      <point x="1750" y="25" type="curve"/>
    </contour>
    <contour>
      <point x="993" y="-18" type="curve" smooth="yes"/>
      <point x="1299" y="-18"/>
      <point x="1477" y="119"/>
      <point x="1477" y="326" type="curve" smooth="yes"/>
      <point x="1477" y="340" type="line" smooth="yes"/>
      <point x="1477" y="463"/>
      <point x="1415" y="541"/>
      <point x="1308" y="595" type="curve"/>
      <point x="1308" y="602" type="line"/>
      <point x="1278" y="577" type="line"/>
      <point x="1378" y="532"/>
      <point x="1440" y="454"/>
      <point x="1440" y="340" type="curve" smooth="yes"/>
      <point x="1440" y="326" type="line" smooth="yes"/>
      <point x="1440" y="146"/>
      <point x="1274" y="17"/>
      <point x="993" y="17" type="curve" smooth="yes"/>
      <point x="674" y="17"/>
      <point x="516" y="153"/>
      <point x="516" y="368" type="curve" smooth="yes"/>
      <point x="516" y="390" type="line" smooth="yes"/>
      <point x="516" y="550"/>
      <point x="603" y="675"/>
      <point x="790" y="730" type="curve"/>
      <point x="790" y="765" type="line"/>
      <point x="575" y="701"/>
      <point x="480" y="571"/>
      <point x="477" y="390" type="curve"/>
      <point x="477" y="384" type="line"/>
      <point x="477" y="383"/>
      <point x="477" y="379"/>
      <point x="477" y="377" type="curve"/>
      <point x="477" y="372" type="line" smooth="yes"/>
      <point x="477" y="126"/>
      <point x="646" y="-18"/>
    </contour>
    <contour>
      <point x="1009" y="411" type="line"/>
      <point x="1299" y="575" type="line"/>
      <point x="1315" y="584" type="line"/>
      <point x="1582" y="733" type="line"/>
      <point x="1582" y="772" type="line"/>
      <point x="1009" y="450" type="line"/>
    </contour>
  </outline>
</glyph>
<glyph name="VowelUu.or" format="2">
  <advance width="2199"/>
  <unicode hex="0B0A"/>
  <anchor x="1706" y="1453" name="top2"/>
  <outline>
    <contour>
      <point x="2134" y="-162" type="line"/>
      <point x="2134" y="-121" type="line"/>
      <point x="1714" y="35" type="line"/>
      <point x="1680" y="27" type="line"/>
      <point x="1746" y="27" type="line" smooth="yes"/>
      <point x="1970" y="27"/>
      <point x="2084" y="129"/>
      <point x="2084" y="291" type="curve" smooth="yes"/>
      <point x="2084" y="306" type="line" smooth="yes"/>
      <point x="2084" y="471"/>
      <point x="1977" y="552"/>
      <point x="1787" y="554" type="curve"/>
      <point x="1751" y="541" type="line"/>
      <point x="1905" y="558"/>
      <point x="1987" y="679"/>
      <point x="1987" y="823" type="curve" smooth="yes"/>
      <point x="1987" y="833" type="line" smooth="yes"/>
      <point x="1987" y="1162"/>
      <point x="1668" y="1353"/>
      <point x="1075" y="1353" type="curve" smooth="yes"/>
      <point x="460" y="1353"/>
      <point x="155" y="1166"/>
      <point x="155" y="808" type="curve" smooth="yes"/>
      <point x="155" y="783" type="line" smooth="yes"/>
      <point x="155" y="559"/>
      <point x="276" y="417"/>
      <point x="484" y="368" type="curve"/>
      <point x="491" y="406" type="line"/>
      <point x="301" y="447"/>
      <point x="194" y="582"/>
      <point x="194" y="783" type="curve" smooth="yes"/>
      <point x="194" y="808" type="line" smooth="yes"/>
      <point x="194" y="1144"/>
      <point x="485" y="1318"/>
      <point x="1073" y="1318" type="curve" smooth="yes"/>
      <point x="1647" y="1318"/>
      <point x="1949" y="1144"/>
      <point x="1949" y="830" type="curve" smooth="yes"/>
      <point x="1949" y="822" type="line" smooth="yes"/>
      <point x="1949" y="689"/>
      <point x="1872" y="567"/>
      <point x="1699" y="559" type="curve" smooth="yes"/>
      <point x="1677" y="558" type="line"/>
      <point x="1677" y="529" type="line"/>
      <point x="1739" y="529" type="line" smooth="yes"/>
      <point x="1950" y="529"/>
      <point x="2047" y="455"/>
      <point x="2047" y="306" type="curve" smooth="yes"/>
      <point x="2047" y="293" type="line" smooth="yes"/>
      <point x="2047" y="146"/>
      <point x="1946" y="62"/>
      <point x="1736" y="57" type="curve" smooth="yes"/>
      <point x="1654" y="55" type="line"/>
      <point x="1654" y="27" type="line"/>
    </contour>
    <contour>
      <point x="979" y="-18" type="curve" smooth="yes"/>
      <point x="1282" y="-18"/>
      <point x="1459" y="119"/>
      <point x="1459" y="326" type="curve" smooth="yes"/>
      <point x="1459" y="340" type="line" smooth="yes"/>
      <point x="1459" y="463"/>
      <point x="1397" y="541"/>
      <point x="1290" y="595" type="curve"/>
      <point x="1290" y="602" type="line"/>
      <point x="1260" y="577" type="line"/>
      <point x="1360" y="532"/>
      <point x="1422" y="454"/>
      <point x="1422" y="340" type="curve" smooth="yes"/>
      <point x="1422" y="326" type="line" smooth="yes"/>
      <point x="1422" y="146"/>
      <point x="1257" y="17"/>
      <point x="979" y="17" type="curve" smooth="yes"/>
      <point x="663" y="17"/>
      <point x="506" y="153"/>
      <point x="506" y="368" type="curve" smooth="yes"/>
      <point x="506" y="390" type="line" smooth="yes"/>
      <point x="506" y="550"/>
      <point x="593" y="675"/>
      <point x="780" y="730" type="curve"/>
      <point x="780" y="765" type="line"/>
      <point x="565" y="701"/>
      <point x="470" y="571"/>
      <point x="467" y="390" type="curve"/>
      <point x="467" y="384" type="line"/>
      <point x="467" y="383"/>
      <point x="467" y="379"/>
      <point x="467" y="377" type="curve"/>
      <point x="467" y="372" type="line" smooth="yes"/>
      <point x="467" y="126"/>
      <point x="635" y="-18"/>
    </contour>
    <contour>
      <point x="991" y="411" type="line"/>
      <point x="1281" y="575" type="line"/>
      <point x="1297" y="584" type="line"/>
      <point x="1564" y="733" type="line"/>
      <point x="1564" y="772" type="line"/>
      <point x="991" y="450" type="line"/>
    </contour>
  </outline>
</glyph>
<glyph name="VowelVocalicR.or" format="2">
  <advance width="2167"/>
  <unicode hex="0B0B"/>
  <anchor x="1049" y="1780" name="top1"/>
  <anchor x="1677" y="1453" name="top2"/>
  <outline>
    <contour>
      <point x="2102" y="-162" type="line"/>
      <point x="2102" y="-121" type="line"/>
      <point x="1682" y="35" type="line"/>
      <point x="1648" y="27" type="line"/>
      <point x="1714" y="27" type="line"/>
      <point x="1938" y="27"/>
      <point x="2052" y="129"/>
      <point x="2052" y="291" type="curve" smooth="yes"/>
      <point x="2052" y="306" type="line" smooth="yes"/>
      <point x="2052" y="471"/>
      <point x="1945" y="552"/>
      <point x="1755" y="554" type="curve"/>
      <point x="1719" y="541" type="line"/>
      <point x="1873" y="559"/>
      <point x="1955" y="683"/>
      <point x="1955" y="832" type="curve" smooth="yes"/>
      <point x="1955" y="842" type="line" smooth="yes"/>
      <point x="1955" y="1162"/>
      <point x="1641" y="1353"/>
      <point x="1049" y="1353" type="curve" smooth="yes"/>
      <point x="459" y="1353"/>
      <point x="155" y="1161"/>
      <point x="155" y="816" type="curve" smooth="yes"/>
      <point x="155" y="793" type="line" smooth="yes"/>
      <point x="155" y="567"/>
      <point x="279" y="438"/>
      <point x="484" y="375" type="curve"/>
      <point x="491" y="413" type="line"/>
      <point x="304" y="468"/>
      <point x="194" y="590"/>
      <point x="194" y="793" type="curve" smooth="yes"/>
      <point x="194" y="816" type="line" smooth="yes"/>
      <point x="194" y="1139"/>
      <point x="484" y="1318"/>
      <point x="1049" y="1318" type="curve" smooth="yes"/>
      <point x="1621" y="1318"/>
      <point x="1917" y="1144"/>
      <point x="1917" y="839" type="curve" smooth="yes"/>
      <point x="1917" y="831" type="line" smooth="yes"/>
      <point x="1917" y="693"/>
      <point x="1840" y="567"/>
      <point x="1667" y="559" type="curve" smooth="yes"/>
      <point x="1645" y="558" type="line"/>
      <point x="1645" y="529" type="line"/>
      <point x="1707" y="529" type="line" smooth="yes"/>
      <point x="1918" y="529"/>
      <point x="2015" y="455"/>
      <point x="2015" y="306" type="curve" smooth="yes"/>
      <point x="2015" y="293" type="line" smooth="yes"/>
      <point x="2015" y="146"/>
      <point x="1914" y="62"/>
      <point x="1704" y="57" type="curve" smooth="yes"/>
      <point x="1622" y="55" type="line"/>
      <point x="1622" y="27" type="line"/>
    </contour>
    <contour>
      <point x="938" y="-18" type="curve" smooth="yes"/>
      <point x="1244" y="-18"/>
      <point x="1408" y="105"/>
      <point x="1408" y="342" type="curve" smooth="yes"/>
      <point x="1408" y="363" type="line" smooth="yes"/>
      <point x="1408" y="600"/>
      <point x="1244" y="723"/>
      <point x="938" y="723" type="curve" smooth="yes"/>
      <point x="632" y="723"/>
      <point x="478" y="600"/>
      <point x="467" y="374" type="curve"/>
      <point x="467" y="365" type="line"/>
      <point x="467" y="363"/>
      <point x="467" y="360"/>
      <point x="467" y="358" type="curve"/>
      <point x="467" y="345" type="line" smooth="yes"/>
      <point x="467" y="105"/>
      <point x="632" y="-18"/>
    </contour>
    <contour>
      <point x="938" y="15" type="curve" smooth="yes"/>
      <point x="657" y="15"/>
      <point x="506" y="130"/>
      <point x="506" y="342" type="curve" smooth="yes"/>
      <point x="506" y="363" type="line" smooth="yes"/>
      <point x="506" y="579"/>
      <point x="659" y="690"/>
      <point x="938" y="690" type="curve" smooth="yes"/>
      <point x="1219" y="690"/>
      <point x="1371" y="578"/>
      <point x="1371" y="363" type="curve" smooth="yes"/>
      <point x="1371" y="342" type="line" smooth="yes"/>
      <point x="1371" y="130"/>
      <point x="1219" y="15"/>
    </contour>
  </outline>
</glyph>
<glyph name="VowelE.or" format="2">
  <advance width="1813"/>
  <unicode hex="0B0F"/>
  <anchor x="1524" y="1453" name="top2"/>
  <outline>
    <contour>
      <point x="1476" y="0" type="line"/>
      <point x="1561" y="0" type="line"/>
      <point x="1561" y="1314" type="line"/>
      <point x="1487" y="1314" type="line"/>
      <point x="894" y="807" type="line"/>
      <point x="946" y="807" type="line"/>
      <point x="1501" y="1283" type="line"/>
      <point x="1524" y="1283" type="line"/>
      <point x="1524" y="1175"/>
      <point x="1523" y="1066"/>
      <point x="1523" y="958" type="curve" smooth="yes"/>
      <point x="1524" y="32" type="line"/>
      <point x="1494" y="32" type="line"/>
      <point x="20" y="1028" type="line"/>
      <point x="20" y="984" type="line"/>
    </contour>
  </outline>
</glyph>
<glyph name="VowelAi.or" format="2">
  <advance width="2351"/>
  <unicode hex="0B10"/>
  <anchor x="2188" y="1553" name="top2"/>
  <outline>
    <contour>
      <point x="2062" y="0" type="line"/>
      <point x="2099" y="0" type="line"/>
      <point x="2099" y="1312" type="line" smooth="yes"/>
      <point x="2099" y="1569"/>
      <point x="1996" y="1671"/>
      <point x="1710" y="1674" type="curve" smooth="yes"/>
      <point x="1193" y="1679" type="line" smooth="yes"/>
      <point x="962" y="1681"/>
      <point x="848" y="1732"/>
      <point x="848" y="1900" type="curve" smooth="yes"/>
      <point x="848" y="1919" type="line"/>
      <point x="812" y="1919" type="line"/>
      <point x="812" y="1900" type="line" smooth="yes"/>
      <point x="812" y="1711"/>
      <point x="941" y="1646"/>
      <point x="1193" y="1644" type="curve" smooth="yes"/>
      <point x="1710" y="1639" type="line" smooth="yes"/>
      <point x="1977" y="1636"/>
      <point x="2062" y="1548"/>
      <point x="2062" y="1312" type="curve" smooth="yes"/>
    </contour>
    <contour>
      <point x="1548" y="719" type="line"/>
      <point x="2078" y="719" type="line"/>
      <point x="2078" y="753" type="line"/>
      <point x="1548" y="753" type="line"/>
    </contour>
    <component base="VowelE.or"/>
  </outline>
</glyph>
<glyph name="VowelAu.or" format="2">
  <advance width="2406"/>
  <unicode hex="0B14"/>
  <anchor x="2243" y="1553" name="top2"/>
  <outline>
    <contour>
      <point x="2117" y="0" type="line"/>
      <point x="2154" y="0" type="line"/>
      <point x="2154" y="1312" type="line" smooth="yes"/>
      <point x="2154" y="1569"/>
      <point x="2051" y="1671"/>
      <point x="1765" y="1674" type="curve" smooth="yes"/>
      <point x="1248" y="1679" type="line" smooth="yes"/>
      <point x="1017" y="1681"/>
      <point x="903" y="1732"/>
      <point x="903" y="1900" type="curve" smooth="yes"/>
      <point x="903" y="1919" type="line"/>
      <point x="867" y="1919" type="line"/>
      <point x="867" y="1900" type="line" smooth="yes"/>
      <point x="867" y="1711"/>
      <point x="996" y="1646"/>
      <point x="1248" y="1644" type="curve" smooth="yes"/>
      <point x="1765" y="1639" type="line" smooth="yes"/>
      <point x="2032" y="1637"/>
      <point x="2117" y="1548"/>
      <point x="2117" y="1312" type="curve" smooth="yes"/>
    </contour>
    <contour>
      <point x="1698" y="439" type="line"/>
      <point x="2131" y="439" type="line"/>
      <point x="2131" y="473" type="line"/>
      <point x="1698" y="473" type="line"/>
    </contour>
    <component base="VowelO.or"/>
  </outline>
</glyph>
<glyph name="Ka.or" format="2">
  <advance width="2165"/>
  <unicode hex="0B15"/>
  <anchor x="1679" y="4" name="bottom"/>
  <anchor x="1070" y="0" name="nukta"/>
  <anchor x="1070" y="1780" name="top1"/>
  <anchor x="1688" y="1453" name="top2"/>
  <outline>
    <contour>
      <point x="427" y="397" type="curve"/>
      <point x="436" y="433" type="line"/>
      <point x="281" y="486"/>
      <point x="194" y="602"/>
      <point x="194" y="786" type="curve" smooth="yes"/>
      <point x="194" y="807" type="line" smooth="yes"/>
      <point x="194" y="1147"/>
      <point x="496" y="1318"/>
      <point x="1066" y="1318" type="curve" smooth="yes"/>
      <point x="1658" y="1318"/>
      <point x="1971" y="1129"/>
      <point x="1971" y="740" type="curve" smooth="yes"/>
      <point x="1971" y="727" type="line" smooth="yes"/>
      <point x="1971" y="634"/>
      <point x="1946" y="530"/>
      <point x="1889" y="430" type="curve"/>
      <point x="1935" y="437" type="line"/>
      <point x="1984" y="525"/>
      <point x="2010" y="630"/>
      <point x="2010" y="727" type="curve" smooth="yes"/>
      <point x="2010" y="740" type="line" smooth="yes"/>
      <point x="2010" y="1149"/>
      <point x="1683" y="1353"/>
      <point x="1068" y="1353" type="curve" smooth="yes"/>
      <point x="465" y="1353"/>
      <point x="155" y="1170"/>
      <point x="155" y="807" type="curve" smooth="yes"/>
      <point x="155" y="786" type="line" smooth="yes"/>
      <point x="155" y="580"/>
      <point x="254" y="457"/>
    </contour>
    <contour>
      <point x="1059" y="0" type="line"/>
      <point x="1096" y="0" type="line"/>
      <point x="1096" y="424" type="line" smooth="yes"/>
      <point x="1096" y="591"/>
      <point x="1201" y="700"/>
      <point x="1371" y="700" type="curve" smooth="yes"/>
      <point x="1558" y="700"/>
      <point x="1642" y="609"/>
      <point x="1642" y="411" type="curve" smooth="yes"/>
      <point x="1642" y="0" type="line"/>
      <point x="1679" y="0" type="line"/>
      <point x="1679" y="413" type="line" smooth="yes"/>
      <point x="1679" y="630"/>
      <point x="1582" y="733"/>
      <point x="1378" y="733" type="curve" smooth="yes"/>
      <point x="1184" y="733"/>
      <point x="1086" y="622"/>
      <point x="1075" y="468" type="curve"/>
      <point x="1081" y="468" type="line"/>
      <point x="1071" y="624"/>
      <point x="951" y="733"/>
      <point x="749" y="733" type="curve" smooth="yes"/>
      <point x="527" y="733"/>
      <point x="410" y="611"/>
      <point x="408" y="422" type="curve"/>
      <point x="408" y="418" type="line"/>
      <point x="408" y="416"/>
      <point x="408" y="415"/>
      <point x="408" y="411" type="curve"/>
      <point x="408" y="406" type="line" smooth="yes"/>
      <point x="408" y="204"/>
      <point x="529" y="91"/>
      <point x="742" y="91" type="curve" smooth="yes"/>
      <point x="957" y="91"/>
      <point x="1060" y="208"/>
      <point x="1071" y="351" type="curve"/>
      <point x="1080" y="351" type="line"/>
      <point x="1060" y="406" type="line"/>
      <point x="1060" y="232"/>
      <point x="938" y="125"/>
      <point x="751" y="125" type="curve" smooth="yes"/>
      <point x="555" y="125"/>
      <point x="445" y="227"/>
      <point x="445" y="402" type="curve" smooth="yes"/>
      <point x="445" y="422" type="line" smooth="yes"/>
      <point x="445" y="598"/>
      <point x="554" y="700"/>
      <point x="749" y="700" type="curve" smooth="yes"/>
      <point x="950" y="700"/>
      <point x="1060" y="587"/>
      <point x="1060" y="425" type="curve" smooth="yes"/>
      <point x="1060" y="335" type="line"/>
      <point x="1064" y="335" type="line"/>
      <point x="1060" y="146" type="line"/>
    </contour>
  </outline>
</glyph>
<glyph name="Kha.or" format="2">
  <advance width="2193"/>
  <unicode hex="0B16"/>
  <anchor x="1941" y="4" name="bottom"/>
  <anchor x="1110" y="0" name="nukta"/>
  <anchor x="1060" y="1780" name="top1"/>
  <anchor x="1904" y="1453" name="top2"/>
  <outline>
    <contour>
      <point x="555" y="367" type="curve"/>
      <point x="562" y="404" type="line"/>
      <point x="337" y="445"/>
      <point x="195" y="599"/>
      <point x="195" y="806" type="curve" smooth="yes"/>
      <point x="195" y="831" type="line" smooth="yes"/>
      <point x="195" y="1145"/>
      <point x="437" y="1318"/>
      <point x="860" y="1318" type="curve" smooth="yes"/>
      <point x="1005" y="1318"/>
      <point x="1098" y="1302"/>
      <point x="1146" y="1285" type="curve"/>
      <point x="1135" y="1307" type="line"/>
      <point x="1111" y="1252"/>
      <point x="1099" y="1191"/>
      <point x="1099" y="1139" type="curve" smooth="yes"/>
      <point x="1099" y="1121" type="line" smooth="yes"/>
      <point x="1099" y="919"/>
      <point x="1247" y="803"/>
      <point x="1512" y="803" type="curve" smooth="yes"/>
      <point x="1771" y="803"/>
      <point x="1911" y="929"/>
      <point x="1920" y="1075" type="curve"/>
      <point x="1935" y="1082" type="line"/>
      <point x="1912" y="1104" type="line"/>
      <point x="1893" y="947"/>
      <point x="1749" y="836"/>
      <point x="1514" y="836" type="curve" smooth="yes"/>
      <point x="1271" y="836"/>
      <point x="1135" y="943"/>
      <point x="1135" y="1121" type="curve" smooth="yes"/>
      <point x="1135" y="1139" type="line" smooth="yes"/>
      <point x="1135" y="1196"/>
      <point x="1148" y="1250"/>
      <point x="1173" y="1314" type="curve"/>
      <point x="1086" y="1339"/>
      <point x="979" y="1353"/>
      <point x="862" y="1353" type="curve" smooth="yes"/>
      <point x="410" y="1353"/>
      <point x="155" y="1169"/>
      <point x="155" y="831" type="curve" smooth="yes"/>
      <point x="155" y="806" type="line" smooth="yes"/>
      <point x="155" y="577"/>
      <point x="312" y="415"/>
    </contour>
    <contour>
      <point x="1011" y="-18" type="curve" smooth="yes"/>
      <point x="1314" y="-18"/>
      <point x="1481" y="102"/>
      <point x="1481" y="335" type="curve" smooth="yes"/>
      <point x="1481" y="356" type="line" smooth="yes"/>
      <point x="1481" y="589"/>
      <point x="1314" y="708"/>
      <point x="1011" y="708" type="curve" smooth="yes"/>
      <point x="709" y="708"/>
      <point x="550" y="590"/>
      <point x="539" y="367" type="curve"/>
      <point x="539" y="358" type="line"/>
      <point x="539" y="356"/>
      <point x="539" y="353"/>
      <point x="539" y="351" type="curve"/>
      <point x="539" y="338" type="line" smooth="yes"/>
      <point x="539" y="102"/>
      <point x="708" y="-18"/>
    </contour>
    <contour>
      <point x="1011" y="15" type="curve" smooth="yes"/>
      <point x="733" y="15"/>
      <point x="578" y="126"/>
      <point x="578" y="335" type="curve" smooth="yes"/>
      <point x="578" y="356" type="line" smooth="yes"/>
      <point x="578" y="568"/>
      <point x="735" y="675"/>
      <point x="1011" y="675" type="curve" smooth="yes"/>
      <point x="1289" y="675"/>
      <point x="1444" y="566"/>
      <point x="1444" y="356" type="curve" smooth="yes"/>
      <point x="1444" y="335" type="line" smooth="yes"/>
      <point x="1444" y="126"/>
      <point x="1289" y="15"/>
    </contour>
    <contour>
      <point x="1904" y="0" type="line"/>
      <point x="1941" y="0" type="line"/>
      <point x="1941" y="1314" type="line"/>
      <point x="1906" y="1314" type="line"/>
      <point x="1906" y="1043" type="line"/>
      <point x="1908" y="1027" type="line"/>
      <point x="1904" y="698" type="line"/>
    </contour>
  </outline>
</glyph>
<glyph name="Gha.or" format="2">
  <advance width="2154"/>
  <unicode hex="0B18"/>
  <anchor x="1902" y="4" name="bottom"/>
  <anchor x="1150" y="0" name="nukta"/>
  <anchor x="2199" y="4" name="rasmall"/>
  <anchor x="1027" y="1780" name="top1"/>
  <anchor x="1865" y="1453" name="top2"/>
  <outline>
    <contour>
      <point x="452" y="438" type="curve"/>
      <point x="459" y="475" type="line"/>
      <point x="290" y="511"/>
      <point x="194" y="646"/>
      <point x="194" y="819" type="curve" smooth="yes"/>
      <point x="194" y="844" type="line" smooth="yes"/>
      <point x="194" y="1149"/>
      <point x="473" y="1318"/>
      <point x="1005" y="1318" type="curve" smooth="yes"/>
      <point x="1537" y="1318"/>
      <point x="1860" y="1124"/>
      <point x="1865" y="771" type="curve"/>
      <point x="1886" y="792" type="line"/>
      <point x="1881" y="1146"/>
      <point x="1558" y="1353"/>
      <point x="1007" y="1353" type="curve" smooth="yes"/>
      <point x="445" y="1353"/>
      <point x="155" y="1173"/>
      <point x="155" y="844" type="curve" smooth="yes"/>
      <point x="155" y="819" type="line" smooth="yes"/>
      <point x="155" y="623"/>
      <point x="265" y="479"/>
    </contour>
    <contour>
      <point x="822" y="-18" type="curve" smooth="yes"/>
      <point x="1052" y="-18"/>
      <point x="1171" y="105"/>
      <point x="1185" y="279" type="curve"/>
      <point x="1180" y="279" type="line"/>
      <point x="1191" y="105"/>
      <point x="1301" y="-18"/>
      <point x="1516" y="-18" type="curve" smooth="yes"/>
      <point x="1724" y="-18"/>
      <point x="1838" y="101"/>
      <point x="1872" y="244" type="curve"/>
      <point x="1890" y="240" type="line"/>
      <point x="1867" y="292" type="line"/>
      <point x="1828" y="129"/>
      <point x="1715" y="17"/>
      <point x="1520" y="17" type="curve" smooth="yes"/>
      <point x="1322" y="17"/>
      <point x="1203" y="136"/>
      <point x="1201" y="328" type="curve" smooth="yes"/>
      <point x="1199" y="539" type="line"/>
      <point x="1166" y="539" type="line"/>
      <point x="1164" y="328" type="line" smooth="yes"/>
      <point x="1162" y="136"/>
      <point x="1029" y="17"/>
      <point x="822" y="17" type="curve" smooth="yes"/>
      <point x="598" y="17"/>
      <point x="473" y="124"/>
      <point x="473" y="348" type="curve" smooth="yes"/>
      <point x="473" y="367" type="line" smooth="yes"/>
      <point x="473" y="530"/>
      <point x="555" y="653"/>
      <point x="730" y="708" type="curve"/>
      <point x="730" y="744" type="line"/>
      <point x="528" y="680"/>
      <point x="439" y="549"/>
      <point x="436" y="367" type="curve"/>
      <point x="436" y="362" type="line"/>
      <point x="436" y="360"/>
      <point x="436" y="357"/>
      <point x="436" y="355" type="curve"/>
      <point x="436" y="342" type="line" smooth="yes"/>
      <point x="436" y="100"/>
      <point x="578" y="-18"/>
    </contour>
    <contour>
      <point x="1865" y="0" type="line"/>
      <point x="1902" y="0" type="line"/>
      <point x="1902" y="1314" type="line"/>
      <point x="1865" y="1314" type="line"/>
      <point x="1869" y="894" type="line"/>
      <point x="1865" y="865" type="line"/>
      <point x="1865" y="648" type="line"/>
      <point x="1865" y="251" type="line"/>
      <point x="1869" y="239" type="line"/>
    </contour>
  </outline>
</glyph>
<glyph name="Nga.or" format="2">
  <advance width="2391"/>
  <unicode hex="0B19"/>
  <anchor x="1108" y="4" name="bottom"/>
  <anchor x="1080" y="0" name="nukta"/>
  <anchor x="1000" y="1780" name="top1"/>
  <anchor x="1702" y="1453" name="top2"/>
  <outline>
    <contour>
      <point x="532" y="365" type="curve"/>
      <point x="539" y="402" type="line"/>
      <point x="325" y="445"/>
      <point x="194" y="589"/>
      <point x="194" y="798" type="curve" smooth="yes"/>
      <point x="194" y="823" type="line" smooth="yes"/>
      <point x="194" y="1139"/>
      <point x="477" y="1318"/>
      <point x="986" y="1318" type="curve" smooth="yes"/>
      <point x="1344" y="1318"/>
      <point x="1573" y="1225"/>
      <point x="1734" y="1111" type="curve"/>
      <point x="1750" y="1141" type="line"/>
      <point x="1593" y="1251"/>
      <point x="1355" y="1353"/>
      <point x="988" y="1353" type="curve" smooth="yes"/>
      <point x="447" y="1353"/>
      <point x="155" y="1163"/>
      <point x="155" y="823" type="curve" smooth="yes"/>
      <point x="155" y="798" type="line" smooth="yes"/>
      <point x="155" y="566"/>
      <point x="302" y="415"/>
    </contour>
    <contour>
      <point x="1029" y="-18" type="curve" smooth="yes"/>
      <point x="1335" y="-18"/>
      <point x="1513" y="119"/>
      <point x="1513" y="326" type="curve" smooth="yes"/>
      <point x="1513" y="340" type="line" smooth="yes"/>
      <point x="1513" y="463"/>
      <point x="1451" y="541"/>
      <point x="1344" y="595" type="curve"/>
      <point x="1344" y="602" type="line"/>
      <point x="1314" y="577" type="line"/>
      <point x="1414" y="532"/>
      <point x="1476" y="454"/>
      <point x="1476" y="340" type="curve" smooth="yes"/>
      <point x="1476" y="326" type="line" smooth="yes"/>
      <point x="1476" y="146"/>
      <point x="1310" y="17"/>
      <point x="1029" y="17" type="curve" smooth="yes"/>
      <point x="710" y="17"/>
      <point x="552" y="153"/>
      <point x="552" y="368" type="curve" smooth="yes"/>
      <point x="552" y="390" type="line" smooth="yes"/>
      <point x="552" y="550"/>
      <point x="639" y="675"/>
      <point x="826" y="730" type="curve"/>
      <point x="826" y="765" type="line"/>
      <point x="611" y="701"/>
      <point x="516" y="571"/>
      <point x="513" y="390" type="curve"/>
      <point x="513" y="384" type="line"/>
      <point x="513" y="383"/>
      <point x="513" y="379"/>
      <point x="513" y="377" type="curve"/>
      <point x="513" y="372" type="line" smooth="yes"/>
      <point x="513" y="126"/>
      <point x="682" y="-18"/>
    </contour>
    <contour>
      <point x="1046" y="411" type="line"/>
      <point x="1336" y="575" type="line"/>
      <point x="1352" y="584" type="line"/>
      <point x="1619" y="733" type="line"/>
      <point x="1619" y="772" type="line"/>
      <point x="1046" y="450" type="line"/>
    </contour>
    <contour>
      <point x="2006" y="700" type="curve" smooth="yes"/>
      <point x="2204" y="700"/>
      <point x="2321" y="792"/>
      <point x="2321" y="975" type="curve" smooth="yes"/>
      <point x="2321" y="985" type="line" smooth="yes"/>
      <point x="2321" y="1167"/>
      <point x="2204" y="1258"/>
      <point x="2006" y="1258" type="curve" smooth="yes"/>
      <point x="1878" y="1258"/>
      <point x="1784" y="1217"/>
      <point x="1734" y="1140" type="curve"/>
      <point x="1726" y="1127" type="line"/>
      <point x="1703" y="1088"/>
      <point x="1691" y="1040"/>
      <point x="1691" y="985" type="curve" smooth="yes"/>
      <point x="1691" y="975" type="line" smooth="yes"/>
      <point x="1691" y="792"/>
      <point x="1809" y="700"/>
    </contour>
    <contour>
      <point x="2006" y="733" type="curve" smooth="yes"/>
      <point x="1830" y="733"/>
      <point x="1727" y="814"/>
      <point x="1727" y="975" type="curve" smooth="yes"/>
      <point x="1727" y="985" type="line" smooth="yes"/>
      <point x="1727" y="1144"/>
      <point x="1832" y="1225"/>
      <point x="2006" y="1225" type="curve" smooth="yes"/>
      <point x="2181" y="1225"/>
      <point x="2284" y="1146"/>
      <point x="2284" y="985" type="curve" smooth="yes"/>
      <point x="2284" y="975" type="line" smooth="yes"/>
      <point x="2284" y="814"/>
      <point x="2181" y="733"/>
    </contour>
  </outline>
</glyph>
<glyph name="Ca.or" format="2">
  <advance width="2073"/>
  <unicode hex="0B1A"/>
  <anchor x="1115" y="4" name="bottom"/>
  <anchor x="1054" y="0" name="nukta"/>
  <anchor x="1024" y="1780" name="top1"/>
  <anchor x="1613" y="1453" name="top2"/>
  <outline>
    <contour>
      <point x="581" y="352" type="curve"/>
      <point x="588" y="390" type="line"/>
      <point x="335" y="432"/>
      <point x="194" y="569"/>
      <point x="194" y="801" type="curve" smooth="yes"/>
      <point x="194" y="826" type="line" smooth="yes"/>
      <point x="194" y="1147"/>
      <point x="482" y="1318"/>
      <point x="1024" y="1318" type="curve" smooth="yes"/>
      <point x="1587" y="1318"/>
      <point x="1879" y="1127"/>
      <point x="1879" y="780" type="curve" smooth="yes"/>
      <point x="1879" y="762" type="line" smooth="yes"/>
      <point x="1879" y="652"/>
      <point x="1845" y="535"/>
      <point x="1773" y="430" type="curve"/>
      <point x="1820" y="437" type="line"/>
      <point x="1886" y="536"/>
      <point x="1918" y="647"/>
      <point x="1918" y="762" type="curve" smooth="yes"/>
      <point x="1918" y="780" type="line" smooth="yes"/>
      <point x="1918" y="1149"/>
      <point x="1612" y="1353"/>
      <point x="1026" y="1353" type="curve" smooth="yes"/>
      <point x="454" y="1353"/>
      <point x="155" y="1170"/>
      <point x="155" y="826" type="curve" smooth="yes"/>
      <point x="155" y="801" type="line" smooth="yes"/>
      <point x="155" y="545"/>
      <point x="310" y="401"/>
    </contour>
    <contour>
      <point x="1036" y="-18" type="curve" smooth="yes"/>
      <point x="1342" y="-18"/>
      <point x="1506" y="105"/>
      <point x="1506" y="342" type="curve" smooth="yes"/>
      <point x="1506" y="363" type="line" smooth="yes"/>
      <point x="1506" y="600"/>
      <point x="1342" y="723"/>
      <point x="1036" y="723" type="curve" smooth="yes"/>
      <point x="730" y="723"/>
      <point x="576" y="600"/>
      <point x="565" y="374" type="curve"/>
      <point x="565" y="365" type="line"/>
      <point x="565" y="363"/>
      <point x="565" y="360"/>
      <point x="565" y="358" type="curve"/>
      <point x="565" y="345" type="line" smooth="yes"/>
      <point x="565" y="105"/>
      <point x="730" y="-18"/>
    </contour>
    <contour>
      <point x="1036" y="15" type="curve" smooth="yes"/>
      <point x="755" y="15"/>
      <point x="604" y="130"/>
      <point x="604" y="342" type="curve" smooth="yes"/>
      <point x="604" y="363" type="line" smooth="yes"/>
      <point x="604" y="579"/>
      <point x="757" y="690"/>
      <point x="1036" y="690" type="curve" smooth="yes"/>
      <point x="1317" y="690"/>
      <point x="1469" y="578"/>
      <point x="1469" y="363" type="curve" smooth="yes"/>
      <point x="1469" y="342" type="line" smooth="yes"/>
      <point x="1469" y="130"/>
      <point x="1317" y="15"/>
    </contour>
  </outline>
</glyph>
<glyph name="Cha.or" format="2">
  <advance width="2073"/>
  <unicode hex="0B1B"/>
  <anchor x="1192" y="-311" name="bottom"/>
  <anchor x="1035" y="-230" name="nukta"/>
  <anchor x="1024" y="1780" name="top1"/>
  <anchor x="1613" y="1453" name="top2"/>
  <outline>
    <contour>
      <point x="581" y="352" type="curve"/>
      <point x="588" y="390" type="line"/>
      <point x="335" y="432"/>
      <point x="194" y="569"/>
      <point x="194" y="801" type="curve" smooth="yes"/>
      <point x="194" y="826" type="line" smooth="yes"/>
      <point x="194" y="1146"/>
      <point x="482" y="1318"/>
      <point x="1024" y="1318" type="curve" smooth="yes"/>
      <point x="1587" y="1318"/>
      <point x="1879" y="1127"/>
      <point x="1879" y="780" type="curve" smooth="yes"/>
      <point x="1879" y="762" type="line" smooth="yes"/>
      <point x="1879" y="652"/>
      <point x="1845" y="535"/>
      <point x="1773" y="430" type="curve"/>
      <point x="1820" y="437" type="line"/>
      <point x="1886" y="536"/>
      <point x="1918" y="647"/>
      <point x="1918" y="762" type="curve" smooth="yes"/>
      <point x="1918" y="780" type="line" smooth="yes"/>
      <point x="1918" y="1149"/>
      <point x="1612" y="1353"/>
      <point x="1026" y="1353" type="curve" smooth="yes"/>
      <point x="454" y="1353"/>
      <point x="155" y="1170"/>
      <point x="155" y="826" type="curve" smooth="yes"/>
      <point x="155" y="801" type="line" smooth="yes"/>
      <point x="155" y="546"/>
      <point x="310" y="401"/>
    </contour>
    <contour>
      <point x="643" y="-399" type="curve" smooth="yes"/>
      <point x="820" y="-399"/>
      <point x="930" y="-319"/>
      <point x="1038" y="-191" type="curve"/>
      <point x="1052" y="-175" type="line"/>
      <point x="1150" y="-45"/>
      <point x="1254" y="62"/>
      <point x="1419" y="62" type="curve" smooth="yes"/>
      <point x="1591" y="62"/>
      <point x="1683" y="-11"/>
      <point x="1683" y="-151" type="curve" smooth="yes"/>
      <point x="1683" y="-158" type="line" smooth="yes"/>
      <point x="1683" y="-294"/>
      <point x="1593" y="-366"/>
      <point x="1425" y="-366" type="curve" smooth="yes"/>
      <point x="1264" y="-366"/>
      <point x="1158" y="-296"/>
      <point x="1051" y="-163" type="curve"/>
      <point x="1038" y="-148" type="line"/>
      <point x="910" y="3"/>
      <point x="803" y="95"/>
      <point x="647" y="95" type="curve" smooth="yes"/>
      <point x="458" y="95"/>
      <point x="348" y="8"/>
      <point x="348" y="-151" type="curve" smooth="yes"/>
      <point x="348" y="-158" type="line" smooth="yes"/>
      <point x="348" y="-315"/>
      <point x="452" y="-399"/>
    </contour>
    <contour>
      <point x="1425" y="-399" type="curve" smooth="yes"/>
      <point x="1616" y="-399"/>
      <point x="1720" y="-315"/>
      <point x="1720" y="-158" type="curve" smooth="yes"/>
      <point x="1720" y="-151" type="line" smooth="yes"/>
      <point x="1720" y="10"/>
      <point x="1612" y="95"/>
      <point x="1421" y="95" type="curve" smooth="yes"/>
      <point x="1265" y="95"/>
      <point x="1147" y="3"/>
      <point x="1030" y="-148" type="curve"/>
      <point x="1016" y="-164" type="line"/>
      <point x="910" y="-296"/>
      <point x="804" y="-366"/>
      <point x="643" y="-366" type="curve" smooth="yes"/>
      <point x="475" y="-366"/>
      <point x="385" y="-294"/>
      <point x="385" y="-158" type="curve" smooth="yes"/>
      <point x="385" y="-151" type="line" smooth="yes"/>
      <point x="385" y="-13"/>
      <point x="479" y="62"/>
      <point x="649" y="62" type="curve" smooth="yes"/>
      <point x="814" y="62"/>
      <point x="908" y="-45"/>
      <point x="1016" y="-175" type="curve"/>
      <point x="1029" y="-191" type="line"/>
      <point x="1137" y="-320"/>
      <point x="1249" y="-399"/>
    </contour>
    <contour>
      <point x="1036" y="-1" type="curve"/>
      <point x="1326" y="-1"/>
      <point x="1506" y="128"/>
      <point x="1506" y="359" type="curve" smooth="yes"/>
      <point x="1506" y="380" type="line" smooth="yes"/>
      <point x="1506" y="618"/>
      <point x="1342" y="740"/>
      <point x="1036" y="740" type="curve" smooth="yes"/>
      <point x="730" y="740"/>
      <point x="576" y="617"/>
      <point x="565" y="391" type="curve"/>
      <point x="565" y="382" type="line"/>
      <point x="565" y="380"/>
      <point x="565" y="377"/>
      <point x="565" y="375" type="curve"/>
      <point x="565" y="362" type="line" smooth="yes"/>
      <point x="565" y="122"/>
      <point x="743" y="-1"/>
    </contour>
    <contour>
      <point x="1036" y="32" type="curve" smooth="yes"/>
      <point x="755" y="32"/>
      <point x="604" y="147"/>
      <point x="604" y="359" type="curve" smooth="yes"/>
      <point x="604" y="380" type="line" smooth="yes"/>
      <point x="604" y="596"/>
      <point x="757" y="707"/>
      <point x="1036" y="707" type="curve" smooth="yes"/>
      <point x="1317" y="707"/>
      <point x="1469" y="595"/>
      <point x="1469" y="380" type="curve" smooth="yes"/>
      <point x="1469" y="359" type="line" smooth="yes"/>
      <point x="1469" y="147"/>
      <point x="1317" y="32"/>
    </contour>
  </outline>
</glyph>
<glyph name="Ja.or" format="2">
  <advance width="2165"/>
  <unicode hex="0B1C"/>
  <anchor x="1658" y="4" name="bottom"/>
  <anchor x="1066" y="0" name="nukta"/>
  <anchor x="1066" y="1776" name="top1"/>
  <anchor x="1688" y="1449" name="top2"/>
  <outline>
    <contour>
      <point x="427" y="397" type="curve"/>
      <point x="436" y="433" type="line"/>
      <point x="281" y="486"/>
      <point x="194" y="602"/>
      <point x="194" y="786" type="curve" smooth="yes"/>
      <point x="194" y="807" type="line" smooth="yes"/>
      <point x="194" y="1147"/>
      <point x="496" y="1318"/>
      <point x="1066" y="1318" type="curve" smooth="yes"/>
      <point x="1658" y="1318"/>
      <point x="1971" y="1129"/>
      <point x="1971" y="740" type="curve" smooth="yes"/>
      <point x="1971" y="727" type="line" smooth="yes"/>
      <point x="1971" y="634"/>
      <point x="1946" y="530"/>
      <point x="1889" y="430" type="curve"/>
      <point x="1935" y="437" type="line"/>
      <point x="1984" y="525"/>
      <point x="2010" y="630"/>
      <point x="2010" y="727" type="curve" smooth="yes"/>
      <point x="2010" y="740" type="line" smooth="yes"/>
      <point x="2010" y="1149"/>
      <point x="1683" y="1353"/>
      <point x="1068" y="1353" type="curve" smooth="yes"/>
      <point x="465" y="1353"/>
      <point x="155" y="1170"/>
      <point x="155" y="807" type="curve" smooth="yes"/>
      <point x="155" y="786" type="line" smooth="yes"/>
      <point x="155" y="580"/>
      <point x="254" y="457"/>
    </contour>
    <contour>
      <point x="832" y="-18" type="curve" smooth="yes"/>
      <point x="1081" y="-18"/>
      <point x="1218" y="102"/>
      <point x="1218" y="280" type="curve" smooth="yes"/>
      <point x="1218" y="296" type="line" smooth="yes"/>
      <point x="1218" y="439"/>
      <point x="1132" y="527"/>
      <point x="984" y="539" type="curve"/>
      <point x="984" y="534" type="line"/>
      <point x="1636" y="684" type="line"/>
      <point x="1621" y="698" type="line"/>
      <point x="1621" y="581"/>
      <point x="1621" y="461"/>
      <point x="1621" y="344" type="curve"/>
      <point x="1621" y="0" type="line"/>
      <point x="1658" y="0" type="line"/>
      <point x="1658" y="692" type="line"/>
      <point x="1624" y="716" type="line"/>
      <point x="953" y="557" type="line"/>
      <point x="953" y="520" type="line"/>
      <point x="1117" y="499"/>
      <point x="1181" y="421"/>
      <point x="1181" y="294" type="curve" smooth="yes"/>
      <point x="1181" y="280" type="line" smooth="yes"/>
      <point x="1181" y="124"/>
      <point x="1059" y="17"/>
      <point x="832" y="17" type="curve" smooth="yes"/>
      <point x="570" y="17"/>
      <point x="442" y="149"/>
      <point x="442" y="358" type="curve" smooth="yes"/>
      <point x="442" y="379" type="line" smooth="yes"/>
      <point x="442" y="536"/>
      <point x="524" y="669"/>
      <point x="706" y="717" type="curve"/>
      <point x="706" y="753" type="line"/>
      <point x="489" y="696"/>
      <point x="404" y="542"/>
      <point x="404" y="379" type="curve"/>
      <point x="404" y="374" type="line"/>
      <point x="404" y="372"/>
      <point x="404" y="371"/>
      <point x="404" y="367" type="curve"/>
      <point x="404" y="362" type="line" smooth="yes"/>
      <point x="404" y="123"/>
      <point x="544" y="-18"/>
    </contour>
  </outline>
</glyph>
<glyph name="Jha.or" format="2">
  <advance width="2054"/>
  <unicode hex="0B1D"/>
  <anchor x="1079" y="4" name="bottom"/>
  <anchor x="1038" y="0" name="nukta"/>
  <anchor x="1038" y="1780" name="top1"/>
  <anchor x="1562" y="1453" name="top2"/>
  <outline>
    <contour>
      <point x="546" y="370" type="curve"/>
      <point x="553" y="408" type="line"/>
      <point x="332" y="449"/>
      <point x="194" y="603"/>
      <point x="194" y="808" type="curve" smooth="yes"/>
      <point x="194" y="833" type="line" smooth="yes"/>
      <point x="194" y="1145"/>
      <point x="436" y="1318"/>
      <point x="860" y="1318" type="curve" smooth="yes"/>
      <point x="1006" y="1318"/>
      <point x="1098" y="1302"/>
      <point x="1146" y="1285" type="curve"/>
      <point x="1135" y="1307" type="line"/>
      <point x="1112" y="1252"/>
      <point x="1100" y="1189"/>
      <point x="1100" y="1137" type="curve" smooth="yes"/>
      <point x="1100" y="1120" type="line" smooth="yes"/>
      <point x="1100" y="917"/>
      <point x="1251" y="803"/>
      <point x="1516" y="803" type="curve" smooth="yes"/>
      <point x="1777" y="803"/>
      <point x="1930" y="915"/>
      <point x="1930" y="1123" type="curve" smooth="yes"/>
      <point x="1930" y="1145" type="line" smooth="yes"/>
      <point x="1930" y="1190"/>
      <point x="1918" y="1259"/>
      <point x="1899" y="1314" type="curve"/>
      <point x="1863" y="1314" type="line"/>
      <point x="1884" y="1250"/>
      <point x="1895" y="1191"/>
      <point x="1895" y="1145" type="curve" smooth="yes"/>
      <point x="1895" y="1125" type="line" smooth="yes"/>
      <point x="1895" y="934"/>
      <point x="1755" y="836"/>
      <point x="1515" y="836" type="curve" smooth="yes"/>
      <point x="1275" y="836"/>
      <point x="1135" y="941"/>
      <point x="1135" y="1120" type="curve" smooth="yes"/>
      <point x="1135" y="1137" type="line" smooth="yes"/>
      <point x="1135" y="1194"/>
      <point x="1148" y="1250"/>
      <point x="1173" y="1314" type="curve"/>
      <point x="1086" y="1339"/>
      <point x="978" y="1353"/>
      <point x="861" y="1353" type="curve" smooth="yes"/>
      <point x="409" y="1353"/>
      <point x="155" y="1169"/>
      <point x="155" y="833" type="curve" smooth="yes"/>
      <point x="155" y="808" type="line" smooth="yes"/>
      <point x="155" y="580"/>
      <point x="307" y="418"/>
    </contour>
    <contour>
      <point x="1894" y="-96" type="line"/>
      <point x="1894" y="-55" type="line"/>
      <point x="1388" y="133" type="line"/>
      <point x="1370" y="103" type="line"/>
    </contour>
    <contour>
      <point x="1000" y="-18" type="curve" smooth="yes"/>
      <point x="1189" y="-18"/>
      <point x="1309" y="27"/>
      <point x="1386" y="107" type="curve"/>
      <point x="1397" y="119" type="line"/>
      <point x="1446" y="176"/>
      <point x="1470" y="251"/>
      <point x="1470" y="335" type="curve" smooth="yes"/>
      <point x="1470" y="356" type="line" smooth="yes"/>
      <point x="1470" y="589"/>
      <point x="1303" y="708"/>
      <point x="1000" y="708" type="curve" smooth="yes"/>
      <point x="697" y="708"/>
      <point x="539" y="589"/>
      <point x="528" y="365" type="curve"/>
      <point x="528" y="356" type="line"/>
      <point x="528" y="354"/>
      <point x="528" y="351"/>
      <point x="528" y="349" type="curve"/>
      <point x="528" y="338" type="line" smooth="yes"/>
      <point x="528" y="101"/>
      <point x="697" y="-18"/>
    </contour>
    <contour>
      <point x="1000" y="15" type="curve" smooth="yes"/>
      <point x="722" y="15"/>
      <point x="568" y="126"/>
      <point x="568" y="335" type="curve" smooth="yes"/>
      <point x="568" y="356" type="line" smooth="yes"/>
      <point x="568" y="568"/>
      <point x="724" y="675"/>
      <point x="1000" y="675" type="curve" smooth="yes"/>
      <point x="1278" y="675"/>
      <point x="1433" y="568"/>
      <point x="1433" y="356" type="curve" smooth="yes"/>
      <point x="1433" y="336" type="line" smooth="yes"/>
      <point x="1433" y="125"/>
      <point x="1278" y="15"/>
    </contour>
  </outline>
</glyph>
<glyph name="Nya.or" format="2">
  <advance width="2080"/>
  <unicode hex="0B1E"/>
  <anchor x="1206" y="4" name="bottom"/>
  <anchor x="1072" y="0" name="nukta"/>
  <anchor x="1052" y="1780" name="top1"/>
  <anchor x="1762" y="1453" name="top2"/>
  <outline>
    <contour>
      <point x="727" y="202" type="curve"/>
      <point x="768" y="196" type="line"/>
      <point x="735" y="259"/>
      <point x="715" y="316"/>
      <point x="715" y="380" type="curve" smooth="yes"/>
      <point x="715" y="398" type="line" smooth="yes"/>
      <point x="715" y="547"/>
      <point x="809" y="643"/>
      <point x="990" y="643" type="curve" smooth="yes"/>
      <point x="1173" y="643"/>
      <point x="1270" y="545"/>
      <point x="1272" y="366" type="curve" smooth="yes"/>
      <point x="1273" y="257" type="line"/>
      <point x="1304" y="257" type="line"/>
      <point x="1306" y="366" type="line" smooth="yes"/>
      <point x="1309" y="548"/>
      <point x="1401" y="644"/>
      <point x="1592" y="644" type="curve" smooth="yes"/>
      <point x="1774" y="644"/>
      <point x="1868" y="558"/>
      <point x="1868" y="390" type="curve" smooth="yes"/>
      <point x="1868" y="379" type="line" smooth="yes"/>
      <point x="1868" y="142"/>
      <point x="1623" y="14"/>
      <point x="1127" y="14" type="curve" smooth="yes"/>
      <point x="533" y="14"/>
      <point x="219" y="144"/>
      <point x="219" y="468" type="curve" smooth="yes"/>
      <point x="219" y="483" type="line" smooth="yes"/>
      <point x="219" y="598"/>
      <point x="266" y="705"/>
      <point x="366" y="805" type="curve"/>
      <point x="332" y="819" type="line"/>
      <point x="235" y="728"/>
      <point x="180" y="609"/>
      <point x="180" y="483" type="curve" smooth="yes"/>
      <point x="180" y="470" type="line" smooth="yes"/>
      <point x="180" y="117"/>
      <point x="501" y="-21"/>
      <point x="1127" y="-21" type="curve" smooth="yes"/>
      <point x="1648" y="-21"/>
      <point x="1905" y="119"/>
      <point x="1905" y="377" type="curve" smooth="yes"/>
      <point x="1905" y="390" type="line" smooth="yes"/>
      <point x="1905" y="577"/>
      <point x="1795" y="676"/>
      <point x="1598" y="676" type="curve" smooth="yes"/>
      <point x="1384" y="676"/>
      <point x="1278" y="561"/>
      <point x="1279" y="367" type="curve"/>
      <point x="1298" y="367" type="line"/>
      <point x="1299" y="564"/>
      <point x="1196" y="669"/>
      <point x="989" y="669" type="curve" smooth="yes"/>
      <point x="788" y="669"/>
      <point x="678" y="566"/>
      <point x="678" y="400" type="curve" smooth="yes"/>
      <point x="678" y="382" type="line" smooth="yes"/>
      <point x="678" y="315"/>
      <point x="697" y="260"/>
    </contour>
    <contour>
      <point x="727" y="856" type="curve"/>
      <point x="768" y="850" type="line"/>
      <point x="735" y="913"/>
      <point x="715" y="970"/>
      <point x="715" y="1034" type="curve" smooth="yes"/>
      <point x="715" y="1052" type="line" smooth="yes"/>
      <point x="715" y="1201"/>
      <point x="809" y="1297"/>
      <point x="990" y="1297" type="curve" smooth="yes"/>
      <point x="1173" y="1297"/>
      <point x="1270" y="1199"/>
      <point x="1272" y="1020" type="curve" smooth="yes"/>
      <point x="1273" y="911" type="line"/>
      <point x="1304" y="911" type="line"/>
      <point x="1306" y="1020" type="line" smooth="yes"/>
      <point x="1309" y="1201"/>
      <point x="1401" y="1297"/>
      <point x="1592" y="1297" type="curve" smooth="yes"/>
      <point x="1773" y="1297"/>
      <point x="1868" y="1208"/>
      <point x="1868" y="1043" type="curve" smooth="yes"/>
      <point x="1868" y="1030" type="line" smooth="yes"/>
      <point x="1868" y="776"/>
      <point x="1653" y="669"/>
      <point x="1149" y="669" type="curve" smooth="yes"/>
      <point x="519" y="669"/>
      <point x="219" y="801"/>
      <point x="219" y="1077" type="curve" smooth="yes"/>
      <point x="219" y="1091" type="line" smooth="yes"/>
      <point x="219" y="1175"/>
      <point x="244" y="1255"/>
      <point x="291" y="1330" type="curve"/>
      <point x="250" y="1330" type="line"/>
      <point x="205" y="1259"/>
      <point x="180" y="1178"/>
      <point x="180" y="1091" type="curve" smooth="yes"/>
      <point x="180" y="1079" type="line" smooth="yes"/>
      <point x="180" y="954"/>
      <point x="232" y="867"/>
      <point x="326" y="796" type="curve"/>
      <point x="337" y="787" type="line"/>
      <point x="451" y="711"/>
      <point x="660" y="655"/>
      <point x="873" y="645" type="curve"/>
      <point x="1018" y="655" type="line"/>
      <point x="1125" y="636" type="line"/>
      <point x="1269" y="632"/>
      <point x="1411" y="642"/>
      <point x="1515" y="663" type="curve"/>
      <point x="1779" y="706"/>
      <point x="1905" y="826"/>
      <point x="1905" y="1029" type="curve" smooth="yes"/>
      <point x="1905" y="1043" type="line" smooth="yes"/>
      <point x="1905" y="1229"/>
      <point x="1797" y="1330"/>
      <point x="1594" y="1330" type="curve" smooth="yes"/>
      <point x="1383" y="1330"/>
      <point x="1278" y="1222"/>
      <point x="1278" y="1022" type="curve"/>
      <point x="1299" y="1022" type="line"/>
      <point x="1299" y="1222"/>
      <point x="1195" y="1330"/>
      <point x="992" y="1330" type="curve" smooth="yes"/>
      <point x="788" y="1330"/>
      <point x="678" y="1223"/>
      <point x="678" y="1054" type="curve" smooth="yes"/>
      <point x="678" y="1036" type="line" smooth="yes"/>
      <point x="678" y="969"/>
      <point x="697" y="914"/>
    </contour>
  </outline>
</glyph>
<glyph name="Tta.or" format="2">
  <advance width="2094"/>
  <unicode hex="0B1F"/>
  <anchor x="1132" y="4" name="bottom"/>
  <anchor x="1069" y="0" name="nukta"/>
  <anchor x="1019" y="1780" name="top1"/>
  <anchor x="1572" y="1453" name="top2"/>
  <outline>
    <contour>
      <point x="598" y="365" type="curve"/>
      <point x="605" y="402" type="line"/>
      <point x="345" y="443"/>
      <point x="194" y="583"/>
      <point x="194" y="807" type="curve" smooth="yes"/>
      <point x="194" y="830" type="line" smooth="yes"/>
      <point x="194" y="1141"/>
      <point x="467" y="1318"/>
      <point x="1000" y="1318" type="curve" smooth="yes"/>
      <point x="1515" y="1318"/>
      <point x="1842" y="1126"/>
      <point x="1847" y="778" type="curve"/>
      <point x="1868" y="799" type="line"/>
      <point x="1863" y="1148"/>
      <point x="1533" y="1353"/>
      <point x="1002" y="1353" type="curve" smooth="yes"/>
      <point x="439" y="1353"/>
      <point x="155" y="1165"/>
      <point x="155" y="830" type="curve" smooth="yes"/>
      <point x="155" y="807" type="line" smooth="yes"/>
      <point x="155" y="560"/>
      <point x="320" y="413"/>
    </contour>
    <contour>
      <point x="1053" y="-18" type="curve" smooth="yes"/>
      <point x="1359" y="-18"/>
      <point x="1523" y="105"/>
      <point x="1523" y="342" type="curve" smooth="yes"/>
      <point x="1523" y="363" type="line" smooth="yes"/>
      <point x="1523" y="600"/>
      <point x="1359" y="723"/>
      <point x="1053" y="723" type="curve" smooth="yes"/>
      <point x="747" y="723"/>
      <point x="593" y="600"/>
      <point x="582" y="374" type="curve"/>
      <point x="582" y="365" type="line"/>
      <point x="582" y="363"/>
      <point x="582" y="360"/>
      <point x="582" y="358" type="curve"/>
      <point x="582" y="345" type="line" smooth="yes"/>
      <point x="582" y="105"/>
      <point x="747" y="-18"/>
    </contour>
    <contour>
      <point x="1053" y="15" type="curve" smooth="yes"/>
      <point x="772" y="15"/>
      <point x="621" y="130"/>
      <point x="621" y="342" type="curve" smooth="yes"/>
      <point x="621" y="363" type="line" smooth="yes"/>
      <point x="621" y="579"/>
      <point x="774" y="690"/>
      <point x="1053" y="690" type="curve" smooth="yes"/>
      <point x="1334" y="690"/>
      <point x="1486" y="578"/>
      <point x="1486" y="363" type="curve" smooth="yes"/>
      <point x="1486" y="342" type="line" smooth="yes"/>
      <point x="1486" y="130"/>
      <point x="1334" y="15"/>
    </contour>
    <contour>
      <point x="1847" y="676" type="line"/>
      <point x="1884" y="676" type="line"/>
      <point x="1884" y="1314" type="line"/>
      <point x="1847" y="1314" type="line"/>
      <point x="1851" y="899" type="line"/>
      <point x="1842" y="899" type="line"/>
      <point x="1847" y="849" type="line"/>
    </contour>
  </outline>
</glyph>
<glyph name="Ttha.or" format="2">
  <advance width="1940"/>
  <unicode hex="0B20"/>
  <anchor x="1049" y="4" name="bottom"/>
  <anchor x="970" y="0" name="nukta"/>
  <anchor x="970" y="1780" name="top1"/>
  <anchor x="1499" y="1453" name="top2"/>
  <outline>
    <contour>
      <point x="970" y="-18" type="curve" smooth="yes"/>
      <point x="1489" y="-18"/>
      <point x="1772" y="218"/>
      <point x="1772" y="650" type="curve" smooth="yes"/>
      <point x="1772" y="678" type="line" smooth="yes"/>
      <point x="1772" y="1110"/>
      <point x="1489" y="1346"/>
      <point x="970" y="1346" type="curve" smooth="yes"/>
      <point x="451" y="1346"/>
      <point x="168" y="1110"/>
      <point x="168" y="678" type="curve" smooth="yes"/>
      <point x="168" y="650" type="line" smooth="yes"/>
      <point x="168" y="218"/>
      <point x="451" y="-18"/>
    </contour>
    <contour>
      <point x="970" y="17" type="curve" smooth="yes"/>
      <point x="472" y="17"/>
      <point x="207" y="240"/>
      <point x="207" y="650" type="curve" smooth="yes"/>
      <point x="207" y="678" type="line" smooth="yes"/>
      <point x="207" y="1092"/>
      <point x="472" y="1311"/>
      <point x="970" y="1311" type="curve" smooth="yes"/>
      <point x="1468" y="1311"/>
      <point x="1733" y="1092"/>
      <point x="1733" y="678" type="curve" smooth="yes"/>
      <point x="1733" y="650" type="line" smooth="yes"/>
      <point x="1733" y="240"/>
      <point x="1468" y="17"/>
    </contour>
  </outline>
</glyph>
<glyph name="Dda.or" format="2">
  <advance width="2139"/>
  <unicode hex="0B21"/>
  <anchor x="1132" y="4" name="bottom"/>
  <anchor x="1057" y="0" name="nukta"/>
  <anchor x="1057" y="1780" name="top1"/>
  <anchor x="1668" y="1453" name="top2"/>
  <outline>
    <contour>
      <point x="555" y="370" type="curve"/>
      <point x="562" y="406" type="line"/>
      <point x="324" y="447"/>
      <point x="194" y="577"/>
      <point x="194" y="795" type="curve" smooth="yes"/>
      <point x="194" y="820" type="line" smooth="yes"/>
      <point x="194" y="1144"/>
      <point x="494" y="1318"/>
      <point x="1057" y="1318" type="curve" smooth="yes"/>
      <point x="1639" y="1318"/>
      <point x="1945" y="1126"/>
      <point x="1945" y="778" type="curve" smooth="yes"/>
      <point x="1945" y="762" type="line" smooth="yes"/>
      <point x="1945" y="652"/>
      <point x="1911" y="535"/>
      <point x="1839" y="430" type="curve"/>
      <point x="1886" y="437" type="line"/>
      <point x="1952" y="536"/>
      <point x="1984" y="647"/>
      <point x="1984" y="762" type="curve" smooth="yes"/>
      <point x="1984" y="778" type="line" smooth="yes"/>
      <point x="1984" y="1148"/>
      <point x="1665" y="1353"/>
      <point x="1059" y="1353" type="curve" smooth="yes"/>
      <point x="466" y="1353"/>
      <point x="155" y="1168"/>
      <point x="155" y="820" type="curve" smooth="yes"/>
      <point x="155" y="795" type="line" smooth="yes"/>
      <point x="155" y="554"/>
      <point x="298" y="416"/>
    </contour>
    <contour>
      <point x="1053" y="-18" type="curve" smooth="yes"/>
      <point x="1359" y="-18"/>
      <point x="1537" y="119"/>
      <point x="1537" y="326" type="curve" smooth="yes"/>
      <point x="1537" y="340" type="line" smooth="yes"/>
      <point x="1537" y="463"/>
      <point x="1475" y="541"/>
      <point x="1368" y="595" type="curve"/>
      <point x="1368" y="602" type="line"/>
      <point x="1338" y="577" type="line"/>
      <point x="1438" y="532"/>
      <point x="1500" y="454"/>
      <point x="1500" y="340" type="curve" smooth="yes"/>
      <point x="1500" y="326" type="line" smooth="yes"/>
      <point x="1500" y="146"/>
      <point x="1334" y="17"/>
      <point x="1053" y="17" type="curve" smooth="yes"/>
      <point x="734" y="17"/>
      <point x="576" y="153"/>
      <point x="576" y="368" type="curve" smooth="yes"/>
      <point x="576" y="390" type="line" smooth="yes"/>
      <point x="576" y="550"/>
      <point x="663" y="675"/>
      <point x="850" y="730" type="curve"/>
      <point x="850" y="765" type="line"/>
      <point x="635" y="701"/>
      <point x="540" y="571"/>
      <point x="537" y="390" type="curve"/>
      <point x="537" y="384" type="line"/>
      <point x="537" y="383"/>
      <point x="537" y="379"/>
      <point x="537" y="377" type="curve"/>
      <point x="537" y="372" type="line" smooth="yes"/>
      <point x="537" y="126"/>
      <point x="706" y="-18"/>
    </contour>
    <contour>
      <point x="1070" y="411" type="line"/>
      <point x="1360" y="575" type="line"/>
      <point x="1376" y="584" type="line"/>
      <point x="1643" y="733" type="line"/>
      <point x="1643" y="772" type="line"/>
      <point x="1070" y="450" type="line"/>
    </contour>
  </outline>
</glyph>
<glyph name="Ddha.or" format="2">
  <advance width="2139"/>
  <unicode hex="0B22"/>
  <anchor x="1166" y="4" name="bottom"/>
  <anchor x="1057" y="0" name="nukta"/>
  <anchor x="1057" y="1780" name="top1"/>
  <anchor x="1668" y="1453" name="top2"/>
  <outline>
    <contour>
      <point x="548" y="368" type="curve"/>
      <point x="555" y="404" type="line"/>
      <point x="322" y="445"/>
      <point x="194" y="576"/>
      <point x="194" y="795" type="curve" smooth="yes"/>
      <point x="194" y="820" type="line" smooth="yes"/>
      <point x="194" y="1144"/>
      <point x="494" y="1318"/>
      <point x="1057" y="1318" type="curve" smooth="yes"/>
      <point x="1639" y="1318"/>
      <point x="1945" y="1126"/>
      <point x="1945" y="778" type="curve" smooth="yes"/>
      <point x="1945" y="762" type="line" smooth="yes"/>
      <point x="1945" y="652"/>
      <point x="1911" y="535"/>
      <point x="1839" y="430" type="curve"/>
      <point x="1886" y="437" type="line"/>
      <point x="1952" y="536"/>
      <point x="1984" y="647"/>
      <point x="1984" y="762" type="curve" smooth="yes"/>
      <point x="1984" y="778" type="line" smooth="yes"/>
      <point x="1984" y="1148"/>
      <point x="1665" y="1353"/>
      <point x="1059" y="1353" type="curve" smooth="yes"/>
      <point x="466" y="1353"/>
      <point x="155" y="1168"/>
      <point x="155" y="820" type="curve" smooth="yes"/>
      <point x="155" y="795" type="line" smooth="yes"/>
      <point x="155" y="553"/>
      <point x="295" y="414"/>
    </contour>
    <contour>
      <point x="1671" y="-89" type="curve"/>
      <point x="1671" y="-51" type="line"/>
      <point x="1559" y="-27"/>
      <point x="1449" y="-2"/>
      <point x="1337" y="35" type="curve"/>
      <point x="1293" y="20" type="line"/>
      <point x="1418" y="-25"/>
      <point x="1540" y="-59"/>
    </contour>
    <contour>
      <point x="1084" y="-18" type="curve" smooth="yes"/>
      <point x="1165" y="-18"/>
      <point x="1257" y="-7"/>
      <point x="1323" y="14" type="curve"/>
      <point x="1345" y="22" type="line"/>
      <point x="1522" y="83"/>
      <point x="1605" y="215"/>
      <point x="1605" y="371" type="curve" smooth="yes"/>
      <point x="1605" y="388" type="line" smooth="yes"/>
      <point x="1605" y="552"/>
      <point x="1508" y="676"/>
      <point x="1296" y="676" type="curve" smooth="yes"/>
      <point x="1103" y="676"/>
      <point x="989" y="567"/>
      <point x="989" y="379" type="curve" smooth="yes"/>
      <point x="989" y="360" type="line" smooth="yes"/>
      <point x="989" y="185"/>
      <point x="1121" y="70"/>
      <point x="1278" y="28" type="curve"/>
      <point x="1324" y="42" type="line"/>
      <point x="1149" y="90"/>
      <point x="1026" y="201"/>
      <point x="1026" y="360" type="curve" smooth="yes"/>
      <point x="1026" y="379" type="line" smooth="yes"/>
      <point x="1026" y="551"/>
      <point x="1126" y="643"/>
      <point x="1295" y="643" type="curve" smooth="yes"/>
      <point x="1481" y="643"/>
      <point x="1568" y="538"/>
      <point x="1568" y="388" type="curve" smooth="yes"/>
      <point x="1568" y="371" type="line" smooth="yes"/>
      <point x="1568" y="220"/>
      <point x="1483" y="92"/>
      <point x="1298" y="42" type="curve"/>
      <point x="1275" y="36" type="line"/>
      <point x="1221" y="25"/>
      <point x="1155" y="17"/>
      <point x="1087" y="17" type="curve" smooth="yes"/>
      <point x="740" y="17"/>
      <point x="569" y="162"/>
      <point x="569" y="373" type="curve" smooth="yes"/>
      <point x="569" y="394" type="line" smooth="yes"/>
      <point x="569" y="557"/>
      <point x="650" y="682"/>
      <point x="824" y="742" type="curve"/>
      <point x="824" y="777" type="line"/>
      <point x="623" y="713"/>
      <point x="534" y="575"/>
      <point x="530" y="394" type="curve"/>
      <point x="530" y="392" type="line"/>
      <point x="530" y="390"/>
      <point x="530" y="390"/>
      <point x="530" y="388" type="curve"/>
      <point x="530" y="386" type="line"/>
      <point x="530" y="138"/>
      <point x="712" y="-18"/>
    </contour>
  </outline>
</glyph>
<glyph name="Ta.or" format="2">
  <advance width="2139"/>
  <unicode hex="0B24"/>
  <anchor x="1161" y="4" name="bottom"/>
  <anchor x="1057" y="0" name="nukta"/>
  <anchor x="1057" y="1780" name="top1"/>
  <anchor x="1667" y="1453" name="top2"/>
  <outline>
    <contour>
      <point x="564" y="370" type="curve"/>
      <point x="571" y="406" type="line"/>
      <point x="327" y="447"/>
      <point x="194" y="577"/>
      <point x="194" y="795" type="curve" smooth="yes"/>
      <point x="194" y="820" type="line" smooth="yes"/>
      <point x="194" y="1144"/>
      <point x="494" y="1318"/>
      <point x="1057" y="1318" type="curve" smooth="yes"/>
      <point x="1639" y="1318"/>
      <point x="1945" y="1126"/>
      <point x="1945" y="778" type="curve" smooth="yes"/>
      <point x="1945" y="762" type="line" smooth="yes"/>
      <point x="1945" y="652"/>
      <point x="1911" y="535"/>
      <point x="1839" y="430" type="curve"/>
      <point x="1886" y="437" type="line"/>
      <point x="1952" y="536"/>
      <point x="1984" y="647"/>
      <point x="1984" y="762" type="curve" smooth="yes"/>
      <point x="1984" y="778" type="line" smooth="yes"/>
      <point x="1984" y="1148"/>
      <point x="1665" y="1353"/>
      <point x="1059" y="1353" type="curve" smooth="yes"/>
      <point x="466" y="1353"/>
      <point x="155" y="1168"/>
      <point x="155" y="820" type="curve" smooth="yes"/>
      <point x="155" y="795" type="line" smooth="yes"/>
      <point x="155" y="554"/>
      <point x="301" y="416"/>
    </contour>
    <contour>
      <point x="1082" y="-18" type="curve" smooth="yes"/>
      <point x="1390" y="-18"/>
      <point x="1570" y="133"/>
      <point x="1570" y="361" type="curve" smooth="yes"/>
      <point x="1570" y="376" type="line" smooth="yes"/>
      <point x="1570" y="534"/>
      <point x="1470" y="671"/>
      <point x="1314" y="671" type="curve" smooth="yes"/>
      <point x="1255" y="671"/>
      <point x="1224" y="649"/>
      <point x="1224" y="607" type="curve"/>
      <point x="1224" y="605" type="line"/>
      <point x="1224" y="563"/>
      <point x="1255" y="541"/>
      <point x="1312" y="541" type="curve" smooth="yes"/>
      <point x="1365" y="541"/>
      <point x="1390" y="562"/>
      <point x="1390" y="595" type="curve"/>
      <point x="1390" y="595" type="line"/>
      <point x="1390" y="624"/>
      <point x="1366" y="636"/>
      <point x="1333" y="641" type="curve"/>
      <point x="1286" y="632" type="line"/>
      <point x="1301" y="634"/>
      <point x="1310" y="635"/>
      <point x="1328" y="635" type="curve"/>
      <point x="1440" y="635"/>
      <point x="1532" y="510"/>
      <point x="1532" y="376" type="curve" smooth="yes"/>
      <point x="1532" y="361" type="line" smooth="yes"/>
      <point x="1532" y="158"/>
      <point x="1365" y="16"/>
      <point x="1082" y="16" type="curve" smooth="yes"/>
      <point x="751" y="16"/>
      <point x="585" y="153"/>
      <point x="585" y="374" type="curve" smooth="yes"/>
      <point x="585" y="394" type="line" smooth="yes"/>
      <point x="585" y="559"/>
      <point x="672" y="683"/>
      <point x="859" y="739" type="curve"/>
      <point x="859" y="777" type="line"/>
      <point x="649" y="712"/>
      <point x="550" y="580"/>
      <point x="546" y="396" type="curve"/>
      <point x="546" y="390" type="line"/>
      <point x="546" y="378" type="line" smooth="yes"/>
      <point x="546" y="128"/>
      <point x="722" y="-18"/>
    </contour>
  </outline>
</glyph>
<glyph name="Tha.or" format="2">
  <advance width="2042"/>
  <unicode hex="0B25"/>
  <anchor x="1790" y="4" name="bottom"/>
  <anchor x="1036" y="0" name="nukta"/>
  <anchor x="1036" y="1780" name="top1"/>
  <anchor x="1753" y="1453" name="top2"/>
  <outline>
    <contour>
      <point x="875" y="-18" type="curve" smooth="yes"/>
      <point x="1401" y="-18"/>
      <point x="1703" y="155"/>
      <point x="1775" y="415" type="curve"/>
      <point x="1778" y="429" type="line"/>
      <point x="1755" y="408" type="line"/>
      <point x="1653" y="174"/>
      <point x="1385" y="17"/>
      <point x="875" y="17" type="curve" smooth="yes"/>
      <point x="419" y="17"/>
      <point x="191" y="102"/>
      <point x="191" y="313" type="curve" smooth="yes"/>
      <point x="191" y="329" type="line" smooth="yes"/>
      <point x="191" y="502"/>
      <point x="289" y="569"/>
      <point x="622" y="619" type="curve" smooth="yes"/>
      <point x="846" y="653" type="line" smooth="yes"/>
      <point x="1250" y="714"/>
      <point x="1363" y="824"/>
      <point x="1363" y="1033" type="curve" smooth="yes"/>
      <point x="1363" y="1048" type="line" smooth="yes"/>
      <point x="1363" y="1249"/>
      <point x="1222" y="1353"/>
      <point x="944" y="1353" type="curve" smooth="yes"/>
      <point x="669" y="1353"/>
      <point x="523" y="1247"/>
      <point x="523" y="1051" type="curve" smooth="yes"/>
      <point x="523" y="1033" type="line" smooth="yes"/>
      <point x="523" y="968"/>
      <point x="541" y="918"/>
      <point x="571" y="860" type="curve"/>
      <point x="612" y="853" type="line"/>
      <point x="578" y="918"/>
      <point x="560" y="969"/>
      <point x="560" y="1032" type="curve" smooth="yes"/>
      <point x="560" y="1049" type="line" smooth="yes"/>
      <point x="560" y="1228"/>
      <point x="692" y="1320"/>
      <point x="940" y="1320" type="curve" smooth="yes"/>
      <point x="1197" y="1320"/>
      <point x="1326" y="1228"/>
      <point x="1326" y="1048" type="curve" smooth="yes"/>
      <point x="1326" y="1035" type="line" smooth="yes"/>
      <point x="1326" y="840"/>
      <point x="1219" y="745"/>
      <point x="839" y="688" type="curve" smooth="yes"/>
      <point x="614" y="654" type="line" smooth="yes"/>
      <point x="263" y="601"/>
      <point x="152" y="525"/>
      <point x="152" y="329" type="curve" smooth="yes"/>
      <point x="152" y="313" type="line" smooth="yes"/>
      <point x="152" y="80"/>
      <point x="390" y="-18"/>
    </contour>
    <contour>
      <point x="1753" y="0" type="line"/>
      <point x="1790" y="0" type="line"/>
      <point x="1790" y="1314" type="line"/>
      <point x="1753" y="1314" type="line"/>
      <point x="1753" y="392" type="line"/>
      <point x="1755" y="367" type="line"/>
    </contour>
  </outline>
</glyph>
<glyph name="Da.or" format="2">
  <advance width="2082"/>
  <unicode hex="0B26"/>
  <anchor x="1444" y="4" name="bottom"/>
  <anchor x="1037" y="0" name="nukta"/>
  <anchor x="1037" y="1780" name="top1"/>
  <anchor x="1623" y="1453" name="top2"/>
  <outline>
    <contour>
      <point x="557" y="370" type="curve"/>
      <point x="564" y="406" type="line"/>
      <point x="327" y="448"/>
      <point x="194" y="582"/>
      <point x="194" y="806" type="curve" smooth="yes"/>
      <point x="194" y="831" type="line" smooth="yes"/>
      <point x="194" y="1146"/>
      <point x="492" y="1318"/>
      <point x="1035" y="1318" type="curve" smooth="yes"/>
      <point x="1596" y="1318"/>
      <point x="1888" y="1127"/>
      <point x="1888" y="780" type="curve" smooth="yes"/>
      <point x="1888" y="762" type="line" smooth="yes"/>
      <point x="1888" y="652"/>
      <point x="1854" y="535"/>
      <point x="1782" y="430" type="curve"/>
      <point x="1829" y="437" type="line"/>
      <point x="1895" y="536"/>
      <point x="1927" y="647"/>
      <point x="1927" y="762" type="curve" smooth="yes"/>
      <point x="1927" y="780" type="line" smooth="yes"/>
      <point x="1927" y="1150"/>
      <point x="1621" y="1353"/>
      <point x="1036" y="1353" type="curve" smooth="yes"/>
      <point x="463" y="1353"/>
      <point x="155" y="1170"/>
      <point x="155" y="831" type="curve" smooth="yes"/>
      <point x="155" y="806" type="line" smooth="yes"/>
      <point x="155" y="559"/>
      <point x="298" y="418"/>
    </contour>
    <contour>
      <point x="1407" y="0" type="line"/>
      <point x="1444" y="0" type="line"/>
      <point x="1444" y="708" type="line"/>
      <point x="1407" y="708" type="line"/>
      <point x="1407" y="382" type="line"/>
      <point x="1410" y="407" type="line"/>
      <point x="1359" y="240"/>
      <point x="1204" y="126"/>
      <point x="957" y="126" type="curve" smooth="yes"/>
      <point x="705" y="126"/>
      <point x="585" y="229"/>
      <point x="585" y="398" type="curve" smooth="yes"/>
      <point x="585" y="419" type="line" smooth="yes"/>
      <point x="585" y="563"/>
      <point x="664" y="687"/>
      <point x="840" y="726" type="curve"/>
      <point x="840" y="762" type="line"/>
      <point x="632" y="714"/>
      <point x="546" y="578"/>
      <point x="546" y="416" type="curve" smooth="yes"/>
      <point x="546" y="410" type="line"/>
      <point x="546" y="408"/>
      <point x="546" y="405"/>
      <point x="546" y="403" type="curve"/>
      <point x="546" y="398" type="line" smooth="yes"/>
      <point x="546" y="206"/>
      <point x="675" y="91"/>
      <point x="953" y="91" type="curve" smooth="yes"/>
      <point x="1217" y="91"/>
      <point x="1372" y="219"/>
      <point x="1416" y="362" type="curve"/>
      <point x="1410" y="378" type="line"/>
      <point x="1407" y="134" type="line"/>
    </contour>
  </outline>
</glyph>
<glyph name="Dha.or" format="2">
  <advance width="1896"/>
  <unicode hex="0B27"/>
  <anchor x="1644" y="4" name="bottom"/>
  <anchor x="984" y="0" name="nukta"/>
  <anchor x="904" y="1780" name="top1"/>
  <anchor x="1607" y="1453" name="top2"/>
  <outline>
    <contour>
      <point x="863" y="-18" type="curve" smooth="yes"/>
      <point x="1303" y="-18"/>
      <point x="1564" y="155"/>
      <point x="1628" y="415" type="curve"/>
      <point x="1628" y="436" type="line"/>
      <point x="1609" y="408" type="line"/>
      <point x="1520" y="174"/>
      <point x="1287" y="17"/>
      <point x="863" y="17" type="curve" smooth="yes"/>
      <point x="429" y="17"/>
      <point x="208" y="170"/>
      <point x="208" y="431" type="curve" smooth="yes"/>
      <point x="208" y="452" type="line" smooth="yes"/>
      <point x="208" y="703"/>
      <point x="386" y="849"/>
      <point x="786" y="870" type="curve"/>
      <point x="795" y="870"/>
      <point x="806" y="870"/>
      <point x="817" y="870" type="curve"/>
      <point x="774" y="899" type="line"/>
      <point x="765" y="899"/>
      <point x="760" y="899"/>
      <point x="751" y="899" type="curve"/>
      <point x="391" y="878"/>
      <point x="169" y="735"/>
      <point x="169" y="450" type="curve" smooth="yes"/>
      <point x="169" y="433" type="line" smooth="yes"/>
      <point x="169" y="146"/>
      <point x="400" y="-18"/>
    </contour>
    <contour>
      <point x="229" y="1314" type="line"/>
      <point x="168" y="1314" type="line"/>
      <point x="168" y="1314" type="line"/>
      <point x="773" y="892" type="line"/>
      <point x="793" y="878" type="line"/>
      <point x="1177" y="611" type="line"/>
      <point x="1177" y="611" type="line"/>
      <point x="1177" y="650" type="line"/>
    </contour>
    <contour>
      <point x="1607" y="0" type="line"/>
      <point x="1644" y="0" type="line"/>
      <point x="1644" y="1314" type="line"/>
      <point x="1607" y="1314" type="line"/>
      <point x="1607" y="392" type="line"/>
      <point x="1602" y="367" type="line"/>
      <point x="1609" y="367" type="line"/>
    </contour>
  </outline>
</glyph>
<glyph name="Na.or" format="2">
  <advance width="2057"/>
  <unicode hex="0B28"/>
  <anchor x="1350" y="4" name="bottom"/>
  <anchor x="1007" y="0" name="nukta"/>
  <anchor x="1007" y="1780" name="top1"/>
  <anchor x="1597" y="1453" name="top2"/>
  <outline>
    <contour>
      <point x="399" y="0" type="line"/>
      <point x="457" y="0" type="line"/>
      <point x="884" y="351" type="line" smooth="yes"/>
      <point x="1016" y="460"/>
      <point x="1148" y="567"/>
      <point x="1280" y="676" type="curve"/>
      <point x="1313" y="676" type="line"/>
      <point x="1313" y="589"/>
      <point x="1313" y="498"/>
      <point x="1313" y="411" type="curve" smooth="yes"/>
      <point x="1313" y="0" type="line"/>
      <point x="1350" y="0" type="line"/>
      <point x="1350" y="708" type="line"/>
      <point x="1264" y="708" type="line"/>
      <point x="844" y="363" type="line"/>
      <point x="823" y="347" type="line"/>
    </contour>
    <contour>
      <point x="845" y="338" type="curve"/>
      <point x="868" y="372" type="line"/>
      <point x="432" y="392"/>
      <point x="194" y="544"/>
      <point x="194" y="813" type="curve" smooth="yes"/>
      <point x="194" y="837" type="line" smooth="yes"/>
      <point x="194" y="1151"/>
      <point x="477" y="1318"/>
      <point x="1007" y="1318" type="curve" smooth="yes"/>
      <point x="1557" y="1318"/>
      <point x="1863" y="1124"/>
      <point x="1863" y="780" type="curve" smooth="yes"/>
      <point x="1863" y="762" type="line" smooth="yes"/>
      <point x="1863" y="652"/>
      <point x="1829" y="535"/>
      <point x="1757" y="430" type="curve"/>
      <point x="1804" y="437" type="line"/>
      <point x="1870" y="536"/>
      <point x="1902" y="647"/>
      <point x="1902" y="762" type="curve" smooth="yes"/>
      <point x="1902" y="780" type="line" smooth="yes"/>
      <point x="1902" y="1146"/>
      <point x="1582" y="1353"/>
      <point x="1009" y="1353" type="curve" smooth="yes"/>
      <point x="448" y="1353"/>
      <point x="155" y="1175"/>
      <point x="155" y="837" type="curve" smooth="yes"/>
      <point x="155" y="813" type="line" smooth="yes"/>
      <point x="155" y="525"/>
      <point x="398" y="363"/>
    </contour>
  </outline>
</glyph>
<glyph name="Pha.or" format="2">
  <advance width="2453"/>
  <unicode hex="0B2B"/>
  <anchor x="1799" y="4" name="bottom"/>
  <anchor x="1170" y="0" name="nukta"/>
  <anchor x="980" y="1780" name="top1"/>
  <anchor x="1763" y="1453" name="top2"/>
  <anchor x="1799" y="1410" name="top3"/>
  <outline>
    <contour>
      <point x="512" y="484" type="curve"/>
      <point x="530" y="520" type="line"/>
      <point x="311" y="557"/>
      <point x="194" y="679"/>
      <point x="194" y="862" type="curve" smooth="yes"/>
      <point x="194" y="886" type="line" smooth="yes"/>
      <point x="194" y="1175"/>
      <point x="448" y="1318"/>
      <point x="943" y="1318" type="curve" smooth="yes"/>
      <point x="1456" y="1318"/>
      <point x="1759" y="1123"/>
      <point x="1764" y="771" type="curve"/>
      <point x="1790" y="771" type="line"/>
      <point x="1785" y="792" type="line"/>
      <point x="1780" y="1146"/>
      <point x="1474" y="1353"/>
      <point x="945" y="1353" type="curve" smooth="yes"/>
      <point x="420" y="1353"/>
      <point x="155" y="1199"/>
      <point x="155" y="886" type="curve" smooth="yes"/>
      <point x="155" y="862" type="line" smooth="yes"/>
      <point x="155" y="659"/>
      <point x="282" y="530"/>
    </contour>
    <contour>
      <point x="1082" y="-18" type="curve" smooth="yes"/>
      <point x="1497" y="-18"/>
      <point x="1732" y="151"/>
      <point x="1785" y="404" type="curve"/>
      <point x="1783" y="418" type="line"/>
      <point x="1766" y="397" type="line"/>
      <point x="1689" y="170"/>
      <point x="1481" y="17"/>
      <point x="1082" y="17" type="curve" smooth="yes"/>
      <point x="698" y="17"/>
      <point x="512" y="142"/>
      <point x="512" y="347" type="curve" smooth="yes"/>
      <point x="512" y="368" type="line" smooth="yes"/>
      <point x="512" y="569"/>
      <point x="667" y="680"/>
      <point x="989" y="684" type="curve"/>
      <point x="989" y="717" type="line"/>
      <point x="724" y="713"/>
      <point x="573" y="641"/>
      <point x="507" y="516" type="curve"/>
      <point x="498" y="498" type="line"/>
      <point x="482" y="461"/>
      <point x="473" y="415"/>
      <point x="473" y="367" type="curve" smooth="yes"/>
      <point x="473" y="349" type="line" smooth="yes"/>
      <point x="473" y="115"/>
      <point x="669" y="-18"/>
    </contour>
    <contour>
      <point x="1762" y="0" type="line"/>
      <point x="1799" y="0" type="line"/>
      <point x="1799" y="1314" type="line"/>
      <point x="1762" y="1314" type="line"/>
      <point x="1766" y="894" type="line"/>
      <point x="1764" y="865" type="line"/>
      <point x="1764" y="822" type="line"/>
      <point x="1764" y="381" type="line"/>
      <point x="1764" y="356" type="line"/>
    </contour>
    <contour>
      <point x="2084" y="658" type="curve" smooth="yes"/>
      <point x="1906" y="658"/>
      <point x="1800" y="739"/>
      <point x="1800" y="900" type="curve" smooth="yes"/>
      <point x="1800" y="909" type="line" smooth="yes"/>
      <point x="1800" y="1071"/>
      <point x="1906" y="1151"/>
      <point x="2084" y="1151" type="curve" smooth="yes"/>
      <point x="2256" y="1151"/>
      <point x="2357" y="1071"/>
      <point x="2357" y="909" type="curve" smooth="yes"/>
      <point x="2357" y="900" type="line" smooth="yes"/>
      <point x="2357" y="739"/>
      <point x="2256" y="658"/>
    </contour>
    <contour>
      <point x="2084" y="626" type="curve" smooth="yes"/>
      <point x="2277" y="626"/>
      <point x="2393" y="717"/>
      <point x="2393" y="900" type="curve" smooth="yes"/>
      <point x="2393" y="909" type="line" smooth="yes"/>
      <point x="2393" y="1091"/>
      <point x="2277" y="1183"/>
      <point x="2084" y="1183" type="curve" smooth="yes"/>
      <point x="1891" y="1183"/>
      <point x="1775" y="1091"/>
      <point x="1775" y="909" type="curve"/>
      <point x="1775" y="900" type="line"/>
      <point x="1775" y="716"/>
      <point x="1891" y="626"/>
    </contour>
  </outline>
</glyph>
<glyph name="Bha.or" format="2">
  <advance width="2225"/>
  <unicode hex="0B2D"/>
  <guideline y="502"/>
  <anchor x="1127" y="4" name="bottom"/>
  <anchor x="1035" y="0" name="nukta"/>
  <anchor x="1035" y="1780" name="top1"/>
  <anchor x="1695" y="1453" name="top2"/>
  <outline>
    <contour>
      <point x="2311" y="-155" type="line"/>
      <point x="2311" y="-114" type="line"/>
      <point x="1885" y="46" type="line"/>
      <point x="1891" y="28" type="line"/>
      <point x="1973" y="161"/>
      <point x="2038" y="332"/>
      <point x="2038" y="546" type="curve" smooth="yes"/>
      <point x="2038" y="575" type="line" smooth="yes"/>
      <point x="2038" y="1091"/>
      <point x="1690" y="1353"/>
      <point x="1037" y="1353" type="curve" smooth="yes"/>
      <point x="450" y="1353"/>
      <point x="155" y="1167"/>
      <point x="155" y="802" type="curve" smooth="yes"/>
      <point x="155" y="781" type="line" smooth="yes"/>
      <point x="155" y="577"/>
      <point x="276" y="422"/>
      <point x="502" y="381" type="curve"/>
      <point x="509" y="417" type="line"/>
      <point x="303" y="453"/>
      <point x="194" y="601"/>
      <point x="194" y="781" type="curve" smooth="yes"/>
      <point x="194" y="802" type="line" smooth="yes"/>
      <point x="194" y="1143"/>
      <point x="476" y="1318"/>
      <point x="1035" y="1318" type="curve" smooth="yes"/>
      <point x="1665" y="1318"/>
      <point x="1999" y="1071"/>
      <point x="1999" y="575" type="curve" smooth="yes"/>
      <point x="1999" y="546" type="line" smooth="yes"/>
      <point x="1999" y="347"/>
      <point x="1935" y="167"/>
      <point x="1846" y="25" type="curve"/>
    </contour>
    <contour>
      <point x="1028" y="-18" type="curve" smooth="yes"/>
      <point x="1380" y="-18"/>
      <point x="1560" y="150"/>
      <point x="1560" y="413" type="curve" smooth="yes"/>
      <point x="1560" y="438" type="line" smooth="yes"/>
      <point x="1560" y="513"/>
      <point x="1542" y="607"/>
      <point x="1517" y="692" type="curve"/>
      <point x="1483" y="692" type="line"/>
      <point x="1508" y="598"/>
      <point x="1522" y="516"/>
      <point x="1522" y="438" type="curve"/>
      <point x="1524" y="431" type="line"/>
      <point x="1526" y="420" type="line"/>
      <point x="1523" y="162"/>
      <point x="1355" y="16"/>
      <point x="1028" y="16" type="curve" smooth="yes"/>
      <point x="697" y="16"/>
      <point x="523" y="166"/>
      <point x="523" y="399" type="curve" smooth="yes"/>
      <point x="523" y="417" type="line" smooth="yes"/>
      <point x="523" y="552"/>
      <point x="559" y="646"/>
      <point x="616" y="746" type="curve"/>
      <point x="577" y="746" type="line"/>
      <point x="525" y="661"/>
      <point x="484" y="558"/>
      <point x="484" y="417" type="curve"/>
      <point x="484" y="406" type="line"/>
      <point x="484" y="402" type="line"/>
      <point x="484" y="140"/>
      <point x="669" y="-18"/>
    </contour>
    <contour>
      <point x="1236" y="210" type="curve" smooth="yes"/>
      <point x="1420" y="210"/>
      <point x="1516" y="299"/>
      <point x="1529" y="440" type="curve"/>
      <point x="1538" y="440" type="line"/>
      <point x="1519" y="506" type="line"/>
      <point x="1519" y="334"/>
      <point x="1424" y="243"/>
      <point x="1238" y="243" type="curve" smooth="yes"/>
      <point x="1084" y="243"/>
      <point x="979" y="327"/>
      <point x="979" y="484" type="curve" smooth="yes"/>
      <point x="979" y="502" type="line" smooth="yes"/>
      <point x="979" y="570"/>
      <point x="993" y="623"/>
      <point x="1016" y="692" type="curve"/>
      <point x="981" y="692" type="line"/>
      <point x="958" y="631"/>
      <point x="941" y="561"/>
      <point x="941" y="502" type="curve" smooth="yes"/>
      <point x="941" y="484" type="line" smooth="yes"/>
      <point x="941" y="301"/>
      <point x="1056" y="210"/>
    </contour>
  </outline>
</glyph>
<glyph name="Ra.or" format="2">
  <advance width="2102"/>
  <unicode hex="0B30"/>
  <anchor x="1043" y="4" name="bottom"/>
  <anchor x="1060" y="0" name="nukta"/>
  <anchor x="993" y="1780" name="top1"/>
  <anchor x="1601" y="1453" name="top2"/>
  <outline>
    <contour>
      <point x="2143" y="-158" type="line"/>
      <point x="2143" y="-117" type="line"/>
      <point x="1712" y="46" type="line"/>
      <point x="1726" y="32" type="line"/>
      <point x="1829" y="174"/>
      <point x="1915" y="351"/>
      <point x="1915" y="586" type="curve" smooth="yes"/>
      <point x="1915" y="614" type="line" smooth="yes"/>
      <point x="1915" y="1104"/>
      <point x="1582" y="1353"/>
      <point x="995" y="1353" type="curve" smooth="yes"/>
      <point x="447" y="1353"/>
      <point x="155" y="1161"/>
      <point x="155" y="817" type="curve" smooth="yes"/>
      <point x="155" y="792" type="line" smooth="yes"/>
      <point x="155" y="564"/>
      <point x="287" y="414"/>
      <point x="511" y="368" type="curve"/>
      <point x="518" y="406" type="line"/>
      <point x="312" y="445"/>
      <point x="194" y="587"/>
      <point x="194" y="792" type="curve" smooth="yes"/>
      <point x="194" y="817" type="line" smooth="yes"/>
      <point x="194" y="1136"/>
      <point x="475" y="1318"/>
      <point x="993" y="1318" type="curve" smooth="yes"/>
      <point x="1557" y="1318"/>
      <point x="1876" y="1083"/>
      <point x="1876" y="614" type="curve" smooth="yes"/>
      <point x="1876" y="586" type="line" smooth="yes"/>
      <point x="1876" y="362"/>
      <point x="1791" y="176"/>
      <point x="1677" y="25" type="curve"/>
    </contour>
    <contour>
      <point x="964" y="-18" type="curve" smooth="yes"/>
      <point x="1270" y="-18"/>
      <point x="1434" y="105"/>
      <point x="1434" y="342" type="curve" smooth="yes"/>
      <point x="1434" y="363" type="line" smooth="yes"/>
      <point x="1434" y="600"/>
      <point x="1270" y="723"/>
      <point x="964" y="723" type="curve" smooth="yes"/>
      <point x="658" y="723"/>
      <point x="504" y="600"/>
      <point x="493" y="374" type="curve"/>
      <point x="493" y="365" type="line"/>
      <point x="493" y="363"/>
      <point x="493" y="360"/>
      <point x="493" y="358" type="curve"/>
      <point x="493" y="345" type="line" smooth="yes"/>
      <point x="493" y="105"/>
      <point x="658" y="-18"/>
    </contour>
    <contour>
      <point x="964" y="15" type="curve" smooth="yes"/>
      <point x="683" y="15"/>
      <point x="532" y="130"/>
      <point x="532" y="342" type="curve" smooth="yes"/>
      <point x="532" y="363" type="line" smooth="yes"/>
      <point x="532" y="579"/>
      <point x="685" y="690"/>
      <point x="964" y="690" type="curve" smooth="yes"/>
      <point x="1245" y="690"/>
      <point x="1397" y="578"/>
      <point x="1397" y="363" type="curve" smooth="yes"/>
      <point x="1397" y="342" type="line" smooth="yes"/>
      <point x="1397" y="130"/>
      <point x="1245" y="15"/>
    </contour>
  </outline>
</glyph>
<glyph name="Lla.or" format="2">
  <advance width="2159"/>
  <unicode hex="0B33"/>
  <anchor x="1659" y="4" name="bottom"/>
  <anchor x="1060" y="0" name="nukta"/>
  <anchor x="1060" y="1780" name="top1"/>
  <anchor x="1682" y="1453" name="top2"/>
  <outline>
    <contour>
      <point x="465" y="376" type="curve"/>
      <point x="474" y="411" type="line"/>
      <point x="292" y="467"/>
      <point x="194" y="590"/>
      <point x="194" y="781" type="curve" smooth="yes"/>
      <point x="194" y="802" type="line" smooth="yes"/>
      <point x="194" y="1147"/>
      <point x="494" y="1318"/>
      <point x="1060" y="1318" type="curve" smooth="yes"/>
      <point x="1652" y="1318"/>
      <point x="1965" y="1129"/>
      <point x="1965" y="740" type="curve" smooth="yes"/>
      <point x="1965" y="727" type="line" smooth="yes"/>
      <point x="1965" y="634"/>
      <point x="1940" y="530"/>
      <point x="1883" y="430" type="curve"/>
      <point x="1929" y="437" type="line"/>
      <point x="1978" y="525"/>
      <point x="2004" y="630"/>
      <point x="2004" y="727" type="curve" smooth="yes"/>
      <point x="2004" y="740" type="line" smooth="yes"/>
      <point x="2004" y="1149"/>
      <point x="1677" y="1353"/>
      <point x="1062" y="1353" type="curve" smooth="yes"/>
      <point x="463" y="1353"/>
      <point x="155" y="1170"/>
      <point x="155" y="802" type="curve" smooth="yes"/>
      <point x="155" y="781" type="line" smooth="yes"/>
      <point x="155" y="569"/>
      <point x="265" y="439"/>
    </contour>
    <contour>
      <point x="457" y="0" type="line"/>
      <point x="494" y="0" type="line"/>
      <point x="494" y="408" type="line" smooth="yes"/>
      <point x="494" y="607"/>
      <point x="577" y="700"/>
      <point x="765" y="700" type="curve" smooth="yes"/>
      <point x="935" y="700"/>
      <point x="1040" y="591"/>
      <point x="1040" y="424" type="curve" smooth="yes"/>
      <point x="1040" y="0" type="line"/>
      <point x="1076" y="0" type="line"/>
      <point x="1076" y="424" type="line" smooth="yes"/>
      <point x="1076" y="591"/>
      <point x="1181" y="700"/>
      <point x="1351" y="700" type="curve" smooth="yes"/>
      <point x="1538" y="700"/>
      <point x="1622" y="610"/>
      <point x="1622" y="411" type="curve" smooth="yes"/>
      <point x="1622" y="0" type="line"/>
      <point x="1659" y="0" type="line"/>
      <point x="1659" y="413" type="line" smooth="yes"/>
      <point x="1659" y="630"/>
      <point x="1562" y="733"/>
      <point x="1358" y="733" type="curve" smooth="yes"/>
      <point x="1164" y="733"/>
      <point x="1066" y="622"/>
      <point x="1055" y="468" type="curve"/>
      <point x="1061" y="468" type="line"/>
      <point x="1050" y="622"/>
      <point x="956" y="733"/>
      <point x="765" y="733" type="curve" smooth="yes"/>
      <point x="562" y="733"/>
      <point x="459" y="630"/>
      <point x="457" y="413" type="curve"/>
      <point x="457" y="409" type="line"/>
      <point x="457" y="407"/>
      <point x="457" y="406"/>
      <point x="457" y="402" type="curve"/>
    </contour>
  </outline>
</glyph>
<glyph name="Va.or" format="2">
  <advance width="2082"/>
  <unicode hex="0B35"/>
  <anchor x="1461" y="4" name="bottom"/>
  <anchor x="1037" y="0" name="nukta"/>
  <anchor x="1037" y="1780" name="top1"/>
  <anchor x="1623" y="1453" name="top2"/>
  <outline>
    <contour>
      <point x="602" y="367" type="curve"/>
      <point x="609" y="402" type="line"/>
      <point x="343" y="444"/>
      <point x="194" y="582"/>
      <point x="194" y="806" type="curve" smooth="yes"/>
      <point x="194" y="831" type="line" smooth="yes"/>
      <point x="194" y="1145"/>
      <point x="494" y="1318"/>
      <point x="1037" y="1318" type="curve" smooth="yes"/>
      <point x="1596" y="1318"/>
      <point x="1888" y="1126"/>
      <point x="1888" y="780" type="curve" smooth="yes"/>
      <point x="1888" y="762" type="line" smooth="yes"/>
      <point x="1888" y="652"/>
      <point x="1854" y="535"/>
      <point x="1782" y="430" type="curve"/>
      <point x="1829" y="437" type="line"/>
      <point x="1895" y="536"/>
      <point x="1927" y="647"/>
      <point x="1927" y="762" type="curve" smooth="yes"/>
      <point x="1927" y="780" type="line" smooth="yes"/>
      <point x="1927" y="1148"/>
      <point x="1621" y="1353"/>
      <point x="1038" y="1353" type="curve" smooth="yes"/>
      <point x="465" y="1353"/>
      <point x="155" y="1169"/>
      <point x="155" y="831" type="curve" smooth="yes"/>
      <point x="155" y="806" type="line" smooth="yes"/>
      <point x="155" y="559"/>
      <point x="314" y="415"/>
    </contour>
    <contour>
      <point x="1424" y="0" type="line"/>
      <point x="1461" y="0" type="line"/>
      <point x="1461" y="418" type="line" smooth="yes"/>
      <point x="1461" y="648"/>
      <point x="1317" y="762"/>
      <point x="1030" y="762" type="curve" smooth="yes"/>
      <point x="743" y="762"/>
      <point x="593" y="639"/>
      <point x="593" y="425" type="curve" smooth="yes"/>
      <point x="593" y="417" type="line"/>
      <point x="593" y="413" type="line"/>
      <point x="593" y="198"/>
      <point x="736" y="91"/>
      <point x="1014" y="91" type="curve" smooth="yes"/>
      <point x="1297" y="91"/>
      <point x="1420" y="223"/>
      <point x="1435" y="367" type="curve"/>
      <point x="1428" y="374" type="line"/>
      <point x="1424" y="133" type="line"/>
    </contour>
    <contour>
      <point x="1021" y="125" type="curve" smooth="yes"/>
      <point x="763" y="125"/>
      <point x="630" y="221"/>
      <point x="630" y="413" type="curve" smooth="yes"/>
      <point x="630" y="427" type="line" smooth="yes"/>
      <point x="630" y="621"/>
      <point x="765" y="728"/>
      <point x="1030" y="728" type="curve" smooth="yes"/>
      <point x="1290" y="728"/>
      <point x="1424" y="624"/>
      <point x="1424" y="434" type="curve" smooth="yes"/>
      <point x="1424" y="422" type="line" smooth="yes"/>
      <point x="1424" y="248"/>
      <point x="1273" y="125"/>
    </contour>
    <contour>
      <point x="1032" y="376" type="curve" smooth="yes"/>
      <point x="1085" y="376"/>
      <point x="1112" y="395"/>
      <point x="1112" y="427" type="curve"/>
      <point x="1112" y="431" type="line"/>
      <point x="1112" y="463"/>
      <point x="1085" y="482"/>
      <point x="1032" y="482" type="curve" smooth="yes"/>
      <point x="979" y="482"/>
      <point x="953" y="463"/>
      <point x="953" y="431" type="curve"/>
      <point x="953" y="427" type="line"/>
      <point x="953" y="395"/>
      <point x="979" y="376"/>
    </contour>
  </outline>
</glyph>
<glyph name="Ssa.or" format="2">
  <advance width="2051"/>
  <unicode hex="0B37"/>
  <anchor x="1799" y="4" name="bottom"/>
  <anchor x="1170" y="0" name="nukta"/>
  <anchor x="976" y="1780" name="top1"/>
  <anchor x="1762" y="1453" name="top2"/>
  <outline>
    <contour>
      <point x="520" y="483" type="curve"/>
      <point x="538" y="519" type="line"/>
      <point x="311" y="557"/>
      <point x="194" y="679"/>
      <point x="194" y="862" type="curve" smooth="yes"/>
      <point x="194" y="886" type="line" smooth="yes"/>
      <point x="194" y="1078"/>
      <point x="306" y="1206"/>
      <point x="527" y="1270" type="curve"/>
      <point x="549" y="1276" type="line"/>
      <point x="656" y="1304"/>
      <point x="788" y="1318"/>
      <point x="943" y="1318" type="curve" smooth="yes"/>
      <point x="1456" y="1318"/>
      <point x="1759" y="1123"/>
      <point x="1764" y="771" type="curve"/>
      <point x="1788" y="767" type="line"/>
      <point x="1785" y="792" type="line"/>
      <point x="1780" y="1146"/>
      <point x="1474" y="1353"/>
      <point x="944" y="1353" type="curve" smooth="yes"/>
      <point x="419" y="1353"/>
      <point x="155" y="1199"/>
      <point x="155" y="886" type="curve" smooth="yes"/>
      <point x="155" y="862" type="line" smooth="yes"/>
      <point x="155" y="659"/>
      <point x="282" y="530"/>
    </contour>
    <contour>
      <point x="1080" y="-18" type="curve" smooth="yes"/>
      <point x="1496" y="-18"/>
      <point x="1732" y="151"/>
      <point x="1785" y="404" type="curve"/>
      <point x="1783" y="418" type="line"/>
      <point x="1766" y="397" type="line"/>
      <point x="1689" y="170"/>
      <point x="1480" y="17"/>
      <point x="1080" y="17" type="curve" smooth="yes"/>
      <point x="697" y="17"/>
      <point x="512" y="142"/>
      <point x="512" y="347" type="curve" smooth="yes"/>
      <point x="512" y="368" type="line" smooth="yes"/>
      <point x="512" y="578"/>
      <point x="697" y="698"/>
      <point x="1059" y="698" type="curve" smooth="yes"/>
      <point x="1098" y="698"/>
      <point x="1130" y="697"/>
      <point x="1158" y="690" type="curve"/>
      <point x="1137" y="720" type="line"/>
      <point x="1118" y="725"/>
      <point x="1089" y="730"/>
      <point x="1058" y="730" type="curve" smooth="yes"/>
      <point x="759" y="730"/>
      <point x="583" y="650"/>
      <point x="507" y="516" type="curve"/>
      <point x="498" y="498" type="line"/>
      <point x="482" y="461"/>
      <point x="473" y="415"/>
      <point x="473" y="367" type="curve" smooth="yes"/>
      <point x="473" y="349" type="line" smooth="yes"/>
      <point x="473" y="115"/>
      <point x="668" y="-18"/>
    </contour>
    <contour>
      <point x="1678" y="205" type="line"/>
      <point x="1697" y="233" type="line"/>
      <point x="535" y="1298" type="line"/>
      <point x="505" y="1277" type="line"/>
    </contour>
    <contour>
      <point x="1762" y="0" type="line"/>
      <point x="1799" y="0" type="line"/>
      <point x="1799" y="1314" type="line"/>
      <point x="1762" y="1314" type="line"/>
      <point x="1766" y="894" type="line"/>
      <point x="1764" y="865" type="line"/>
      <point x="1764" y="449" type="line"/>
      <point x="1764" y="381" type="line"/>
      <point x="1764" y="356" type="line"/>
    </contour>
  </outline>
</glyph>
<glyph name="Sa.or" format="2">
  <advance width="1956"/>
  <unicode hex="0B38"/>
  <anchor x="1704" y="4" name="bottom"/>
  <anchor x="1000" y="0" name="nukta"/>
  <anchor x="926" y="1780" name="top1"/>
  <anchor x="1667" y="1453" name="top2"/>
  <outline>
    <contour>
      <point x="1667" y="1314" type="line"/>
      <point x="1671" y="894" type="line"/>
      <point x="1667" y="865" type="line"/>
      <point x="1667" y="749" type="line"/>
      <point x="1667" y="705" type="line"/>
      <point x="1667" y="21" type="line"/>
      <point x="1682" y="34" type="line"/>
      <point x="311" y="205" type="line"/>
      <point x="311" y="215" type="line"/>
      <point x="1682" y="783" type="line"/>
      <point x="1685" y="820" type="line"/>
      <point x="920" y="504" type="line"/>
      <point x="865" y="481" type="line"/>
      <point x="272" y="237" type="line"/>
      <point x="272" y="174" type="line"/>
      <point x="1671" y="0" type="line"/>
      <point x="1704" y="0" type="line"/>
      <point x="1704" y="1314" type="line"/>
    </contour>
    <contour>
      <point x="946" y="514" type="line"/>
      <point x="677" y="471"/>
      <point x="199" y="500"/>
      <point x="199" y="878" type="curve" smooth="yes"/>
      <point x="199" y="902" type="line" smooth="yes"/>
      <point x="199" y="1175"/>
      <point x="431" y="1318"/>
      <point x="881" y="1318" type="curve" smooth="yes"/>
      <point x="1372" y="1318"/>
      <point x="1662" y="1124"/>
      <point x="1667" y="771" type="curve"/>
      <point x="1689" y="772" type="line"/>
      <point x="1689" y="792" type="line"/>
      <point x="1684" y="1146"/>
      <point x="1388" y="1353"/>
      <point x="882" y="1353" type="curve" smooth="yes"/>
      <point x="403" y="1353"/>
      <point x="160" y="1199"/>
      <point x="160" y="902" type="curve" smooth="yes"/>
      <point x="160" y="878" type="line" smooth="yes"/>
      <point x="160" y="498"/>
      <point x="593" y="439"/>
      <point x="881" y="477" type="curve"/>
    </contour>
  </outline>
</glyph>
<glyph name="Nukta.or" format="2">
  <unicode hex="0B3C"/>
  <anchor x="-1030" y="0" name="_nukta"/>
  <outline>
    <contour>
      <point x="-1032" y="-348" type="curve" smooth="yes"/>
      <point x="-986" y="-348"/>
      <point x="-965" y="-323"/>
      <point x="-965" y="-293" type="curve" smooth="yes"/>
      <point x="-965" y="-290" type="line" smooth="yes"/>
      <point x="-965" y="-256"/>
      <point x="-986" y="-232"/>
      <point x="-1030" y="-232" type="curve" smooth="yes"/>
      <point x="-1074" y="-232"/>
      <point x="-1095" y="-256"/>
      <point x="-1095" y="-290" type="curve" smooth="yes"/>
      <point x="-1095" y="-293" type="line" smooth="yes"/>
      <point x="-1095" y="-322"/>
      <point x="-1074" y="-348"/>
    </contour>
  </outline>
</glyph>
<glyph name="Avagraha.or" format="2">
  <advance width="1206"/>
  <unicode hex="0B3D"/>
  <outline>
    <contour>
      <point x="148" y="970" type="line"/>
      <point x="1051" y="1330" type="line"/>
      <point x="1050" y="1290" type="line"/>
      <point x="207" y="956" type="line"/>
      <point x="205" y="966" type="line"/>
      <point x="1025" y="653" type="line"/>
      <point x="1025" y="639" type="line"/>
      <point x="211" y="338" type="line"/>
      <point x="214" y="343" type="line"/>
      <point x="1048" y="22" type="line"/>
      <point x="1048" y="-18" type="line"/>
      <point x="143" y="333" type="line"/>
      <point x="143" y="351" type="line"/>
      <point x="949" y="648" type="line"/>
      <point x="954" y="643" type="line"/>
      <point x="148" y="949" type="line"/>
    </contour>
  </outline>
</glyph>
<glyph name="MatraAa.or" format="2">
  <advance width="541"/>
  <unicode hex="0B3E"/>
  <outline>
    <contour>
      <point x="289" y="1314" type="line"/>
      <point x="289" y="0" type="line"/>
      <point x="252" y="0" type="line"/>
      <point x="252" y="1314" type="line"/>
    </contour>
  </outline>
</glyph>
<glyph name="MatraI.or" format="2">
  <unicode hex="0B3F"/>
  <anchor x="-1073" y="1780" name="_top1"/>
  <outline>
    <contour>
      <point x="-1866" y="1534" type="line"/>
      <point x="-1645" y="1670"/>
      <point x="-1391" y="1745"/>
      <point x="-1073" y="1745" type="curve" smooth="yes"/>
      <point x="-757" y="1745"/>
      <point x="-503" y="1670"/>
      <point x="-282" y="1534" type="curve"/>
      <point x="-290" y="1572" type="line"/>
      <point x="-487" y="1697"/>
      <point x="-733" y="1780"/>
      <point x="-1073" y="1780" type="curve" smooth="yes"/>
      <point x="-1415" y="1780"/>
      <point x="-1661" y="1697"/>
      <point x="-1858" y="1572" type="curve"/>
    </contour>
  </outline>
</glyph>
<glyph name="MatraIi.or" format="2">
  <advance width="874"/>
  <unicode hex="0B40"/>
  <outline>
    <contour>
      <point x="584" y="0" type="line"/>
      <point x="621" y="0" type="line"/>
      <point x="622" y="1314" type="line"/>
      <point x="576" y="1314" type="line"/>
      <point x="38" y="981" type="line"/>
      <point x="38" y="944" type="line"/>
      <point x="44" y="944" type="line"/>
      <point x="574" y="1272" type="line"/>
      <point x="585" y="1272" type="line"/>
    </contour>
  </outline>
</glyph>
<glyph name="MatraU.or" format="2">
  <unicode hex="0B41"/>
  <guideline y="7017"/>
  <guideline y="9"/>
  <anchor x="-252" y="4" name="_bottom"/>
  <outline>
    <contour>
      <point x="-651" y="-632" type="curve" smooth="yes"/>
      <point x="-474" y="-632"/>
      <point x="-322" y="-548"/>
      <point x="-272" y="-382" type="curve"/>
      <point x="-271" y="-376" type="line"/>
      <point x="-269" y="-368" type="line"/>
      <point x="-250" y="-270"/>
      <point x="-252" y="-145"/>
      <point x="-252" y="-11" type="curve" smooth="yes"/>
      <point x="-252" y="365" type="line"/>
      <point x="-289" y="365" type="line"/>
      <point x="-289" y="9" type="line"/>
      <point x="-289" y="-148"/>
      <point x="-288" y="-256"/>
      <point x="-301" y="-345" type="curve"/>
      <point x="-304" y="-349" type="line"/>
      <point x="-302" y="-357" type="line"/>
      <point x="-343" y="-522"/>
      <point x="-488" y="-599"/>
      <point x="-651" y="-599" type="curve" smooth="yes"/>
      <point x="-836" y="-599"/>
      <point x="-918" y="-535"/>
      <point x="-918" y="-419" type="curve" smooth="yes"/>
      <point x="-918" y="-416" type="line" smooth="yes"/>
      <point x="-918" y="-302"/>
      <point x="-839" y="-242"/>
      <point x="-676" y="-242" type="curve" smooth="yes"/>
      <point x="-524" y="-242"/>
      <point x="-413" y="-292"/>
      <point x="-294" y="-381" type="curve"/>
      <point x="-277" y="-354" type="line"/>
      <point x="-388" y="-272"/>
      <point x="-512" y="-209"/>
      <point x="-676" y="-209" type="curve" smooth="yes"/>
      <point x="-864" y="-209"/>
      <point x="-955" y="-283"/>
      <point x="-955" y="-415" type="curve" smooth="yes"/>
      <point x="-955" y="-420" type="line" smooth="yes"/>
      <point x="-955" y="-557"/>
      <point x="-861" y="-632"/>
    </contour>
    <contour>
      <point x="309" y="-604" type="curve"/>
      <point x="309" y="-568" type="line"/>
      <point x="122" y="-572"/>
      <point x="-88" y="-498"/>
      <point x="-275" y="-354" type="curve"/>
      <point x="-280" y="-391" type="line"/>
      <point x="-109" y="-524"/>
      <point x="130" y="-608"/>
    </contour>
  </outline>
</glyph>
<glyph name="MatraUu.or" format="2">
  <unicode hex="0B42"/>
  <anchor x="-252" y="4" name="_bottom"/>
  <outline>
    <contour>
      <point x="369" y="-702" type="curve"/>
      <point x="369" y="-665" type="line"/>
      <point x="173" y="-628"/>
      <point x="28" y="-573"/>
      <point x="-134" y="-477" type="curve"/>
      <point x="-230" y="-545"/>
      <point x="-341" y="-599"/>
      <point x="-504" y="-599" type="curve" smooth="yes"/>
      <point x="-680" y="-599"/>
      <point x="-773" y="-538"/>
      <point x="-773" y="-424" type="curve" smooth="yes"/>
      <point x="-773" y="-413" type="line" smooth="yes"/>
      <point x="-773" y="-306"/>
      <point x="-692" y="-241"/>
      <point x="-502" y="-241" type="curve" smooth="yes"/>
      <point x="-409" y="-241"/>
      <point x="-320" y="-254"/>
      <point x="-252" y="-266" type="curve"/>
      <point x="-252" y="366" type="line"/>
      <point x="-289" y="366" type="line"/>
      <point x="-289" y="-239" type="line"/>
      <point x="-273" y="-232" type="line"/>
      <point x="-336" y="-219"/>
      <point x="-431" y="-209"/>
      <point x="-502" y="-209" type="curve" smooth="yes"/>
      <point x="-713" y="-209"/>
      <point x="-809" y="-287"/>
      <point x="-809" y="-413" type="curve" smooth="yes"/>
      <point x="-809" y="-424" type="line" smooth="yes"/>
      <point x="-809" y="-560"/>
      <point x="-702" y="-632"/>
      <point x="-504" y="-632" type="curve" smooth="yes"/>
      <point x="-331" y="-632"/>
      <point x="-204" y="-575"/>
      <point x="-114" y="-502" type="curve"/>
      <point x="-146" y="-508" type="line"/>
      <point x="23" y="-606"/>
      <point x="168" y="-661"/>
    </contour>
  </outline>
</glyph>
<glyph name="MatraVocalicRr.or" format="2">
  <unicode hex="0B44"/>
  <anchor x="-252" y="4" name="_bottom"/>
  <outline>
    <contour>
      <point x="-334" y="-786" type="curve" smooth="yes"/>
      <point x="-136" y="-786"/>
      <point x="-8" y="-725"/>
      <point x="-8" y="-608" type="curve" smooth="yes"/>
      <point x="-8" y="-601" type="line" smooth="yes"/>
      <point x="-8" y="-507"/>
      <point x="-80" y="-460"/>
      <point x="-205" y="-460" type="curve" smooth="yes"/>
      <point x="-270" y="-460"/>
      <point x="-321" y="-472"/>
      <point x="-361" y="-489" type="curve"/>
      <point x="-361" y="-519" type="line"/>
      <point x="-309" y="-500"/>
      <point x="-259" y="-491"/>
      <point x="-206" y="-491" type="curve" smooth="yes"/>
      <point x="-103" y="-491"/>
      <point x="-43" y="-527"/>
      <point x="-43" y="-601" type="curve" smooth="yes"/>
      <point x="-43" y="-608" type="line" smooth="yes"/>
      <point x="-43" y="-703"/>
      <point x="-157" y="-753"/>
      <point x="-334" y="-753" type="curve" smooth="yes"/>
      <point x="-546" y="-753"/>
      <point x="-656" y="-694"/>
      <point x="-656" y="-582" type="curve" smooth="yes"/>
      <point x="-656" y="-574" type="line" smooth="yes"/>
      <point x="-656" y="-482"/>
      <point x="-584" y="-426"/>
      <point x="-437" y="-421" type="curve"/>
      <point x="-437" y="-393" type="line"/>
      <point x="-586" y="-392"/>
      <point x="-644" y="-357"/>
      <point x="-644" y="-295" type="curve" smooth="yes"/>
      <point x="-644" y="-293" type="line" smooth="yes"/>
      <point x="-644" y="-225"/>
      <point x="-570" y="-195"/>
      <point x="-433" y="-195" type="curve" smooth="yes"/>
      <point x="-349" y="-195"/>
      <point x="-279" y="-205"/>
      <point x="-206" y="-227" type="curve"/>
      <point x="-213" y="-196" type="line"/>
      <point x="-268" y="-177"/>
      <point x="-338" y="-163"/>
      <point x="-434" y="-163" type="curve" smooth="yes"/>
      <point x="-589" y="-163"/>
      <point x="-680" y="-202"/>
      <point x="-680" y="-293" type="curve" smooth="yes"/>
      <point x="-680" y="-295" type="line" smooth="yes"/>
      <point x="-680" y="-367"/>
      <point x="-629" y="-403"/>
      <point x="-496" y="-412" type="curve"/>
      <point x="-496" y="-407" type="line"/>
      <point x="-624" y="-411"/>
      <point x="-693" y="-487"/>
      <point x="-693" y="-575" type="curve" smooth="yes"/>
      <point x="-693" y="-583" type="line" smooth="yes"/>
      <point x="-693" y="-713"/>
      <point x="-568" y="-786"/>
    </contour>
  </outline>
</glyph>
<glyph name="MatraE.or" format="2">
  <advance width="1433"/>
  <unicode hex="0B47"/>
  <outline>
    <contour>
      <point x="795" y="-18" type="curve" smooth="yes"/>
      <point x="1124" y="-18"/>
      <point x="1312" y="136"/>
      <point x="1312" y="387" type="curve" smooth="yes"/>
      <point x="1312" y="403" type="line" smooth="yes"/>
      <point x="1312" y="651"/>
      <point x="1139" y="785"/>
      <point x="823" y="785" type="curve" smooth="yes"/>
      <point x="482" y="785"/>
      <point x="290" y="590"/>
      <point x="221" y="410" type="curve"/>
      <point x="214" y="408" type="line"/>
      <point x="232" y="381" type="line"/>
      <point x="315" y="578"/>
      <point x="500" y="752"/>
      <point x="821" y="752" type="curve" smooth="yes"/>
      <point x="1115" y="752"/>
      <point x="1274" y="630"/>
      <point x="1274" y="403" type="curve" smooth="yes"/>
      <point x="1274" y="390" type="line" smooth="yes"/>
      <point x="1274" y="158"/>
      <point x="1104" y="17"/>
      <point x="795" y="17" type="curve" smooth="yes"/>
      <point x="447" y="17"/>
      <point x="214" y="234"/>
      <point x="214" y="645" type="curve"/>
      <point x="214" y="664" type="line"/>
      <point x="214" y="1069"/>
      <point x="405" y="1317"/>
      <point x="785" y="1317" type="curve" smooth="yes"/>
      <point x="973" y="1317"/>
      <point x="1118" y="1266"/>
      <point x="1230" y="1200" type="curve"/>
      <point x="1225" y="1238" type="line"/>
      <point x="1124" y="1298"/>
      <point x="980" y="1352"/>
      <point x="785" y="1352" type="curve" smooth="yes"/>
      <point x="378" y="1352"/>
      <point x="176" y="1090"/>
      <point x="176" y="664" type="curve" smooth="yes"/>
      <point x="176" y="645" type="line" smooth="yes"/>
      <point x="176" y="214"/>
      <point x="415" y="-18"/>
    </contour>
  </outline>
</glyph>
<glyph name="Virama.or" format="2">
  <unicode hex="0B4D"/>
  <anchor x="-252" y="4" name="_bottom"/>
  <outline>
    <contour>
      <point x="-295" y="-101" type="line"/>
      <point x="-295" y="-96" type="line"/>
      <point x="-252" y="-96" type="line"/>
      <point x="99" y="-486" type="line"/>
      <point x="99" y="-490" type="line"/>
      <point x="58" y="-490" type="line"/>
    </contour>
  </outline>
</glyph>
<glyph name="LengthmarkAi.or" format="2">
  <unicode hex="0B56"/>
  <outline>
    <contour>
      <point x="-1503" y="1919" type="line"/>
      <point x="-1503" y="1900" type="line" smooth="yes"/>
      <point x="-1503" y="1732"/>
      <point x="-1389" y="1681"/>
      <point x="-1158" y="1679" type="curve" smooth="yes"/>
      <point x="-621" y="1674" type="line" smooth="yes"/>
      <point x="-392" y="1672"/>
      <point x="-252" y="1610"/>
      <point x="-252" y="1421" type="curve" smooth="yes"/>
      <point x="-252" y="1410" type="line"/>
      <point x="-288" y="1410" type="line"/>
      <point x="-288" y="1421" type="line" smooth="yes"/>
      <point x="-288" y="1584"/>
      <point x="-411" y="1637"/>
      <point x="-621" y="1639" type="curve" smooth="yes"/>
      <point x="-1158" y="1644" type="line" smooth="yes"/>
      <point x="-1410" y="1646"/>
      <point x="-1539" y="1711"/>
      <point x="-1539" y="1900" type="curve" smooth="yes"/>
      <point x="-1539" y="1919" type="line"/>
    </contour>
  </outline>
</glyph>
<glyph name="LengthmarkAu.or" format="2">
  <advance width="541"/>
  <unicode hex="0B57"/>
  <outline>
    <contour>
      <point x="252" y="0" type="line"/>
      <point x="289" y="0" type="line"/>
      <point x="289" y="1312" type="line" smooth="yes"/>
      <point x="289" y="1569"/>
      <point x="186" y="1671"/>
      <point x="-100" y="1674" type="curve" smooth="yes"/>
      <point x="-617" y="1679" type="line" smooth="yes"/>
      <point x="-848" y="1681"/>
      <point x="-962" y="1732"/>
      <point x="-962" y="1900" type="curve" smooth="yes"/>
      <point x="-962" y="1919" type="line"/>
      <point x="-998" y="1919" type="line"/>
      <point x="-998" y="1900" type="line" smooth="yes"/>
      <point x="-998" y="1711"/>
      <point x="-869" y="1646"/>
      <point x="-617" y="1644" type="curve" smooth="yes"/>
      <point x="-100" y="1639" type="line" smooth="yes"/>
      <point x="167" y="1636"/>
      <point x="252" y="1548"/>
      <point x="252" y="1312" type="curve" smooth="yes"/>
    </contour>
  </outline>
</glyph>
<glyph name="Yya.or" format="2">
  <advance width="2099"/>
  <unicode hex="0B5F"/>
  <anchor x="1847" y="-324" name="bottom"/>
  <anchor x="1009" y="1780" name="top1"/>
  <anchor x="1810" y="1453" name="top2"/>
  <outline>
    <contour>
      <point x="2106" y="-444" type="line"/>
      <point x="2106" y="-403" type="line"/>
      <point x="1603" y="-244" type="line"/>
      <point x="1568" y="-254" type="line"/>
      <point x="1728" y="-255" type="line"/>
      <point x="1955" y="-255"/>
      <point x="2064" y="-164"/>
      <point x="2064" y="7" type="curve" smooth="yes"/>
      <point x="2064" y="20" type="line" smooth="yes"/>
      <point x="2064" y="175"/>
      <point x="1969" y="267"/>
      <point x="1814" y="268" type="curve"/>
      <point x="1813" y="268" type="line"/>
      <point x="1705" y="267"/>
      <point x="1600" y="220"/>
      <point x="1479" y="162" type="curve" smooth="yes"/>
      <point x="1279" y="67"/>
      <point x="1128" y="17"/>
      <point x="954" y="17" type="curve" smooth="yes"/>
      <point x="674" y="17"/>
      <point x="533" y="128"/>
      <point x="533" y="319" type="curve" smooth="yes"/>
      <point x="533" y="324" type="line" smooth="yes"/>
      <point x="533" y="398"/>
      <point x="558" y="513"/>
      <point x="663" y="560" type="curve"/>
      <point x="586" y="540" type="line"/>
      <point x="523" y="492"/>
      <point x="494" y="409"/>
      <point x="494" y="324" type="curve" smooth="yes"/>
      <point x="494" y="319" type="line" smooth="yes"/>
      <point x="494" y="97"/>
      <point x="655" y="-18"/>
      <point x="952" y="-18" type="curve" smooth="yes"/>
      <point x="1146" y="-18"/>
      <point x="1278" y="30"/>
      <point x="1488" y="128" type="curve" smooth="yes"/>
      <point x="1609" y="185"/>
      <point x="1713" y="233"/>
      <point x="1809" y="233" type="curve" smooth="yes"/>
      <point x="1943" y="233"/>
      <point x="2027" y="158"/>
      <point x="2027" y="20" type="curve" smooth="yes"/>
      <point x="2027" y="9" type="line" smooth="yes"/>
      <point x="2027" y="-147"/>
      <point x="1931" y="-224"/>
      <point x="1718" y="-225" type="curve" smooth="yes"/>
      <point x="1542" y="-226" type="line"/>
      <point x="1542" y="-254" type="line"/>
    </contour>
    <contour>
      <point x="0" y="344" type="line"/>
      <point x="579" y="530" type="line"/>
      <point x="620" y="545" type="line"/>
      <point x="1077" y="692" type="line"/>
      <point x="1077" y="728" type="line"/>
      <point x="559" y="561" type="line"/>
      <point x="527" y="550" type="line"/>
      <point x="0" y="381" type="line"/>
    </contour>
    <contour>
      <point x="549" y="543" type="curve"/>
      <point x="595" y="562" type="line"/>
      <point x="367" y="594"/>
      <point x="242" y="712"/>
      <point x="242" y="886" type="curve" smooth="yes"/>
      <point x="242" y="908" type="line" smooth="yes"/>
      <point x="242" y="1183"/>
      <point x="497" y="1318"/>
      <point x="991" y="1318" type="curve" smooth="yes"/>
      <point x="1504" y="1318"/>
      <point x="1807" y="1124"/>
      <point x="1812" y="771" type="curve"/>
      <point x="1837" y="771" type="line"/>
      <point x="1834" y="792" type="line"/>
      <point x="1829" y="1146"/>
      <point x="1522" y="1353"/>
      <point x="993" y="1353" type="curve" smooth="yes"/>
      <point x="469" y="1353"/>
      <point x="203" y="1207"/>
      <point x="203" y="908" type="curve" smooth="yes"/>
      <point x="203" y="886" type="line" smooth="yes"/>
      <point x="203" y="701"/>
      <point x="332" y="577"/>
    </contour>
    <contour>
      <point x="1812" y="250" type="line"/>
      <point x="1847" y="250" type="line"/>
      <point x="1847" y="1314" type="line"/>
      <point x="1810" y="1314" type="line"/>
      <point x="1814" y="894" type="line"/>
      <point x="1812" y="865" type="line"/>
      <point x="1812" y="710" type="line"/>
    </contour>
  </outline>
</glyph>
<glyph name="VocalicRr.or" format="2">
  <advance width="2166"/>
  <unicode hex="0B60"/>
  <anchor x="1049" y="1780" name="top1"/>
  <anchor x="1677" y="1453" name="top2"/>
  <outline>
    <contour>
      <point x="2095" y="-155" type="line"/>
      <point x="2095" y="-116" type="line"/>
      <point x="1653" y="45" type="line"/>
      <point x="1658" y="33" type="line"/>
      <point x="1790" y="28" type="line"/>
      <point x="1967" y="28"/>
      <point x="2051" y="78"/>
      <point x="2051" y="194" type="curve" smooth="yes"/>
      <point x="2051" y="200" type="line" smooth="yes"/>
      <point x="2051" y="305"/>
      <point x="1970" y="345"/>
      <point x="1834" y="349" type="curve"/>
      <point x="1835" y="342" type="line"/>
      <point x="1970" y="347"/>
      <point x="2047" y="400"/>
      <point x="2047" y="497" type="curve" smooth="yes"/>
      <point x="2047" y="502" type="line" smooth="yes"/>
      <point x="2047" y="612"/>
      <point x="1969" y="665"/>
      <point x="1784" y="662" type="curve"/>
      <point x="1744" y="650" type="line"/>
      <point x="1891" y="669"/>
      <point x="1954" y="764"/>
      <point x="1954" y="890" type="curve" smooth="yes"/>
      <point x="1954" y="906" type="line" smooth="yes"/>
      <point x="1954" y="1189"/>
      <point x="1640" y="1353"/>
      <point x="1061" y="1353" type="curve" smooth="yes"/>
      <point x="449" y="1353"/>
      <point x="155" y="1165"/>
      <point x="155" y="804" type="curve" smooth="yes"/>
      <point x="155" y="779" type="line" smooth="yes"/>
      <point x="155" y="557"/>
      <point x="276" y="417"/>
      <point x="484" y="368" type="curve"/>
      <point x="491" y="406" type="line"/>
      <point x="301" y="447"/>
      <point x="194" y="580"/>
      <point x="194" y="779" type="curve" smooth="yes"/>
      <point x="194" y="804" type="line" smooth="yes"/>
      <point x="194" y="1142"/>
      <point x="474" y="1317"/>
      <point x="1059" y="1317" type="curve" smooth="yes"/>
      <point x="1622" y="1317"/>
      <point x="1916" y="1168"/>
      <point x="1916" y="904" type="curve" smooth="yes"/>
      <point x="1916" y="890" type="line" smooth="yes"/>
      <point x="1916" y="767"/>
      <point x="1850" y="675"/>
      <point x="1676" y="664" type="curve" smooth="yes"/>
      <point x="1611" y="660" type="line"/>
      <point x="1611" y="635" type="line"/>
      <point x="1780" y="634" type="line" smooth="yes"/>
      <point x="1946" y="633"/>
      <point x="2011" y="598"/>
      <point x="2011" y="502" type="curve" smooth="yes"/>
      <point x="2011" y="497" type="line" smooth="yes"/>
      <point x="2011" y="407"/>
      <point x="1941" y="362"/>
      <point x="1779" y="360" type="curve" smooth="yes"/>
      <point x="1628" y="358" type="line"/>
      <point x="1628" y="333" type="line"/>
      <point x="1779" y="331" type="line" smooth="yes"/>
      <point x="1940" y="329"/>
      <point x="2015" y="295"/>
      <point x="2015" y="199" type="curve" smooth="yes"/>
      <point x="2015" y="193" type="line" smooth="yes"/>
      <point x="2015" y="94"/>
      <point x="1938" y="57"/>
      <point x="1789" y="57" type="curve" smooth="yes"/>
      <point x="1611" y="57" type="line"/>
      <point x="1611" y="32" type="line"/>
    </contour>
    <contour>
      <point x="938" y="-18" type="curve" smooth="yes"/>
      <point x="1244" y="-18"/>
      <point x="1408" y="105"/>
      <point x="1408" y="342" type="curve" smooth="yes"/>
      <point x="1408" y="363" type="line" smooth="yes"/>
      <point x="1408" y="600"/>
      <point x="1244" y="723"/>
      <point x="938" y="723" type="curve" smooth="yes"/>
      <point x="632" y="723"/>
      <point x="478" y="600"/>
      <point x="467" y="374" type="curve"/>
      <point x="467" y="365" type="line"/>
      <point x="467" y="363"/>
      <point x="467" y="360"/>
      <point x="467" y="358" type="curve"/>
      <point x="467" y="345" type="line" smooth="yes"/>
      <point x="467" y="105"/>
      <point x="632" y="-18"/>
    </contour>
    <contour>
      <point x="938" y="15" type="curve" smooth="yes"/>
      <point x="657" y="15"/>
      <point x="506" y="130"/>
      <point x="506" y="342" type="curve" smooth="yes"/>
      <point x="506" y="363" type="line" smooth="yes"/>
      <point x="506" y="579"/>
      <point x="659" y="690"/>
      <point x="938" y="690" type="curve" smooth="yes"/>
      <point x="1219" y="690"/>
      <point x="1371" y="578"/>
      <point x="1371" y="363" type="curve" smooth="yes"/>
      <point x="1371" y="342" type="line" smooth="yes"/>
      <point x="1371" y="130"/>
      <point x="1219" y="15"/>
    </contour>
  </outline>
</glyph>
<glyph name="VocalicLl.or" format="2">
  <advance width="1811"/>
  <unicode hex="0B61"/>
  <anchor x="1427" y="1453" name="top2"/>
  <outline>
    <contour>
      <point x="942" y="-18" type="curve" smooth="yes"/>
      <point x="1060" y="-18"/>
      <point x="1163" y="-10"/>
      <point x="1251" y="4" type="curve"/>
      <point x="1276" y="8" type="line"/>
      <point x="1555" y="58"/>
      <point x="1677" y="178"/>
      <point x="1677" y="331" type="curve" smooth="yes"/>
      <point x="1677" y="349" type="line" smooth="yes"/>
      <point x="1677" y="516"/>
      <point x="1556" y="637"/>
      <point x="1283" y="637" type="curve" smooth="yes"/>
      <point x="1020" y="637"/>
      <point x="867" y="528"/>
      <point x="867" y="342" type="curve" smooth="yes"/>
      <point x="867" y="326" type="line" smooth="yes"/>
      <point x="867" y="146"/>
      <point x="1007" y="45"/>
      <point x="1196" y="16" type="curve"/>
      <point x="1244" y="30" type="line"/>
      <point x="1034" y="65"/>
      <point x="904" y="162"/>
      <point x="904" y="324" type="curve" smooth="yes"/>
      <point x="904" y="342" type="line" smooth="yes"/>
      <point x="904" y="515"/>
      <point x="1045" y="604"/>
      <point x="1282" y="604" type="curve" smooth="yes"/>
      <point x="1532" y="604"/>
      <point x="1640" y="503"/>
      <point x="1640" y="349" type="curve" smooth="yes"/>
      <point x="1640" y="331" type="line" smooth="yes"/>
      <point x="1640" y="166"/>
      <point x="1482" y="67"/>
      <point x="1216" y="30" type="curve"/>
      <point x="1189" y="25" type="line"/>
      <point x="1113" y="19"/>
      <point x="1025" y="15"/>
      <point x="942" y="15" type="curve" smooth="yes"/>
      <point x="443" y="15"/>
      <point x="199" y="140"/>
      <point x="199" y="368" type="curve" smooth="yes"/>
      <point x="199" y="390" type="line" smooth="yes"/>
      <point x="199" y="605"/>
      <point x="344" y="669"/>
      <point x="664" y="728" type="curve" smooth="yes"/>
      <point x="949" y="780" type="line" smooth="yes"/>
      <point x="1223" y="829"/>
      <point x="1351" y="910"/>
      <point x="1351" y="1063" type="curve" smooth="yes"/>
      <point x="1351" y="1077" type="line" smooth="yes"/>
      <point x="1351" y="1255"/>
      <point x="1198" y="1353"/>
      <point x="922" y="1353" type="curve" smooth="yes"/>
      <point x="630" y="1353"/>
      <point x="473" y="1246"/>
      <point x="473" y="1057" type="curve" smooth="yes"/>
      <point x="473" y="1047" type="line" smooth="yes"/>
      <point x="473" y="999"/>
      <point x="486" y="954"/>
      <point x="502" y="917" type="curve"/>
      <point x="541" y="910" type="line"/>
      <point x="522" y="956"/>
      <point x="509" y="1000"/>
      <point x="509" y="1047" type="curve" smooth="yes"/>
      <point x="509" y="1057" type="line" smooth="yes"/>
      <point x="509" y="1227"/>
      <point x="651" y="1320"/>
      <point x="922" y="1320" type="curve" smooth="yes"/>
      <point x="1175" y="1320"/>
      <point x="1314" y="1236"/>
      <point x="1314" y="1077" type="curve" smooth="yes"/>
      <point x="1314" y="1063" type="line" smooth="yes"/>
      <point x="1314" y="926"/>
      <point x="1196" y="856"/>
      <point x="943" y="812" type="curve" smooth="yes"/>
      <point x="659" y="762" type="line" smooth="yes"/>
      <point x="312" y="701"/>
      <point x="160" y="619"/>
      <point x="160" y="390" type="curve" smooth="yes"/>
      <point x="160" y="372" type="line" smooth="yes"/>
      <point x="160" y="114"/>
      <point x="413" y="-18"/>
    </contour>
    <contour>
      <point x="1666" y="-114" type="curve"/>
      <point x="1666" y="-78" type="line"/>
      <point x="1525" y="-46"/>
      <point x="1397" y="-11"/>
      <point x="1256" y="21" type="curve"/>
      <point x="1211" y="7" type="line"/>
      <point x="1368" y="-32"/>
      <point x="1509" y="-75"/>
    </contour>
  </outline>
</glyph>
<glyph name="MatraVocalicL.or" format="2">
  <unicode hex="0B62"/>
  <outline>
    <contour>
      <point x="-150" y="-654" type="curve" smooth="yes"/>
      <point x="96" y="-654"/>
      <point x="200" y="-576"/>
      <point x="200" y="-477" type="curve" smooth="yes"/>
      <point x="200" y="-471" type="line" smooth="yes"/>
      <point x="200" y="-391"/>
      <point x="138" y="-332"/>
      <point x="7" y="-332" type="curve" smooth="yes"/>
      <point x="-120" y="-332"/>
      <point x="-194" y="-389"/>
      <point x="-194" y="-478" type="curve" smooth="yes"/>
      <point x="-194" y="-485" type="line" smooth="yes"/>
      <point x="-194" y="-574"/>
      <point x="-119" y="-623"/>
      <point x="-18" y="-632" type="curve"/>
      <point x="-1" y="-619" type="line"/>
      <point x="-98" y="-602"/>
      <point x="-159" y="-559"/>
      <point x="-159" y="-486" type="curve" smooth="yes"/>
      <point x="-159" y="-478" type="line" smooth="yes"/>
      <point x="-159" y="-402"/>
      <point x="-97" y="-363"/>
      <point x="6" y="-363" type="curve" smooth="yes"/>
      <point x="117" y="-363"/>
      <point x="165" y="-407"/>
      <point x="165" y="-471" type="curve" smooth="yes"/>
      <point x="165" y="-477" type="line" smooth="yes"/>
      <point x="165" y="-551"/>
      <point x="93" y="-602"/>
      <point x="-34" y="-618" type="curve"/>
      <point x="-51" y="-621" type="line"/>
      <point x="-69" y="-622"/>
      <point x="-112" y="-623"/>
      <point x="-150" y="-623" type="curve" smooth="yes"/>
      <point x="-377" y="-623"/>
      <point x="-488" y="-570"/>
      <point x="-488" y="-466" type="curve" smooth="yes"/>
      <point x="-488" y="-458" type="line" smooth="yes"/>
      <point x="-488" y="-370"/>
      <point x="-423" y="-341"/>
      <point x="-287" y="-313" type="curve" smooth="yes"/>
      <point x="-146" y="-284" type="line" smooth="yes"/>
      <point x="-15" y="-257"/>
      <point x="45" y="-217"/>
      <point x="45" y="-139" type="curve" smooth="yes"/>
      <point x="45" y="-132" type="line" smooth="yes"/>
      <point x="45" y="-48"/>
      <point x="-29" y="0"/>
      <point x="-159" y="0" type="curve" smooth="yes"/>
      <point x="-297" y="0"/>
      <point x="-374" y="-54"/>
      <point x="-374" y="-144" type="curve" smooth="yes"/>
      <point x="-374" y="-148" type="line" smooth="yes"/>
      <point x="-374" y="-173"/>
      <point x="-366" y="-196"/>
      <point x="-356" y="-214" type="curve"/>
      <point x="-319" y="-221" type="line"/>
      <point x="-332" y="-195"/>
      <point x="-340" y="-174"/>
      <point x="-340" y="-148" type="curve" smooth="yes"/>
      <point x="-340" y="-144" type="line" smooth="yes"/>
      <point x="-340" y="-72"/>
      <point x="-276" y="-31"/>
      <point x="-159" y="-31" type="curve" smooth="yes"/>
      <point x="-52" y="-31"/>
      <point x="10" y="-67"/>
      <point x="10" y="-132" type="curve" smooth="yes"/>
      <point x="10" y="-139" type="line" smooth="yes"/>
      <point x="10" y="-202"/>
      <point x="-42" y="-232"/>
      <point x="-152" y="-254" type="curve" smooth="yes"/>
      <point x="-293" y="-282" type="line" smooth="yes"/>
      <point x="-450" y="-313"/>
      <point x="-523" y="-358"/>
      <point x="-523" y="-459" type="curve" smooth="yes"/>
      <point x="-523" y="-465" type="line" smooth="yes"/>
      <point x="-523" y="-591"/>
      <point x="-402" y="-654"/>
    </contour>
  </outline>
</glyph>
<glyph name="MatraVocalicLl.or" format="2">
  <unicode hex="0B63"/>
  <anchor x="-252" y="4" name="_bottom"/>
  <outline>
    <contour>
      <point x="-285" y="-817" type="curve" smooth="yes"/>
      <point x="-223" y="-817"/>
      <point x="-169" y="-812"/>
      <point x="-124" y="-803" type="curve"/>
      <point x="-107" y="-799" type="line"/>
      <point x="12" y="-771"/>
      <point x="65" y="-711"/>
      <point x="65" y="-640" type="curve" smooth="yes"/>
      <point x="65" y="-634" type="line" smooth="yes"/>
      <point x="65" y="-554"/>
      <point x="3" y="-495"/>
      <point x="-128" y="-495" type="curve" smooth="yes"/>
      <point x="-255" y="-495"/>
      <point x="-329" y="-552"/>
      <point x="-329" y="-641" type="curve" smooth="yes"/>
      <point x="-329" y="-648" type="line" smooth="yes"/>
      <point x="-329" y="-737"/>
      <point x="-254" y="-786"/>
      <point x="-153" y="-795" type="curve"/>
      <point x="-136" y="-782" type="line"/>
      <point x="-233" y="-765"/>
      <point x="-294" y="-722"/>
      <point x="-294" y="-649" type="curve" smooth="yes"/>
      <point x="-294" y="-641" type="line" smooth="yes"/>
      <point x="-294" y="-565"/>
      <point x="-232" y="-526"/>
      <point x="-129" y="-526" type="curve" smooth="yes"/>
      <point x="-18" y="-526"/>
      <point x="30" y="-570"/>
      <point x="30" y="-634" type="curve" smooth="yes"/>
      <point x="30" y="-640" type="line" smooth="yes"/>
      <point x="30" y="-714"/>
      <point x="-42" y="-765"/>
      <point x="-169" y="-781" type="curve"/>
      <point x="-186" y="-784" type="line"/>
      <point x="-204" y="-785"/>
      <point x="-247" y="-786"/>
      <point x="-285" y="-786" type="curve" smooth="yes"/>
      <point x="-512" y="-786"/>
      <point x="-623" y="-733"/>
      <point x="-623" y="-629" type="curve" smooth="yes"/>
      <point x="-623" y="-621" type="line" smooth="yes"/>
      <point x="-623" y="-533"/>
      <point x="-558" y="-504"/>
      <point x="-422" y="-476" type="curve" smooth="yes"/>
      <point x="-281" y="-447" type="line" smooth="yes"/>
      <point x="-150" y="-420"/>
      <point x="-90" y="-380"/>
      <point x="-90" y="-302" type="curve" smooth="yes"/>
      <point x="-90" y="-295" type="line" smooth="yes"/>
      <point x="-90" y="-211"/>
      <point x="-164" y="-163"/>
      <point x="-294" y="-163" type="curve" smooth="yes"/>
      <point x="-432" y="-163"/>
      <point x="-509" y="-217"/>
      <point x="-509" y="-307" type="curve" smooth="yes"/>
      <point x="-509" y="-311" type="line" smooth="yes"/>
      <point x="-509" y="-336"/>
      <point x="-501" y="-359"/>
      <point x="-491" y="-377" type="curve"/>
      <point x="-454" y="-384" type="line"/>
      <point x="-467" y="-358"/>
      <point x="-475" y="-337"/>
      <point x="-475" y="-311" type="curve" smooth="yes"/>
      <point x="-475" y="-307" type="line" smooth="yes"/>
      <point x="-475" y="-235"/>
      <point x="-411" y="-194"/>
      <point x="-294" y="-194" type="curve" smooth="yes"/>
      <point x="-187" y="-194"/>
      <point x="-125" y="-230"/>
      <point x="-125" y="-295" type="curve" smooth="yes"/>
      <point x="-125" y="-302" type="line" smooth="yes"/>
      <point x="-125" y="-365"/>
      <point x="-177" y="-395"/>
      <point x="-287" y="-417" type="curve" smooth="yes"/>
      <point x="-428" y="-445" type="line" smooth="yes"/>
      <point x="-585" y="-476"/>
      <point x="-658" y="-521"/>
      <point x="-658" y="-622" type="curve" smooth="yes"/>
      <point x="-658" y="-628" type="line" smooth="yes"/>
      <point x="-658" y="-754"/>
      <point x="-537" y="-817"/>
    </contour>
    <contour>
      <point x="100" y="-867" type="curve"/>
      <point x="100" y="-835" type="line"/>
      <point x="23" y="-819"/>
      <point x="-53" y="-802"/>
      <point x="-130" y="-787" type="curve"/>
      <point x="-157" y="-803" type="line"/>
      <point x="-71" y="-826"/>
      <point x="14" y="-849"/>
    </contour>
  </outline>
</glyph>
<glyph name="zero.or" format="2">
  <advance width="1615"/>
  <unicode hex="0B66"/>
  <guideline y="-18"/>
  <outline>
    <contour>
      <point x="164" y="688" type="curve" smooth="yes"/>
      <point x="164" y="640" type="line" smooth="yes"/>
      <point x="164" y="223"/>
      <point x="405" y="-18"/>
      <point x="807" y="-18" type="curve" smooth="yes"/>
      <point x="1210" y="-18"/>
      <point x="1451" y="223"/>
      <point x="1451" y="640" type="curve" smooth="yes"/>
      <point x="1451" y="688" type="line" smooth="yes"/>
      <point x="1451" y="1104"/>
      <point x="1210" y="1346"/>
      <point x="807" y="1346" type="curve" smooth="yes"/>
      <point x="405" y="1346"/>
      <point x="164" y="1104"/>
    </contour>
    <contour>
      <point x="203" y="640" type="curve" smooth="yes"/>
      <point x="203" y="688" type="line" smooth="yes"/>
      <point x="203" y="1085"/>
      <point x="429" y="1311"/>
      <point x="807" y="1311" type="curve" smooth="yes"/>
      <point x="1189" y="1311"/>
      <point x="1412" y="1085"/>
      <point x="1412" y="688" type="curve" smooth="yes"/>
      <point x="1412" y="640" type="line" smooth="yes"/>
      <point x="1412" y="245"/>
      <point x="1189" y="17"/>
      <point x="807" y="17" type="curve" smooth="yes"/>
      <point x="429" y="17"/>
      <point x="203" y="245"/>
    </contour>
  </outline>
</glyph>
<glyph name="one.or" format="2">
  <advance width="1430"/>
  <unicode hex="0B67"/>
  <outline>
    <contour>
      <point x="793" y="1346" type="curve" smooth="yes"/>
      <point x="1126" y="1346"/>
      <point x="1296" y="1208"/>
      <point x="1296" y="979" type="curve" smooth="yes"/>
      <point x="1296" y="963" type="line" smooth="yes"/>
      <point x="1296" y="722"/>
      <point x="1136" y="600"/>
      <point x="818" y="600" type="curve" smooth="yes"/>
      <point x="463" y="600"/>
      <point x="271" y="780"/>
      <point x="220" y="968" type="curve"/>
      <point x="213" y="968" type="line"/>
      <point x="226" y="1025" type="line"/>
      <point x="282" y="804"/>
      <point x="483" y="633"/>
      <point x="817" y="633" type="curve" smooth="yes"/>
      <point x="1107" y="633"/>
      <point x="1257" y="743"/>
      <point x="1257" y="963" type="curve" smooth="yes"/>
      <point x="1257" y="976" type="line" smooth="yes"/>
      <point x="1257" y="1185"/>
      <point x="1104" y="1311"/>
      <point x="793" y="1311" type="curve" smooth="yes"/>
      <point x="420" y="1311"/>
      <point x="202" y="1121"/>
      <point x="202" y="750" type="curve" smooth="yes"/>
      <point x="202" y="747" type="line"/>
      <point x="202" y="737" type="line"/>
      <point x="202" y="732" type="line" smooth="yes"/>
      <point x="202" y="283"/>
      <point x="527" y="33"/>
      <point x="1149" y="33" type="curve" smooth="yes"/>
      <point x="1218" y="33" type="line"/>
      <point x="1208" y="-4" type="line"/>
      <point x="1149" y="-4" type="line" smooth="yes"/>
      <point x="502" y="-4"/>
      <point x="164" y="259"/>
      <point x="164" y="731" type="curve" smooth="yes"/>
      <point x="164" y="750" type="line" smooth="yes"/>
      <point x="164" y="1137"/>
      <point x="398" y="1346"/>
    </contour>
  </outline>
</glyph>
<glyph name="two.or" format="2">
  <advance width="1430"/>
  <unicode hex="0B68"/>
  <outline>
    <contour>
      <point x="637" y="1346" type="curve" smooth="yes"/>
      <point x="1032" y="1346"/>
      <point x="1266" y="1137"/>
      <point x="1266" y="750" type="curve" smooth="yes"/>
      <point x="1266" y="731" type="line" smooth="yes"/>
      <point x="1266" y="259"/>
      <point x="928" y="-4"/>
      <point x="281" y="-4" type="curve" smooth="yes"/>
      <point x="222" y="-4" type="line"/>
      <point x="212" y="33" type="line"/>
      <point x="281" y="33" type="line" smooth="yes"/>
      <point x="903" y="33"/>
      <point x="1228" y="283"/>
      <point x="1228" y="732" type="curve" smooth="yes"/>
      <point x="1228" y="737" type="line"/>
      <point x="1228" y="747" type="line"/>
      <point x="1228" y="750" type="line" smooth="yes"/>
      <point x="1228" y="1121"/>
      <point x="1010" y="1311"/>
      <point x="637" y="1311" type="curve" smooth="yes"/>
      <point x="326" y="1311"/>
      <point x="173" y="1185"/>
      <point x="173" y="976" type="curve" smooth="yes"/>
      <point x="173" y="963" type="line" smooth="yes"/>
      <point x="173" y="743"/>
      <point x="323" y="633"/>
      <point x="613" y="633" type="curve" smooth="yes"/>
      <point x="947" y="633"/>
      <point x="1148" y="804"/>
      <point x="1204" y="1025" type="curve"/>
      <point x="1216" y="968" type="line"/>
      <point x="1209" y="968" type="line"/>
      <point x="1158" y="780"/>
      <point x="966" y="600"/>
      <point x="612" y="600" type="curve" smooth="yes"/>
      <point x="294" y="600"/>
      <point x="134" y="722"/>
      <point x="134" y="963" type="curve" smooth="yes"/>
      <point x="134" y="979" type="line" smooth="yes"/>
      <point x="134" y="1208"/>
      <point x="304" y="1346"/>
    </contour>
  </outline>
</glyph>
<glyph name="three.or" format="2">
  <advance width="1868"/>
  <unicode hex="0B69"/>
  <outline>
    <contour>
      <point x="530" y="1346" type="curve" smooth="yes"/>
      <point x="274" y="1346"/>
      <point x="134" y="1203"/>
      <point x="134" y="975" type="curve" smooth="yes"/>
      <point x="134" y="956" type="line" smooth="yes"/>
      <point x="134" y="718"/>
      <point x="275" y="584"/>
      <point x="522" y="584" type="curve" smooth="yes"/>
      <point x="771" y="584"/>
      <point x="893" y="725"/>
      <point x="905" y="897" type="curve"/>
      <point x="914" y="897" type="line"/>
      <point x="894" y="952" type="line"/>
      <point x="894" y="745"/>
      <point x="750" y="618"/>
      <point x="531" y="618" type="curve" smooth="yes"/>
      <point x="300" y="618"/>
      <point x="171" y="742"/>
      <point x="171" y="956" type="curve" smooth="yes"/>
      <point x="171" y="975" type="line" smooth="yes"/>
      <point x="171" y="1190"/>
      <point x="300" y="1311"/>
      <point x="530" y="1311" type="curve" smooth="yes"/>
      <point x="765" y="1311"/>
      <point x="894" y="1174"/>
      <point x="894" y="975" type="curve" smooth="yes"/>
      <point x="894" y="881" type="line"/>
      <point x="898" y="881" type="line"/>
      <point x="894" y="639" type="line"/>
      <point x="893" y="0" type="line"/>
      <point x="930" y="0" type="line"/>
      <point x="930" y="974" type="line" smooth="yes"/>
      <point x="930" y="1179"/>
      <point x="1055" y="1311"/>
      <point x="1261" y="1311" type="curve" smooth="yes"/>
      <point x="1486" y="1311"/>
      <point x="1588" y="1205"/>
      <point x="1588" y="967" type="curve" smooth="yes"/>
      <point x="1588" y="0" type="line"/>
      <point x="1625" y="0" type="line"/>
      <point x="1625" y="969" type="line" smooth="yes"/>
      <point x="1625" y="1225"/>
      <point x="1510" y="1346"/>
      <point x="1268" y="1346" type="curve" smooth="yes"/>
      <point x="1038" y="1346"/>
      <point x="922" y="1212"/>
      <point x="909" y="1024" type="curve"/>
      <point x="915" y="1024" type="line"/>
      <point x="903" y="1214"/>
      <point x="764" y="1346"/>
    </contour>
  </outline>
</glyph>
<glyph name="four.or" format="2">
  <advance width="1521"/>
  <unicode hex="0B6A"/>
  <guideline y="742"/>
  <outline>
    <contour>
      <point x="770" y="856" type="line"/>
      <point x="1481" y="1314" type="line"/>
      <point x="1481" y="1314" type="line"/>
      <point x="1416" y="1314" type="line"/>
      <point x="743" y="880" type="line"/>
    </contour>
    <contour>
      <point x="751" y="852" type="line"/>
      <point x="763" y="886" type="line"/>
      <point x="104" y="1314" type="line"/>
      <point x="40" y="1314" type="line"/>
      <point x="40" y="1314" type="line"/>
    </contour>
    <contour>
      <point x="758" y="-18" type="curve" smooth="yes"/>
      <point x="1106" y="-18"/>
      <point x="1288" y="107"/>
      <point x="1288" y="314" type="curve" smooth="yes"/>
      <point x="1288" y="323" type="line" smooth="yes"/>
      <point x="1288" y="529"/>
      <point x="1159" y="659"/>
      <point x="877" y="824" type="curve" smooth="yes"/>
      <point x="781" y="880" type="line"/>
      <point x="747" y="860" type="line"/>
      <point x="855" y="797" type="line" smooth="yes"/>
      <point x="1131" y="636"/>
      <point x="1249" y="510"/>
      <point x="1249" y="323" type="curve" smooth="yes"/>
      <point x="1249" y="314" type="line" smooth="yes"/>
      <point x="1249" y="127"/>
      <point x="1081" y="18"/>
      <point x="758" y="18" type="curve" smooth="yes"/>
      <point x="435" y="18"/>
      <point x="267" y="127"/>
      <point x="267" y="314" type="curve" smooth="yes"/>
      <point x="267" y="323" type="line" smooth="yes"/>
      <point x="267" y="510"/>
      <point x="385" y="636"/>
      <point x="661" y="797" type="curve" smooth="yes"/>
      <point x="774" y="863" type="line"/>
      <point x="743" y="884" type="line"/>
      <point x="639" y="824" type="line" smooth="yes"/>
      <point x="355" y="660"/>
      <point x="228" y="529"/>
      <point x="228" y="323" type="curve" smooth="yes"/>
      <point x="228" y="314" type="line" smooth="yes"/>
      <point x="228" y="107"/>
      <point x="410" y="-18"/>
    </contour>
  </outline>
</glyph>
<glyph name="five.or" format="2">
  <advance width="1924"/>
  <unicode hex="0B6B"/>
  <outline>
    <contour>
      <point x="829" y="677" type="curve"/>
      <point x="1275" y="677"/>
      <point x="1487" y="561"/>
      <point x="1487" y="348" type="curve" smooth="yes"/>
      <point x="1487" y="343" type="line" smooth="yes"/>
      <point x="1487" y="123"/>
      <point x="1298" y="17"/>
      <point x="950" y="17" type="curve" smooth="yes"/>
      <point x="603" y="17"/>
      <point x="413" y="121"/>
      <point x="413" y="341" type="curve" smooth="yes"/>
      <point x="413" y="346" type="line" smooth="yes"/>
      <point x="413" y="562"/>
      <point x="590" y="646"/>
    </contour>
    <contour>
      <point x="1080" y="702" type="curve"/>
      <point x="668" y="702"/>
      <point x="462" y="800"/>
      <point x="462" y="1004" type="curve" smooth="yes"/>
      <point x="462" y="1009" type="line" smooth="yes"/>
      <point x="462" y="1205"/>
      <point x="640" y="1311"/>
      <point x="985" y="1311" type="curve" smooth="yes"/>
      <point x="1322" y="1311"/>
      <point x="1508" y="1208"/>
      <point x="1508" y="1011" type="curve" smooth="yes"/>
      <point x="1508" y="1006" type="line" smooth="yes"/>
      <point x="1508" y="810"/>
      <point x="1348" y="735"/>
    </contour>
    <contour>
      <point x="985" y="1346" type="curve" smooth="yes"/>
      <point x="614" y="1346"/>
      <point x="424" y="1223"/>
      <point x="424" y="1009" type="curve" smooth="yes"/>
      <point x="424" y="1004" type="line" smooth="yes"/>
      <point x="424" y="832"/>
      <point x="567" y="726"/>
      <point x="796" y="697" type="curve"/>
      <point x="796" y="690" type="line"/>
      <point x="500" y="670"/>
      <point x="375" y="539"/>
      <point x="375" y="346" type="curve" smooth="yes"/>
      <point x="375" y="341" type="line" smooth="yes"/>
      <point x="375" y="101"/>
      <point x="573" y="-18"/>
      <point x="950" y="-18" type="curve" smooth="yes"/>
      <point x="1325" y="-18"/>
      <point x="1525" y="100"/>
      <point x="1525" y="341" type="curve" smooth="yes"/>
      <point x="1525" y="346" type="line" smooth="yes"/>
      <point x="1525" y="532"/>
      <point x="1390" y="641"/>
      <point x="1136" y="680" type="curve"/>
      <point x="1136" y="690" type="line"/>
      <point x="1415" y="708"/>
      <point x="1546" y="836"/>
      <point x="1546" y="1006" type="curve" smooth="yes"/>
      <point x="1546" y="1011" type="line" smooth="yes"/>
      <point x="1546" y="1225"/>
      <point x="1351" y="1346"/>
    </contour>
    <contour>
      <point x="1884" y="614" type="line"/>
      <point x="1884" y="652" type="line"/>
      <point x="1152" y="704" type="line"/>
      <point x="1074" y="682" type="line"/>
    </contour>
    <contour>
      <point x="40" y="767" type="line"/>
      <point x="40" y="729" type="line"/>
      <point x="770" y="671" type="line"/>
      <point x="831" y="698" type="line"/>
    </contour>
  </outline>
</glyph>
<glyph name="six.or" format="2">
  <advance width="1588"/>
  <unicode hex="0B6C"/>
  <outline>
    <contour>
      <point x="766" y="1311" type="curve" smooth="yes"/>
      <point x="1159" y="1311"/>
      <point x="1385" y="1111"/>
      <point x="1385" y="755" type="curve" smooth="yes"/>
      <point x="1385" y="737" type="line" smooth="yes"/>
      <point x="1385" y="279"/>
      <point x="1039" y="36"/>
      <point x="381" y="36" type="curve" smooth="yes"/>
      <point x="247" y="36" type="line"/>
      <point x="257" y="-1" type="line"/>
      <point x="381" y="-1" type="line" smooth="yes"/>
      <point x="1065" y="-1"/>
      <point x="1424" y="255"/>
      <point x="1424" y="737" type="curve" smooth="yes"/>
      <point x="1424" y="757" type="line" smooth="yes"/>
      <point x="1424" y="1136"/>
      <point x="1184" y="1346"/>
      <point x="766" y="1346" type="curve" smooth="yes"/>
      <point x="442" y="1346"/>
      <point x="259" y="1201"/>
      <point x="180" y="1054" type="curve"/>
      <point x="180" y="1024" type="line"/>
      <point x="614" y="1024"/>
      <point x="787" y="955"/>
      <point x="787" y="782" type="curve" smooth="yes"/>
      <point x="787" y="771" type="line" smooth="yes"/>
      <point x="787" y="632"/>
      <point x="670" y="557"/>
      <point x="460" y="557" type="curve" smooth="yes"/>
      <point x="351" y="557"/>
      <point x="235" y="583"/>
      <point x="128" y="635" type="curve"/>
      <point x="133" y="597" type="line"/>
      <point x="217" y="553"/>
      <point x="337" y="523"/>
      <point x="461" y="523" type="curve" smooth="yes"/>
      <point x="695" y="523"/>
      <point x="825" y="610"/>
      <point x="825" y="771" type="curve" smooth="yes"/>
      <point x="825" y="782" type="line" smooth="yes"/>
      <point x="825" y="977"/>
      <point x="644" y="1059"/>
      <point x="208" y="1059" type="curve"/>
      <point x="220" y="1047" type="line"/>
      <point x="312" y="1198"/>
      <point x="490" y="1311"/>
    </contour>
  </outline>
</glyph>
<glyph name="seven.or" format="2">
  <advance width="1658"/>
  <unicode hex="0B6D"/>
  <outline>
    <contour>
      <point x="809" y="1346" type="curve" smooth="yes"/>
      <point x="1254" y="1346"/>
      <point x="1494" y="1136"/>
      <point x="1494" y="757" type="curve" smooth="yes"/>
      <point x="1494" y="737" type="line" smooth="yes"/>
      <point x="1494" y="255"/>
      <point x="1135" y="-1"/>
      <point x="451" y="-1" type="curve" smooth="yes"/>
      <point x="307" y="-1" type="line"/>
      <point x="297" y="36" type="line"/>
      <point x="451" y="36" type="line" smooth="yes"/>
      <point x="1109" y="36"/>
      <point x="1455" y="279"/>
      <point x="1455" y="737" type="curve" smooth="yes"/>
      <point x="1455" y="755" type="line" smooth="yes"/>
      <point x="1455" y="1111"/>
      <point x="1228" y="1311"/>
      <point x="809" y="1311" type="curve" smooth="yes"/>
      <point x="400" y="1311"/>
      <point x="172" y="1153"/>
      <point x="172" y="875" type="curve" smooth="yes"/>
      <point x="172" y="872" type="line"/>
      <point x="172" y="870" type="line"/>
      <point x="172" y="868" type="line"/>
      <point x="172" y="633"/>
      <point x="305" y="512"/>
      <point x="547" y="512" type="curve" smooth="yes"/>
      <point x="755" y="512"/>
      <point x="867" y="598"/>
      <point x="867" y="745" type="curve" smooth="yes"/>
      <point x="867" y="752" type="line" smooth="yes"/>
      <point x="867" y="900"/>
      <point x="761" y="981"/>
      <point x="571" y="981" type="curve" smooth="yes"/>
      <point x="372" y="981"/>
      <point x="234" y="878"/>
      <point x="184" y="720" type="curve"/>
      <point x="175" y="743" type="line"/>
      <point x="173" y="754" type="line"/>
      <point x="218" y="892"/>
      <point x="349" y="1015"/>
      <point x="577" y="1015" type="curve" smooth="yes"/>
      <point x="788" y="1015"/>
      <point x="905" y="924"/>
      <point x="905" y="752" type="curve" smooth="yes"/>
      <point x="905" y="745" type="line" smooth="yes"/>
      <point x="905" y="575"/>
      <point x="779" y="477"/>
      <point x="547" y="477" type="curve" smooth="yes"/>
      <point x="280" y="477"/>
      <point x="134" y="617"/>
      <point x="134" y="868" type="curve" smooth="yes"/>
      <point x="134" y="875" type="line" smooth="yes"/>
      <point x="134" y="1176"/>
      <point x="374" y="1346"/>
    </contour>
  </outline>
</glyph>
<glyph name="eight.or" format="2">
  <advance width="1421"/>
  <unicode hex="0B6E"/>
  <outline>
    <contour>
      <point x="289" y="0" type="line"/>
      <point x="252" y="0" type="line"/>
      <point x="252" y="1314" type="line"/>
      <point x="1331" y="1314" type="line"/>
      <point x="1331" y="1279" type="line"/>
      <point x="289" y="1279" type="line"/>
    </contour>
  </outline>
</glyph>
<glyph name="nine.or" format="2">
  <advance width="1561"/>
  <unicode hex="0B6F"/>
  <outline>
    <contour>
      <point x="1341" y="733" type="line"/>
      <point x="1341" y="1314" type="line"/>
      <point x="1304" y="1314" type="line"/>
      <point x="1304" y="957" type="line" smooth="yes"/>
      <point x="1304" y="875"/>
      <point x="1304" y="821"/>
      <point x="1306" y="765" type="curve"/>
      <point x="1319" y="767" type="line"/>
      <point x="493" y="1314" type="line"/>
      <point x="457" y="1314" type="line"/>
      <point x="278" y="1183"/>
      <point x="164" y="977"/>
      <point x="164" y="728" type="curve" smooth="yes"/>
      <point x="164" y="712" type="line" smooth="yes"/>
      <point x="164" y="237"/>
      <point x="538" y="-1"/>
      <point x="1172" y="-1" type="curve" smooth="yes"/>
      <point x="1287" y="-1" type="line"/>
      <point x="1297" y="36" type="line"/>
      <point x="1172" y="36" type="line" smooth="yes"/>
      <point x="564" y="36"/>
      <point x="203" y="261"/>
      <point x="203" y="712" type="curve" smooth="yes"/>
      <point x="203" y="728" type="line" smooth="yes"/>
      <point x="203" y="964"/>
      <point x="308" y="1160"/>
      <point x="489" y="1296" type="curve"/>
      <point x="465" y="1291" type="line"/>
      <point x="1309" y="733" type="line"/>
    </contour>
  </outline>
</glyph>
<glyph name="Isshar.or" format="2">
  <advance width="1928"/>
  <unicode hex="0B70"/>
  <outline>
    <contour>
      <point x="176" y="762" type="line"/>
      <point x="799" y="32" type="line"/>
      <point x="832" y="32" type="line"/>
      <point x="1757" y="1360" type="line"/>
      <point x="1802" y="1360" type="line"/>
      <point x="855" y="0" type="line"/>
      <point x="778" y="0" type="line"/>
      <point x="126" y="762" type="line"/>
    </contour>
    <contour>
      <point x="816" y="771" type="curve" smooth="yes"/>
      <point x="862" y="771"/>
      <point x="883" y="796"/>
      <point x="883" y="826" type="curve" smooth="yes"/>
      <point x="883" y="829" type="line" smooth="yes"/>
      <point x="883" y="863"/>
      <point x="862" y="887"/>
      <point x="818" y="887" type="curve" smooth="yes"/>
      <point x="774" y="887"/>
      <point x="753" y="863"/>
      <point x="753" y="829" type="curve" smooth="yes"/>
      <point x="753" y="826" type="line" smooth="yes"/>
      <point x="753" y="797"/>
      <point x="774" y="771"/>
    </contour>
  </outline>
</glyph>
<glyph name="Wa.or" format="2">
  <advance width="1718"/>
  <unicode hex="0B71"/>
  <anchor x="1409" y="12" name="bottom"/>
  <anchor x="1706" y="-4" name="rasmall"/>
  <anchor x="862" y="1780" name="top1"/>
  <outline>
    <contour>
      <point x="715" y="1025" type="curve"/>
      <point x="753" y="1022" type="line"/>
      <point x="738" y="1050"/>
      <point x="728" y="1079"/>
      <point x="728" y="1104" type="curve" smooth="yes"/>
      <point x="728" y="1109" type="line" smooth="yes"/>
      <point x="728" y="1241"/>
      <point x="866" y="1312"/>
      <point x="1117" y="1312" type="curve" smooth="yes"/>
      <point x="1372" y="1312"/>
      <point x="1509" y="1242"/>
      <point x="1509" y="1108" type="curve" smooth="yes"/>
      <point x="1509" y="1096" type="line" smooth="yes"/>
      <point x="1509" y="977"/>
      <point x="1402" y="879"/>
      <point x="1094" y="879" type="curve" smooth="yes"/>
      <point x="993" y="879" type="line"/>
      <point x="993" y="847" type="line"/>
      <point x="1087" y="847" type="line" smooth="yes"/>
      <point x="1193" y="847"/>
      <point x="1284" y="855"/>
      <point x="1380" y="887" type="curve"/>
      <point x="1390" y="893" type="line"/>
      <point x="1491" y="935"/>
      <point x="1546" y="1002"/>
      <point x="1546" y="1096" type="curve"/>
      <point x="1546" y="1108" type="line" smooth="yes"/>
      <point x="1546" y="1261"/>
      <point x="1395" y="1346"/>
      <point x="1117" y="1346" type="curve" smooth="yes"/>
      <point x="844" y="1346"/>
      <point x="693" y="1261"/>
      <point x="693" y="1109" type="curve" smooth="yes"/>
      <point x="693" y="1104" type="line" smooth="yes"/>
      <point x="693" y="1075"/>
      <point x="702" y="1049"/>
    </contour>
    <contour>
      <point x="931" y="407" type="curve" smooth="yes"/>
      <point x="1370" y="407"/>
      <point x="1577" y="510"/>
      <point x="1577" y="698" type="curve" smooth="yes"/>
      <point x="1577" y="708" type="line" smooth="yes"/>
      <point x="1577" y="799"/>
      <point x="1511" y="881"/>
      <point x="1360" y="903" type="curve"/>
      <point x="1335" y="883" type="line"/>
      <point x="1485" y="859"/>
      <point x="1540" y="786"/>
      <point x="1540" y="706" type="curve" smooth="yes"/>
      <point x="1540" y="698" type="line" smooth="yes"/>
      <point x="1540" y="538"/>
      <point x="1349" y="442"/>
      <point x="931" y="442" type="curve" smooth="yes"/>
      <point x="439" y="442"/>
      <point x="185" y="596"/>
      <point x="185" y="884" type="curve" smooth="yes"/>
      <point x="185" y="908" type="line" smooth="yes"/>
      <point x="185" y="1064"/>
      <point x="253" y="1199"/>
      <point x="406" y="1329" type="curve"/>
      <point x="358" y="1329" type="line"/>
      <point x="214" y="1203"/>
      <point x="146" y="1072"/>
      <point x="146" y="906" type="curve" smooth="yes"/>
      <point x="146" y="884" type="line" smooth="yes"/>
      <point x="146" y="573"/>
      <point x="410" y="407"/>
    </contour>
    <contour>
      <point x="350" y="335" type="curve" smooth="yes"/>
      <point x="350" y="346" type="line" smooth="yes"/>
      <point x="350" y="402"/>
      <point x="370" y="465"/>
      <point x="407" y="505" type="curve"/>
      <point x="373" y="520" type="line"/>
      <point x="336" y="475"/>
      <point x="311" y="415"/>
      <point x="311" y="345" type="curve" smooth="yes"/>
      <point x="311" y="335" type="line" smooth="yes"/>
      <point x="311" y="136"/>
      <point x="465" y="27"/>
      <point x="827" y="27" type="curve" smooth="yes"/>
      <point x="1139" y="27"/>
      <point x="1328" y="150"/>
      <point x="1381" y="286" type="curve"/>
      <point x="1375" y="309" type="line"/>
      <point x="1372" y="53" type="line"/>
      <point x="1372" y="-8" type="line"/>
      <point x="1409" y="-8" type="line"/>
      <point x="1409" y="496" type="line"/>
      <point x="1372" y="496" type="line"/>
      <point x="1372" y="313" type="line"/>
      <point x="1375" y="331" type="line"/>
      <point x="1313" y="172"/>
      <point x="1123" y="62"/>
      <point x="831" y="62" type="curve" smooth="yes"/>
      <point x="495" y="62"/>
      <point x="350" y="160"/>
    </contour>
  </outline>
</glyph>
<glyph name="onehalf.or" format="2">
  <advance width="1224"/>
  <unicode hex="0B73"/>
  <outline>
    <contour>
      <point x="184" y="1113" type="curve"/>
      <point x="147" y="1113" type="line"/>
      <point x="147" y="1074"/>
      <point x="147" y="978"/>
      <point x="147" y="942" type="curve" smooth="yes"/>
      <point x="147" y="925" type="line" smooth="yes"/>
      <point x="147" y="706"/>
      <point x="283" y="581"/>
      <point x="552" y="581" type="curve" smooth="yes"/>
      <point x="806" y="581"/>
      <point x="942" y="705"/>
      <point x="951" y="849" type="curve"/>
      <point x="965" y="856" type="line"/>
      <point x="942" y="878" type="line"/>
      <point x="925" y="722"/>
      <point x="784" y="614"/>
      <point x="554" y="614" type="curve" smooth="yes"/>
      <point x="307" y="614"/>
      <point x="184" y="731"/>
      <point x="184" y="925" type="curve" smooth="yes"/>
      <point x="184" y="942" type="line" smooth="yes"/>
      <point x="184" y="982"/>
      <point x="184" y="1065"/>
    </contour>
    <contour>
      <point x="935" y="1" type="line"/>
      <point x="972" y="1" type="line"/>
      <point x="972" y="1113" type="line"/>
      <point x="937" y="1113" type="line"/>
      <point x="937" y="817" type="line"/>
      <point x="939" y="801" type="line"/>
      <point x="935" y="541" type="line"/>
    </contour>
  </outline>
</glyph>
<glyph name="threequarter.or" format="2">
  <advance width="1994"/>
  <unicode hex="0B74"/>
  <outline>
    <contour>
      <point x="964" y="1113" type="curve"/>
      <point x="927" y="1113" type="line"/>
      <point x="927" y="1073"/>
      <point x="927" y="979"/>
      <point x="927" y="942" type="curve" smooth="yes"/>
      <point x="927" y="925" type="line" smooth="yes"/>
      <point x="927" y="706"/>
      <point x="1061" y="581"/>
      <point x="1327" y="581" type="curve" smooth="yes"/>
      <point x="1578" y="581"/>
      <point x="1712" y="705"/>
      <point x="1721" y="849" type="curve"/>
      <point x="1735" y="856" type="line"/>
      <point x="1712" y="878" type="line"/>
      <point x="1695" y="722"/>
      <point x="1556" y="614"/>
      <point x="1329" y="614" type="curve" smooth="yes"/>
      <point x="1085" y="614"/>
      <point x="964" y="731"/>
      <point x="964" y="925" type="curve" smooth="yes"/>
      <point x="964" y="942" type="line" smooth="yes"/>
      <point x="964" y="983"/>
      <point x="964" y="1065"/>
    </contour>
    <contour>
      <point x="1705" y="1" type="line"/>
      <point x="1742" y="1" type="line"/>
      <point x="1742" y="1113" type="line"/>
      <point x="1707" y="1113" type="line"/>
      <point x="1707" y="817" type="line"/>
      <point x="1709" y="801" type="line"/>
      <point x="1705" y="541" type="line"/>
    </contour>
    <contour>
      <point x="184" y="1113" type="curve"/>
      <point x="147" y="1113" type="line"/>
      <point x="147" y="1073"/>
      <point x="147" y="978"/>
      <point x="147" y="941" type="curve" smooth="yes"/>
      <point x="147" y="925" type="line" smooth="yes"/>
      <point x="147" y="706"/>
      <point x="281" y="581"/>
      <point x="547" y="581" type="curve" smooth="yes"/>
      <point x="801" y="581"/>
      <point x="937" y="705"/>
      <point x="947" y="849" type="curve"/>
      <point x="955" y="856" type="line"/>
      <point x="932" y="878" type="line"/>
      <point x="915" y="722"/>
      <point x="776" y="614"/>
      <point x="549" y="614" type="curve" smooth="yes"/>
      <point x="305" y="614"/>
      <point x="184" y="731"/>
      <point x="184" y="925" type="curve" smooth="yes"/>
      <point x="184" y="941" type="line" smooth="yes"/>
      <point x="184" y="982"/>
      <point x="184" y="1064"/>
    </contour>
  </outline>
</glyph>
<glyph name="onesixteenth.or" format="2">
  <advance width="870"/>
  <unicode hex="0B75"/>
  <outline>
    <contour>
      <point x="44" y="0" type="line"/>
      <point x="778" y="1113" type="line"/>
      <point x="821" y="1113" type="line"/>
      <point x="87" y="0" type="line"/>
    </contour>
  </outline>
</glyph>
<glyph name="oneeigth.or" format="2">
  <advance width="2256"/>
  <unicode hex="0B76"/>
  <outline>
    <contour>
      <point x="618" y="-19" type="curve" smooth="yes"/>
      <point x="319" y="-19"/>
      <point x="120" y="77"/>
      <point x="120" y="301" type="curve" smooth="yes"/>
      <point x="120" y="314" type="line" smooth="yes"/>
      <point x="120" y="561"/>
      <point x="331" y="723"/>
      <point x="785" y="723" type="curve" smooth="yes"/>
      <point x="1210" y="723"/>
      <point x="1502" y="584"/>
      <point x="1502" y="240" type="curve" smooth="yes"/>
      <point x="1502" y="165"/>
      <point x="1490" y="93"/>
      <point x="1464" y="33" type="curve"/>
      <point x="1460" y="33" type="line"/>
      <point x="1483" y="70"/>
      <point x="1506" y="106"/>
      <point x="1568" y="201" type="curve" smooth="yes"/>
      <point x="2169" y="1113" type="line"/>
      <point x="2212" y="1113" type="line"/>
      <point x="1478" y="0" type="line"/>
      <point x="1419" y="0" type="line"/>
      <point x="1451" y="74"/>
      <point x="1465" y="152"/>
      <point x="1465" y="237" type="curve" smooth="yes"/>
      <point x="1465" y="240" type="line" smooth="yes"/>
      <point x="1465" y="566"/>
      <point x="1185" y="689"/>
      <point x="785" y="689" type="curve" smooth="yes"/>
      <point x="352" y="689"/>
      <point x="157" y="541"/>
      <point x="157" y="314" type="curve" smooth="yes"/>
      <point x="157" y="304" type="line"/>
      <point x="157" y="304" type="line"/>
      <point x="157" y="301" type="line" smooth="yes"/>
      <point x="157" y="98"/>
      <point x="341" y="15"/>
      <point x="618" y="15" type="curve" smooth="yes"/>
      <point x="835" y="15"/>
      <point x="952" y="82"/>
      <point x="952" y="209" type="curve" smooth="yes"/>
      <point x="952" y="215" type="line" smooth="yes"/>
      <point x="952" y="337"/>
      <point x="852" y="399"/>
      <point x="640" y="399" type="curve" smooth="yes"/>
      <point x="448" y="399"/>
      <point x="265" y="331"/>
      <point x="164" y="159" type="curve"/>
      <point x="146" y="177" type="line"/>
      <point x="151" y="177" type="line"/>
      <point x="242" y="351"/>
      <point x="430" y="432"/>
      <point x="644" y="432" type="curve" smooth="yes"/>
      <point x="874" y="432"/>
      <point x="989" y="360"/>
      <point x="989" y="216" type="curve" smooth="yes"/>
      <point x="989" y="208" type="line" smooth="yes"/>
      <point x="989" y="60"/>
      <point x="859" y="-19"/>
    </contour>
  </outline>
</glyph>
<glyph name="threesixteenth.or" format="2">
  <advance width="2413"/>
  <unicode hex="0B77"/>
  <outline>
    <contour>
      <point x="512" y="599" type="curve" smooth="yes"/>
      <point x="746" y="599"/>
      <point x="873" y="477"/>
      <point x="884" y="308" type="curve"/>
      <point x="878" y="308" type="line"/>
      <point x="889" y="477"/>
      <point x="1014" y="599"/>
      <point x="1250" y="599" type="curve" smooth="yes"/>
      <point x="1500" y="599"/>
      <point x="1632" y="477"/>
      <point x="1632" y="233" type="curve" smooth="yes"/>
      <point x="1632" y="193"/>
      <point x="1630" y="99"/>
      <point x="1628" y="34" type="curve"/>
      <point x="1617" y="33" type="line"/>
      <point x="1640" y="70"/>
      <point x="1663" y="106"/>
      <point x="1725" y="201" type="curve" smooth="yes"/>
      <point x="2326" y="1113" type="line"/>
      <point x="2369" y="1113" type="line"/>
      <point x="1635" y="0" type="line"/>
      <point x="1595" y="0" type="line"/>
      <point x="1595" y="233" type="line" smooth="yes"/>
      <point x="1595" y="462"/>
      <point x="1479" y="566"/>
      <point x="1243" y="566" type="curve" smooth="yes"/>
      <point x="1031" y="566"/>
      <point x="899" y="447"/>
      <point x="899" y="264" type="curve" smooth="yes"/>
      <point x="899" y="0" type="line"/>
      <point x="863" y="0" type="line"/>
      <point x="863" y="264" type="line" smooth="yes"/>
      <point x="863" y="449"/>
      <point x="730" y="566"/>
      <point x="513" y="566" type="curve" smooth="yes"/>
      <point x="287" y="566"/>
      <point x="167" y="449"/>
      <point x="167" y="243" type="curve" smooth="yes"/>
      <point x="167" y="225" type="line" smooth="yes"/>
      <point x="167" y="147"/>
      <point x="184" y="79"/>
      <point x="216" y="0" type="curve"/>
      <point x="178" y="0" type="line"/>
      <point x="148" y="72"/>
      <point x="130" y="141"/>
      <point x="130" y="225" type="curve" smooth="yes"/>
      <point x="130" y="243" type="line" smooth="yes"/>
      <point x="130" y="471"/>
      <point x="267" y="599"/>
    </contour>
  </outline>
</glyph>
<glyph name="BaBa.or" format="2">
  <advance width="2165"/>
  <anchor x="1696" y="4" name="bottom"/>
  <anchor x="1993" y="4" name="rasmall"/>
  <anchor x="1070" y="1780" name="top1"/>
  <anchor x="1688" y="1453" name="top2"/>
  <outline>
    <contour>
      <point x="413" y="401" type="curve"/>
      <point x="422" y="438" type="line"/>
      <point x="274" y="496"/>
      <point x="194" y="607"/>
      <point x="194" y="784" type="curve" smooth="yes"/>
      <point x="194" y="808" type="line" smooth="yes"/>
      <point x="194" y="1146"/>
      <point x="494" y="1318"/>
      <point x="1066" y="1318" type="curve" smooth="yes"/>
      <point x="1659" y="1318"/>
      <point x="1971" y="1129"/>
      <point x="1971" y="740" type="curve" smooth="yes"/>
      <point x="1971" y="717" type="line" smooth="yes"/>
      <point x="1971" y="628"/>
      <point x="1952" y="545"/>
      <point x="1900" y="440" type="curve"/>
      <point x="1942" y="447" type="line"/>
      <point x="1987" y="534"/>
      <point x="2010" y="624"/>
      <point x="2010" y="717" type="curve" smooth="yes"/>
      <point x="2010" y="740" type="line" smooth="yes"/>
      <point x="2010" y="1149"/>
      <point x="1684" y="1353"/>
      <point x="1068" y="1353" type="curve" smooth="yes"/>
      <point x="465" y="1353"/>
      <point x="155" y="1171"/>
      <point x="155" y="808" type="curve" smooth="yes"/>
      <point x="155" y="784" type="line" smooth="yes"/>
      <point x="155" y="585"/>
      <point x="246" y="468"/>
    </contour>
    <contour>
      <point x="738" y="121" type="curve" smooth="yes"/>
      <point x="549" y="121"/>
      <point x="442" y="225"/>
      <point x="442" y="398" type="curve" smooth="yes"/>
      <point x="442" y="418" type="line" smooth="yes"/>
      <point x="442" y="591"/>
      <point x="548" y="696"/>
      <point x="736" y="696" type="curve" smooth="yes"/>
      <point x="929" y="696"/>
      <point x="1035" y="581"/>
      <point x="1035" y="421" type="curve" smooth="yes"/>
      <point x="1035" y="402" type="line" smooth="yes"/>
      <point x="1035" y="229"/>
      <point x="920" y="121"/>
    </contour>
    <contour>
      <point x="1659" y="0" type="line"/>
      <point x="1696" y="0" type="line"/>
      <point x="1696" y="397" type="line" smooth="yes"/>
      <point x="1696" y="604"/>
      <point x="1584" y="729"/>
      <point x="1365" y="729" type="curve" smooth="yes"/>
      <point x="1162" y="729"/>
      <point x="1061" y="619"/>
      <point x="1049" y="464" type="curve"/>
      <point x="1055" y="464" type="line"/>
      <point x="1046" y="619"/>
      <point x="931" y="729"/>
      <point x="736" y="729" type="curve" smooth="yes"/>
      <point x="523" y="729"/>
      <point x="408" y="603"/>
      <point x="405" y="418" type="curve"/>
      <point x="405" y="414" type="line"/>
      <point x="405" y="411"/>
      <point x="405" y="409"/>
      <point x="405" y="407" type="curve"/>
      <point x="405" y="398" type="line" smooth="yes"/>
      <point x="405" y="201"/>
      <point x="523" y="87"/>
      <point x="729" y="87" type="curve" smooth="yes"/>
      <point x="936" y="87"/>
      <point x="1044" y="201"/>
      <point x="1057" y="357" type="curve"/>
      <point x="1051" y="357" type="line"/>
      <point x="1061" y="201"/>
      <point x="1162" y="87"/>
      <point x="1362" y="87" type="curve" smooth="yes"/>
      <point x="1562" y="87"/>
      <point x="1660" y="205"/>
      <point x="1671" y="349" type="curve"/>
      <point x="1680" y="349" type="line"/>
      <point x="1659" y="404" type="line"/>
      <point x="1659" y="229"/>
      <point x="1543" y="121"/>
      <point x="1368" y="121" type="curve" smooth="yes"/>
      <point x="1179" y="121"/>
      <point x="1073" y="224"/>
      <point x="1073" y="398" type="curve" smooth="yes"/>
      <point x="1073" y="418" type="line" smooth="yes"/>
      <point x="1073" y="592"/>
      <point x="1177" y="696"/>
      <point x="1364" y="696" type="curve" smooth="yes"/>
      <point x="1560" y="696"/>
      <point x="1657" y="581"/>
      <point x="1659" y="418" type="curve" smooth="yes"/>
      <point x="1660" y="333" type="line"/>
      <point x="1664" y="333" type="line"/>
      <point x="1659" y="133" type="line"/>
    </contour>
  </outline>
</glyph>
